<?xml version="1.0" encoding="UTF-8"?>
<svg width="158px" height="101px" viewBox="0 0 158 101" version="1.1" xmlns="http://www.w3.org/2000/svg" xmlns:xlink="http://www.w3.org/1999/xlink">
    <!-- Generator: Sketch 50.2 (55047) - http://www.bohemiancoding.com/sketch -->
    <title>logo_color</title>
    <desc>Created with Sketch.</desc>
    <defs></defs>
    <g id="Page-1" stroke="none" stroke-width="1" fill="none" fill-rule="evenodd">
        <g id="2" transform="translate(-401.000000, -100.000000)" fill="#3DB8C2">
            <g id="logo_color" transform="translate(401.000000, 100.000000)">
                <path d="M108.2683,3.46456348 C97.448925,3.46456348 88.648175,12.2989896 88.648175,23.157807 C88.648175,34.0175026 97.448925,42.8519287 108.2683,42.8519287 C119.0868,42.8519287 127.888425,34.0175026 127.888425,23.157807 C127.888425,12.2989896 119.0868,3.46456348 108.2683,3.46456348 M108.2683,45.9144243 C95.767175,45.9144243 85.596175,35.70552 85.596175,23.157807 C85.596175,10.6100939 95.767175,0.402067826 108.2683,0.402067826 C120.769425,0.402067826 130.93955,10.6100939 130.93955,23.157807 C130.93955,35.70552 120.769425,45.9144243 108.2683,45.9144243" id="Fill-19"></path>
                <path d="M145.473475,15.2638226 C148.52285,28.1768922 145.88035,39.3343183 137.41385,49.8444661 C128.214975,61.2636139 112.6671,63.2397009 103.377225,64.4200835 L102.35085,64.5518226 C93.22985,65.7251791 87.43735,72.0240661 87.23435,80.9911096 C87.13985,85.1479183 88.8706,89.0877965 92.107225,92.0844226 C96.335225,95.997953 102.680725,97.8335183 109.517975,97.122127 C121.8966,95.8319617 138.826975,87.6781878 149.22285,68.66384 C154.200725,59.5589096 155.929725,48.9670835 154.2226,38.0344922 C152.9801,30.0792052 149.99285,22.3390922 145.473475,15.2638226 M106.6541,100.334805 C100.1651,100.334805 94.233475,98.2190748 90.038725,94.3354052 C86.148475,90.7345357 84.069475,85.9708487 84.1841,80.921727 C84.42035,70.4906226 91.398475,62.8725878 101.963225,61.5139183 L102.993975,61.3821791 C112.400225,60.1868661 126.6146,58.3802835 135.04085,47.9193183 C139.65035,42.1965704 142.3401,36.4105878 143.26585,30.2293878 C144.302725,23.2972748 143.152975,15.8557704 139.749225,7.47979652 C139.4666,6.78509217 139.728225,5.98675304 140.3661,5.5950487 C141.00485,5.20334435 141.831725,5.33420522 142.3191,5.90419652 C150.30085,15.2304487 155.458975,26.1770922 157.236975,37.5602313 C159.049975,49.167327 157.203725,60.4327791 151.897725,70.1366835 C140.93485,90.1891357 122.97985,98.7978487 109.83385,100.167936 C108.76285,100.279475 107.7006,100.334805 106.6541,100.334805" id="Fill-20"></path>
                <path d="M23.7453125,64.6314809 C32.3614375,64.6314809 40.8270625,66.4134722 47.5234375,67.8239591 C49.3819375,68.2147852 51.1380625,68.584533 52.6929375,68.8717243 C64.9193125,71.1306113 71.7460625,67.6272287 75.3195625,64.2907157 C77.7748125,61.9984548 79.7820625,58.760307 80.6894375,55.6284287 C81.9546875,51.2590809 81.2844375,46.98722 78.6953125,42.930533 C75.0509375,37.2200809 70.0126875,34.4860548 63.7196875,34.7987157 C57.4660625,35.1113765 51.7943125,38.3389852 49.6453125,39.7125852 C43.9639375,43.3433157 30.8083125,52.5369504 12.8226875,65.7582896 C16.4075625,64.9529243 20.0904375,64.6314809 23.7453125,64.6314809 M2.2640625,73.5712983 L0.4851875,71.0831852 C23.8975625,53.6453157 41.2225625,41.4647157 48.0073125,37.1287417 C50.3601875,35.6251591 56.5866875,32.0892809 63.5674375,31.739733 C70.9331875,31.37262 77.0476875,34.6704896 81.2651875,41.2785243 C84.3058125,46.0439678 85.1204375,51.3021157 83.6189375,56.4838548 C82.0990625,61.7305852 78.7618125,65.2594374 77.3976875,66.5337939 C74.1899375,69.5277852 68.7544375,72.6526374 60.0481875,72.6526374 C57.6638125,72.6535157 55.0361875,72.41902 52.1399375,71.8841591 C50.5483125,71.5899417 48.7746875,71.2166809 46.8969375,70.8205852 C34.4579375,68.2024896 15.6603125,64.2450461 2.2640625,73.5712983" id="Fill-21"></path>
                <path d="M105.48755,100.352107 C100.3653,100.201924 96.108425,96.2664374 95.795175,91.3938461 C95.70855,90.0457157 95.793425,86.6204983 98.446425,83.9479504 C100.658425,81.7180461 103.946675,80.7194635 108.220175,80.9794287 C109.613175,81.06462 111.221425,81.2587157 112.924175,81.4633504 C121.971675,82.5550287 135.644425,84.2035243 146.602925,72.9784722 L148.781675,75.1214287 C136.7723,87.424107 122.2018,85.666707 112.560175,84.5047678 C110.9038,84.3045243 109.3393,84.1156983 108.034675,84.0366548 C104.676425,83.83202 102.175675,84.5293591 100.607675,86.1093504 C98.8323,87.8983678 98.7798,90.2626461 98.840175,91.1962374 C99.0493,94.453707 102.07155,97.187733 105.5768,97.2904896 L105.48755,100.352107 Z" id="Fill-22"></path>
                <path d="M114.482375,44.8164226 C111.964125,44.8164226 108.6995,43.2645357 107.571625,39.9385617 C106.48225,36.7232487 107.29075,34.0067878 109.976125,31.8655878 C112.07875,30.1889878 115.072125,29.0692052 117.96575,27.9854313 L118.874,27.6446661 C123.802,25.782753 126.695625,23.3649009 126.8995,16.5197357 L129.94975,16.6110748 C129.681125,25.6071009 124.984125,28.6081183 119.9485,30.5104313 L119.032375,30.8547096 C116.361,31.8550487 113.598625,32.8887617 111.874,34.2641183 C110.217625,35.5850226 109.794125,36.9876052 110.460875,38.9522748 C111.257125,41.3025009 114.03875,42.0042313 115.05025,41.6845443 L115.966375,44.60564 C115.5245,44.7452835 115.0205,44.8164226 114.482375,44.8164226" id="Fill-23"></path>
                <path d="M69.2839875,55.9602357 C63.6761125,55.9602357 57.9431125,52.81694 54.4807375,50.91814 C54.0274875,50.6704704 53.6101125,50.4412443 53.2338625,50.2418791 C48.8649875,47.925027 43.6368625,45.7926096 37.9861125,47.5491313 L37.0839875,44.6236443 C43.7996125,42.5368965 49.7364875,44.9240096 54.6592375,47.5342009 C55.0468625,47.7388357 55.4764875,47.9750878 55.9428625,48.2306617 C60.3099875,50.6248009 67.6197375,54.6323052 73.1856125,52.1090617 C75.7283625,50.9567835 77.5404875,48.7962617 78.1599875,46.1799226 C78.6421125,44.1423574 78.2938625,42.1364096 77.2281125,40.8137487 L79.6002375,38.8877226 C81.2566125,40.942853 81.8279875,43.9342096 81.1288625,46.8878009 C80.2888625,50.4342183 77.8519875,53.3544357 74.4421125,54.9001748 C72.7839875,55.6519661 71.0401125,55.9602357 69.2839875,55.9602357" id="Fill-24"></path>
                <path d="M116.346213,63.944593 C113.796463,63.944593 111.101463,63.8787235 108.248088,63.7496191 L108.386338,60.6897583 C127.151588,61.5434278 139.171463,59.4909322 146.210838,54.2319061 C149.034463,52.1232017 155.386963,45.9182887 153.410337,33.8790887 L156.421213,33.3811148 C158.670838,47.0819843 151.304213,54.24508 148.032588,56.68928 C141.409713,61.6365235 131.467962,63.944593 116.346213,63.944593" id="Fill-25"></path>
                <path d="M98.7174125,43.8138878 C96.8291625,42.9338704 95.3591625,41.2124791 94.5760375,38.9658878 C93.6284125,36.2424009 93.8086625,33.1175487 95.0590375,30.6074791 C97.6236625,25.4599922 103.757413,24.57734 109.689913,23.7245487 C111.972788,23.3960791 114.332663,23.0570704 116.425663,22.480053 C119.451413,21.6465835 121.660788,20.0314617 122.814038,17.8094617 C123.962038,15.5980009 123.997913,12.8191835 122.917288,9.77425304 L125.791663,8.74668783 C127.164538,12.6145487 127.070913,16.238253 125.520413,19.2252183 C123.986538,22.1788096 121.043913,24.3841226 117.233288,25.4336443 C114.955663,26.0616009 112.498663,26.4146617 110.123038,26.7563052 C104.730413,27.5318096 99.6379125,28.2642791 97.7881625,31.9766878 C96.9122875,33.7358443 96.7854125,36.0263487 97.4565375,37.9550096 C97.9649125,39.4138009 98.8687875,40.5081139 100.002788,41.0359487 L98.7174125,43.8138878 Z" id="Fill-26"></path>
            </g>
        </g>
    </g>
</svg>