<svg id="Layer_1" data-name="Layer 1" xmlns="http://www.w3.org/2000/svg" xmlns:xlink="http://www.w3.org/1999/xlink" viewBox="0 0 135 40"><defs><style>.cls-1,.cls-2,.cls-9{fill:#fff;}.cls-1{stroke:#fff;stroke-miterlimit:10;stroke-width:0.2px;}.cls-3{fill:url(#linear-gradient);}.cls-4{fill:url(#linear-gradient-2);}.cls-5{fill:url(#linear-gradient-3);}.cls-6{fill:url(#linear-gradient-4);}.cls-7{opacity:0.2;}.cls-7,.cls-8,.cls-9{isolation:isolate;}.cls-8{opacity:0.12;}.cls-9{opacity:0.25;}</style><linearGradient id="linear-gradient" x1="31.5" y1="607.09" x2="14.72" y2="623.87" gradientTransform="translate(0 -590)" gradientUnits="userSpaceOnUse"><stop offset="0" stop-color="#00a0ff"/><stop offset="0.01" stop-color="#00a1ff"/><stop offset="0.26" stop-color="#00beff"/><stop offset="0.51" stop-color="#00d2ff"/><stop offset="0.76" stop-color="#00dfff"/><stop offset="1" stop-color="#00e3ff"/></linearGradient><linearGradient id="linear-gradient-2" x1="43.53" y1="618.38" x2="19.34" y2="618.38" gradientTransform="translate(0 -590)" gradientUnits="userSpaceOnUse"><stop offset="0" stop-color="#ffe000"/><stop offset="0.41" stop-color="#ffbd00"/><stop offset="0.78" stop-color="orange"/><stop offset="1" stop-color="#ff9c00"/></linearGradient><linearGradient id="linear-gradient-3" x1="34.52" y1="620.67" x2="11.76" y2="643.42" gradientTransform="translate(0 -590)" gradientUnits="userSpaceOnUse"><stop offset="0" stop-color="#ff3a44"/><stop offset="1" stop-color="#c31162"/></linearGradient><linearGradient id="linear-gradient-4" x1="17" y1="598.56" x2="27.16" y2="608.72" gradientTransform="translate(0 -590)" gradientUnits="userSpaceOnUse"><stop offset="0" stop-color="#32a071"/><stop offset="0.07" stop-color="#2da771"/><stop offset="0.48" stop-color="#15cf74"/><stop offset="0.8" stop-color="#06e775"/><stop offset="1" stop-color="#00f076"/></linearGradient></defs><title>google-play-black-trimmed</title><g id="Layer_2" data-name="Layer 2"><g id="artwork"><rect width="135" height="40" rx="5" ry="5"/><path class="cls-1" d="M57.12,18.62a2.75,2.75,0,0,1-.75,2,2.91,2.91,0,0,1-2.2.88A3,3,0,0,1,52,20.6a3.19,3.19,0,0,1,0-4.46,3.15,3.15,0,0,1,3.44-.65,2.61,2.61,0,0,1,.94.67l-.53.53A2,2,0,0,0,54.17,16a2.4,2.4,0,0,0,0,4.8,2.36,2.36,0,0,0,1.65-.67,1.91,1.91,0,0,0,.5-1.22H54.17v-.72h2.91A3.57,3.57,0,0,1,57.12,18.62Z" transform="translate(-9.7 -8.38)"/><path class="cls-1" d="M61.7,16.12H59V18h2.46v.72H59v1.9h2.7v.74H58.22v-6H61.7Z" transform="translate(-9.7 -8.38)"/><path class="cls-1" d="M65,21.38h-.77V16.12H62.53v-.74H66.7v.74H65Z" transform="translate(-9.7 -8.38)"/><path class="cls-1" d="M69.64,21.38v-6h.77v6Z" transform="translate(-9.7 -8.38)"/><path class="cls-1" d="M73.83,21.38h-.77V16.12H71.38v-.74H75.5v.74H73.83Z" transform="translate(-9.7 -8.38)"/><path class="cls-1" d="M83.31,20.6a3.1,3.1,0,0,1-4.4,0h0a3.25,3.25,0,0,1,0-4.44,2.94,2.94,0,0,1,2.2-.91,3,3,0,0,1,2.2.91,3.06,3.06,0,0,1,.88,2.22A3,3,0,0,1,83.31,20.6Zm-3.83-.5a2.29,2.29,0,0,0,3.24,0l0,0a2.55,2.55,0,0,0,0-3.44,2.29,2.29,0,0,0-3.24,0l0,0A2.55,2.55,0,0,0,79.48,20.1Z" transform="translate(-9.7 -8.38)"/><path class="cls-1" d="M85.28,21.38v-6h.93l2.92,4.67h0V15.38h.77v6h-.8l-3-4.89h0v4.89Z" transform="translate(-9.7 -8.38)"/><path class="cls-2" d="M77.84,30.13a4.26,4.26,0,1,0,4.27,4.25A4.19,4.19,0,0,0,78,30.13Zm0,6.83a2.58,2.58,0,1,1,2.39-2.75.91.91,0,0,1,0,.17A2.46,2.46,0,0,1,77.9,37Zm-9.32-6.83a4.26,4.26,0,1,0,4.27,4.25,4.19,4.19,0,0,0-4.13-4.25Zm0,6.83a2.58,2.58,0,1,1,2.39-2.75.91.91,0,0,1,0,.17A2.46,2.46,0,0,1,68.58,37ZM57.44,31.44v1.8h4.32a3.77,3.77,0,0,1-1,2.27,4.45,4.45,0,0,1-3.34,1.32,4.8,4.8,0,0,1,0-9.6,4.65,4.65,0,0,1,3.28,1.29L62,27.25a6.29,6.29,0,0,0-4.53-1.82,6.61,6.61,0,0,0-.51,13.21h.51a5.84,5.84,0,0,0,6.17-6.08,7,7,0,0,0-.09-1.12Zm45.31,1.4a3.92,3.92,0,0,0-7.65,1.28,2.26,2.26,0,0,0,0,.26,4.23,4.23,0,0,0,7.76,2.37l-1.45-1a2.42,2.42,0,0,1-2.09,1.17,2.14,2.14,0,0,1-2.06-1.29L103,33.28ZM97,34.26a2.35,2.35,0,0,1,2.18-2.49h.05a1.64,1.64,0,0,1,1.57.91Zm-4.62,4.12H94.2V25.88H92.33Zm-3.06-7.3H89.2a3,3,0,0,0-2.24-1,4.26,4.26,0,0,0,0,8.51,2.87,2.87,0,0,0,2.24-1h.07v.61c0,1.63-.87,2.5-2.27,2.5a2.35,2.35,0,0,1-2.15-1.51l-1.62.67A4,4,0,0,0,87,42.38c2.19,0,4-1.29,4-4.43V30.38H89.27ZM87.12,37a2.58,2.58,0,0,1,0-5.15A2.38,2.38,0,0,1,89.4,34.3v.08A2.38,2.38,0,0,1,87.23,37Zm24.39-11.08H107v12.5h1.87V33.64h2.61a3.89,3.89,0,1,0,.56-7.76Zm0,6H108.9V27.62h2.65a2.14,2.14,0,1,1,0,4.28h0Zm11.54-1.79A3.49,3.49,0,0,0,119.72,32l1.65.69a2.06,2.06,0,0,1,3.71.67v.15a4.14,4.14,0,0,0-2-.48c-1.78,0-3.6,1-3.6,2.82a2.89,2.89,0,0,0,3,2.76h.09A2.64,2.64,0,0,0,125,37.38h.06v1h1.8V33.57c0-2.19-1.66-3.46-3.79-3.46Zm-.23,6.85c-.61,0-1.46-.31-1.46-1.06,0-1,1.06-1.34,2-1.34a3.38,3.38,0,0,1,1.7.42,2.26,2.26,0,0,1-2.2,2Zm10.62-6.56L131.3,35.8h-.06L129,30.38h-2L130.35,38l-1.9,4.21h2l5.12-11.79Zm-16.8,8h1.86V25.88h-1.86Z" transform="translate(-9.7 -8.38)"/><path class="cls-3" d="M20.14,15.92a2,2,0,0,0-.47,1.4V39.44a1.94,1.94,0,0,0,.47,1.4l.07.08L32.6,28.53v-.3L20.21,15.85Z" transform="translate(-9.7 -8.38)"/><path class="cls-4" d="M36.7,32.66l-4.1-4.13v-.3l4.1-4.13.09.06,4.91,2.78c1.4.79,1.4,2.09,0,2.89l-4.89,2.78Z" transform="translate(-9.7 -8.38)"/><path class="cls-5" d="M36.82,32.6,32.6,28.38,20.14,40.84a1.62,1.62,0,0,0,2.07.07L36.82,32.6" transform="translate(-9.7 -8.38)"/><path class="cls-6" d="M36.82,24.16l-14.61-8.3a1.6,1.6,0,0,0-2.07.06L32.6,28.38Z" transform="translate(-9.7 -8.38)"/><path class="cls-7" d="M36.7,32.51,22.21,40.76a1.65,1.65,0,0,1-2,0h0l-.07.07h0l.07.08h0a1.65,1.65,0,0,0,2,0L36.82,32.6Z" transform="translate(-9.7 -8.38)"/><path class="cls-8" d="M20.14,40.7a2,2,0,0,1-.44-1.41v.15a1.94,1.94,0,0,0,.47,1.4l.07-.07Z" transform="translate(-9.7 -8.38)"/><path class="cls-8" d="M41.7,29.68l-5,2.83.09.09,4.91-2.78a1.74,1.74,0,0,0,1.06-1.44h0A1.86,1.86,0,0,1,41.7,29.68Z" transform="translate(-9.7 -8.38)"/><path class="cls-9" d="M22.21,16,41.7,27.08a1.86,1.86,0,0,1,1.06,1.3h0a1.74,1.74,0,0,0-1.06-1.44L22.21,15.86c-1.39-.8-2.54-.14-2.54,1.46v.15C19.7,15.87,20.82,15.21,22.21,16Z" transform="translate(-9.7 -8.38)"/></g></g></svg>