<?xml version="1.0" encoding="utf-8"?>
<!-- Generator: Adobe Illustrator 22.1.0, SVG Export Plug-In . SVG Version: 6.00 Build 0)  -->
<svg version="1.1" id="Layer_1" xmlns="http://www.w3.org/2000/svg" xmlns:xlink="http://www.w3.org/1999/xlink" x="0px" y="0px"
	 viewBox="0 0 155 60" style="enable-background:new 0 0 155 60;" xml:space="preserve">
<style type="text/css">
	.st0{fill:#A6A6A6;}
	.st1{fill:#FFFFFF;stroke:#FFFFFF;stroke-width:0.2;stroke-miterlimit:10;}
	.st2{fill:#FFFFFF;}
	.st3{fill:url(#SVGID_1_);}
	.st4{fill:url(#SVGID_2_);}
	.st5{fill:url(#SVGID_3_);}
	.st6{fill:url(#SVGID_4_);}
	.st7{opacity:0.2;enable-background:new    ;}
	.st8{opacity:0.12;enable-background:new    ;}
	.st9{opacity:0.25;fill:#FFFFFF;enable-background:new    ;}
</style>
<title>Asset 1</title>
<g id="Layer_2_1_">
	<g id="artwork">
		<path d="M14.7,8.4h125c2.8,0,5,2.2,5,5v30c0,2.8-2.2,5-5,5h-125c-2.8,0-5-2.2-5-5v-30C9.7,10.6,11.9,8.4,14.7,8.4z"/>
		<path class="st0" d="M139.7,9.2c2.3,0,4.2,1.9,4.2,4.2v30c0,2.3-1.9,4.2-4.2,4.2h-125c-2.3,0-4.2-1.9-4.2-4.2l0,0v-30
			c0-2.3,1.9-4.2,4.2-4.2l0,0H139.7 M139.7,8.4h-125c-2.8,0-5,2.2-5,5v30c0,2.8,2.2,5,5,5h125c2.8,0,5-2.2,5-5v-30
			C144.7,10.6,142.5,8.4,139.7,8.4z"/>
		<path class="st1" d="M57.1,18.6c0,0.7-0.2,1.5-0.8,2c-0.6,0.6-1.4,0.9-2.2,0.9c-0.8,0-1.6-0.3-2.2-0.9c-1.2-1.2-1.2-3.2,0-4.5
			c0.9-0.9,2.3-1.1,3.4-0.7c0.4,0.1,0.7,0.4,0.9,0.7l-0.5,0.5c-0.4-0.5-1-0.8-1.6-0.7c-1.3,0-2.4,1.1-2.4,2.4c0,1.3,1.1,2.4,2.4,2.4
			c0.6,0,1.2-0.2,1.6-0.7c0.3-0.3,0.5-0.8,0.5-1.2h-2.2v-0.7h2.9C57.1,18.3,57.1,18.5,57.1,18.6z"/>
		<path class="st1" d="M61.7,16.1H59V18h2.5v0.7H59v1.9h2.7v0.7h-3.5v-6h3.5V16.1z"/>
		<path class="st1" d="M65,21.4h-0.8v-5.3h-1.7v-0.7h4.2v0.7H65V21.4z"/>
		<path class="st1" d="M69.6,21.4v-6h0.8v6H69.6z"/>
		<path class="st1" d="M73.8,21.4h-0.8v-5.3h-1.7v-0.7h4.1v0.7h-1.7V21.4z"/>
		<path class="st1" d="M83.3,20.6c-1.2,1.2-3.2,1.2-4.4,0c0,0,0,0,0,0c-1.2-1.2-1.2-3.2,0-4.4c0.6-0.6,1.4-0.9,2.2-0.9
			c0.8,0,1.6,0.3,2.2,0.9c0.6,0.6,0.9,1.4,0.9,2.2C84.2,19.2,83.9,20,83.3,20.6z M79.5,20.1c0.9,0.9,2.3,0.9,3.2,0c0,0,0,0,0,0
			c0.9-1,0.9-2.5,0-3.4c-0.9-0.9-2.3-0.9-3.2,0c0,0,0,0,0,0C78.6,17.6,78.6,19.1,79.5,20.1z"/>
		<path class="st1" d="M85.3,21.4v-6h0.9l2.9,4.7l0,0v-1.2v-3.5h0.8v6h-0.8L86,16.5l0,0v1.1v3.7H85.3z"/>
		<path class="st2" d="M77.8,30.1c-2.4,0-4.3,1.9-4.2,4.3s1.9,4.3,4.3,4.2c2.4,0,4.3-1.9,4.2-4.3c0-2.3-1.8-4.2-4.1-4.3
			C77.9,30.1,77.9,30.1,77.8,30.1z M77.8,37c-1.4,0.1-2.7-1-2.8-2.4c-0.1-1.4,1-2.7,2.4-2.8c1.4-0.1,2.7,1,2.8,2.4
			c0,0.1,0,0.1,0,0.2C80.3,35.7,79.3,36.9,77.8,37C77.9,37,77.9,37,77.8,37z M68.5,30.1c-2.4,0-4.3,1.9-4.2,4.3
			c0,2.4,1.9,4.3,4.3,4.2c2.4,0,4.3-1.9,4.2-4.3c0-2.3-1.8-4.2-4.1-4.3C68.6,30.1,68.6,30.1,68.5,30.1z M68.5,37
			c-1.4,0.1-2.7-1-2.8-2.4c-0.1-1.4,1-2.7,2.4-2.8c1.4-0.1,2.7,1,2.8,2.4c0,0.1,0,0.1,0,0.2C71,35.7,69.9,36.9,68.5,37
			C68.6,37,68.5,37,68.5,37z M57.4,31.4v1.8h4.3c-0.1,0.8-0.4,1.6-1,2.3c-0.9,0.9-2.1,1.4-3.3,1.3c-2.7,0-4.8-2.1-4.8-4.8
			c0-2.7,2.1-4.8,4.8-4.8c1.2,0,2.4,0.4,3.3,1.3l1.3-1.3c-1.2-1.2-2.8-1.8-4.5-1.8c-3.6-0.1-6.7,2.7-6.9,6.3
			c-0.1,3.6,2.7,6.7,6.3,6.9c0.2,0,0.3,0,0.5,0c1.7,0.1,3.4-0.6,4.6-1.8c1.1-1.2,1.6-2.7,1.6-4.2c0-0.4,0-0.8-0.1-1.1H57.4z
			 M102.8,32.8c-0.5-1.6-2-2.6-3.6-2.7c-2.2,0-4,1.8-4,4c0,0.1,0,0.2,0,0.3c0,2.3,1.9,4.2,4.2,4.3c1.4,0,2.8-0.7,3.6-1.9l-1.4-1
			c-0.4,0.7-1.2,1.2-2.1,1.2c-0.9,0-1.7-0.5-2.1-1.3l5.7-2.3L102.8,32.8z M96.9,34.3c-0.1-1.3,0.9-2.4,2.2-2.5c0,0,0,0,0,0
			c0.7,0,1.3,0.3,1.6,0.9L96.9,34.3z M92.3,38.4h1.9V25.9h-1.9V38.4z M89.3,31.1L89.3,31.1c-0.6-0.6-1.5-1-2.3-1
			c-2.3,0.1-4.2,2.1-4,4.5c0.1,2.2,1.9,3.9,4,4c0.9,0,1.7-0.3,2.2-1h0.1v0.6c0,1.6-0.9,2.5-2.3,2.5c-1,0-1.8-0.6-2.2-1.5l-1.6,0.7
			c0.6,1.5,2.1,2.5,3.8,2.5c2.2,0,4-1.3,4-4.4v-7.6h-1.7V31.1z M87.1,37c-1.4-0.1-2.5-1.3-2.4-2.7c0.1-1.3,1.1-2.3,2.4-2.4
			c1.3,0.1,2.3,1.2,2.3,2.5c0,0,0,0.1,0,0.1c0.1,1.3-0.9,2.5-2.2,2.6C87.2,37,87.2,37,87.1,37z M111.5,25.9H107v12.5h1.9v-4.7h2.6
			c2.1,0.2,4-1.5,4.2-3.6c0.2-2.1-1.5-4-3.6-4.2C111.9,25.9,111.7,25.9,111.5,25.9z M111.5,31.9h-2.6v-4.3h2.7c1.2,0,2.1,1,2.1,2.1
			C113.7,30.9,112.7,31.9,111.5,31.9L111.5,31.9L111.5,31.9z M123,30.1c-1.4-0.1-2.7,0.7-3.3,1.9l1.7,0.7c0.3-0.6,1-1,1.7-0.9
			c1-0.1,1.9,0.6,2,1.6c0,0,0,0,0,0v0.1c-0.6-0.3-1.3-0.5-1.9-0.5c-1.8,0-3.6,1-3.6,2.8c0.1,1.6,1.4,2.8,3,2.8c0,0,0.1,0,0.1,0
			c1,0.1,1.9-0.4,2.4-1.2h0.1v1h1.8v-4.8C126.9,31.4,125.2,30.1,123,30.1L123,30.1z M122.8,36.9c-0.6,0-1.5-0.3-1.5-1.1
			c0-1,1.1-1.3,2-1.3c0.6,0,1.2,0.1,1.7,0.4C124.9,36.1,124,36.9,122.8,36.9L122.8,36.9z M133.4,30.4l-2.1,5.4h-0.1l-2.2-5.4h-2
			l3.3,7.6l-1.9,4.2h1.9l5.1-11.8H133.4z M116.6,38.4h1.9V25.9h-1.9V38.4z"/>
		
			<linearGradient id="SVGID_1_" gradientUnits="userSpaceOnUse" x1="31.5025" y1="607.0925" x2="14.7225" y2="623.8725" gradientTransform="matrix(1 0 0 1 0 -590)">
			<stop  offset="0" style="stop-color:#00A0FF"/>
			<stop  offset="1.000000e-02" style="stop-color:#00A1FF"/>
			<stop  offset="0.26" style="stop-color:#00BEFF"/>
			<stop  offset="0.51" style="stop-color:#00D2FF"/>
			<stop  offset="0.76" style="stop-color:#00DFFF"/>
			<stop  offset="1" style="stop-color:#00E3FF"/>
		</linearGradient>
		<path class="st3" d="M20.1,15.9c-0.3,0.4-0.5,0.9-0.5,1.4v22.1c0,0.5,0.1,1,0.5,1.4l0.1,0.1l12.4-12.4v-0.3L20.1,15.9L20.1,15.9z"
			/>
		
			<linearGradient id="SVGID_2_" gradientUnits="userSpaceOnUse" x1="43.53" y1="618.38" x2="19.34" y2="618.38" gradientTransform="matrix(1 0 0 1 0 -590)">
			<stop  offset="0" style="stop-color:#FFE000"/>
			<stop  offset="0.41" style="stop-color:#FFBD00"/>
			<stop  offset="0.78" style="stop-color:#FFA500"/>
			<stop  offset="1" style="stop-color:#FF9C00"/>
		</linearGradient>
		<path class="st4" d="M36.7,32.7l-4.1-4.1v-0.3l4.1-4.1l0.1,0.1l4.9,2.8c1.4,0.8,1.4,2.1,0,2.9l-4.9,2.8L36.7,32.7z"/>
		
			<linearGradient id="SVGID_3_" gradientUnits="userSpaceOnUse" x1="34.525" y1="620.675" x2="11.765" y2="643.425" gradientTransform="matrix(1 0 0 1 0 -590)">
			<stop  offset="0" style="stop-color:#FF3A44"/>
			<stop  offset="1" style="stop-color:#C31162"/>
		</linearGradient>
		<path class="st5" d="M36.8,32.6l-4.2-4.2L20.1,40.8c0.6,0.5,1.5,0.5,2.1,0.1L36.8,32.6"/>
		
			<linearGradient id="SVGID_4_" gradientUnits="userSpaceOnUse" x1="17" y1="598.56" x2="27.16" y2="608.72" gradientTransform="matrix(1 0 0 1 0 -590)">
			<stop  offset="0" style="stop-color:#32A071"/>
			<stop  offset="7.000000e-02" style="stop-color:#2DA771"/>
			<stop  offset="0.48" style="stop-color:#15CF74"/>
			<stop  offset="0.8" style="stop-color:#06E775"/>
			<stop  offset="1" style="stop-color:#00F076"/>
		</linearGradient>
		<path class="st6" d="M36.8,24.2l-14.6-8.3c-0.6-0.5-1.5-0.5-2.1,0.1l12.5,12.5L36.8,24.2z"/>
		<path class="st7" d="M36.7,32.5l-14.5,8.2c-0.6,0.4-1.4,0.4-2,0l0,0l-0.1,0.1l0,0l0.1,0.1l0,0c0.6,0.4,1.4,0.4,2,0l14.6-8.3
			L36.7,32.5z"/>
		<path class="st8" d="M20.1,40.7c-0.3-0.4-0.5-0.9-0.4-1.4v0.2c0,0.5,0.1,1,0.5,1.4L20.1,40.7L20.1,40.7z"/>
		<path class="st8" d="M41.7,29.7l-5,2.8l0.1,0.1l4.9-2.8c0.6-0.2,1-0.8,1.1-1.4l0,0C42.6,29,42.2,29.4,41.7,29.7z"/>
		<path class="st9" d="M22.2,16l19.5,11.1c0.5,0.2,0.9,0.7,1.1,1.3l0,0c-0.1-0.6-0.5-1.2-1.1-1.4L22.2,15.9
			c-1.4-0.8-2.5-0.1-2.5,1.5v0.1C19.7,15.9,20.8,15.2,22.2,16z"/>
	</g>
</g>
</svg>
