<svg xmlns="http://www.w3.org/2000/svg" viewBox="0 0 135 40"><defs><style>.cls-1,.cls-2{fill:#fff;}.cls-1{stroke:#fff;stroke-miterlimit:10;stroke-width:0.2px;}</style></defs><title>Asset 1</title><g id="Layer_2" data-name="Layer 2"><g id="Layer_1-2" data-name="Layer 1"><g id="Layer_2-2" data-name="Layer 2"><g id="artwork"><path d="M5,0H130a5,5,0,0,1,5,5V35a5,5,0,0,1-5,5H5a5,5,0,0,1-5-5V5A5,5,0,0,1,5,0Z"/><path class="cls-1" d="M47.4,10.2a2.57,2.57,0,0,1-.8,2,3.14,3.14,0,0,1-4.4,0,3.26,3.26,0,0,1,0-4.5A3.3,3.3,0,0,1,45.6,7a1.6,1.6,0,0,1,.9.7l-.5.5a1.73,1.73,0,0,0-1.6-.7,2.4,2.4,0,1,0,0,4.8,2,2,0,0,0,1.6-.7,1.85,1.85,0,0,0,.5-1.2H44.3V9.7h2.9A.65.65,0,0,1,47.4,10.2Z"/><path class="cls-1" d="M52,7.7H49.3V9.6h2.5v.7H49.3v1.9H52v.7H48.5v-6H52Z"/><path class="cls-1" d="M55.3,13h-.8V7.7H52.8V7H57v.7H55.3Z"/><path class="cls-1" d="M59.9,13V7h.8v6Z"/><path class="cls-1" d="M64.1,13h-.8V7.7H61.6V7h4.1v.7H64V13Z"/><path class="cls-1" d="M73.6,12.2a3.14,3.14,0,0,1-4.4,0h0a3.14,3.14,0,0,1,0-4.4,3.11,3.11,0,0,1,4.4,4.4Zm-3.8-.5a2.23,2.23,0,0,0,3.2,0h0a2.48,2.48,0,0,0,0-3.4,2.23,2.23,0,0,0-3.2,0h0A2.48,2.48,0,0,0,69.8,11.7Z"/><path class="cls-1" d="M75.6,13V7h.9l2.9,4.7h0V7h.8v6h-.8L76.3,8.1h0v4.8h-.7Z"/><path class="cls-2" d="M31.7,24.2a11,11,0,0,0,1.1-5A10.58,10.58,0,0,0,22.3,8.6c-4.2.1-7.4,2.4-8.6,5.3,0,0-1-.3-1.3.5a10.38,10.38,0,0,0-.3,1.2c-.1.9.5,1,.7,1l2.6.2c1.6.2,3.4.7,3.4,2.9,0,1.9-1.6,2.6-3.4,2.9l-3.1.7c-.6.1-1.1.4-.9,1.2,0,.2.2.7.2.9.2.8,1.2.6,1.2.6l.3,1.2a74.5,74.5,0,0,0,14.1-2.5c.1,0,.3,0,.3.2s0,.3-.2.3h0a77.36,77.36,0,0,1-14.6,2.5,1.22,1.22,0,0,0-.3.9l.2.9c.2.6.9.6,1.3.5,5-.3,15-2.2,17.7-3.4,1-.4,1.1-.6.9-1.6-.1-.7-.3-.9-.8-.8"/></g></g><path class="cls-2" d="M42.1,30.5V17.1h1.5V22h1V17.1h1.5V30.5H44.6V24.1h-1v6.4Z"/><path class="cls-2" d="M49.8,30.5l-.2-2.3H48.4l-.2,2.3H46.8l1.4-13.4H50l1.3,13.4Zm-1.2-4.3h.9l-.4-4.8h0Z"/><path class="cls-2" d="M56.2,30.5H54.6l-.9-5.3h-.3v5.3H51.9V17.1h2a1.65,1.65,0,0,1,1.5.8,6,6,0,0,1,.5,2.8v.9a5,5,0,0,1-.8,3.2ZM53.4,19.6v3.5h.5a.52.52,0,0,0,.4-.2,1.48,1.48,0,0,0,.1-.7V20.6c0-.3,0-.6-.1-.7s-.2-.2-.4-.2h-.5Z"/><path class="cls-2" d="M56.9,30.5V17.1h1.5V28h1.5v2.5Z"/><path class="cls-2" d="M62.1,28h1.6v2.5H60.6V17.1h3v2.5H62.1V22h1.3v2.1H62.1Z"/><path class="cls-2" d="M65.6,30.5V24.3l-1.5-7.2h1.5l.8,4h0l.8-4h1.5l-1.5,7.2v6.2Z"/><path class="cls-2" d="M69.2,25.1v-2h2v2Z"/><path class="cls-2" d="M72.5,30.5V17.1h1.9a1.65,1.65,0,0,1,1.5.8,6,6,0,0,1,.5,2.8v6.2a5.75,5.75,0,0,1-.5,2.8,1.65,1.65,0,0,1-1.5.8ZM74,28h.4a.52.52,0,0,0,.4-.2,1.48,1.48,0,0,0,.1-.7V20.6c0-.3,0-.6-.1-.7s-.2-.2-.4-.2H74Z"/><path class="cls-2" d="M80,30.5l-.2-2.3H78.6l-.2,2.3H77l1.3-13.4h1.8l1.4,13.4Zm-1.3-4.3h.9l-.4-4.8h0Z"/><path class="cls-2" d="M83,30.5,81.6,17.1H83l.8,9.2h0l.8-9.2H86L84.6,30.5Z"/><path class="cls-2" d="M89.4,19h-.7v9.7h.7v1.9H86.5V28.7h.7V19h-.7V17.1h2.9Z"/><path class="cls-2" d="M90.3,30.5V17.1h1.9a1.65,1.65,0,0,1,1.5.8,6,6,0,0,1,.5,2.8v6.2a5.75,5.75,0,0,1-.5,2.8,1.65,1.65,0,0,1-1.5.8ZM91.7,28h.4a.52.52,0,0,0,.4-.2,1.48,1.48,0,0,0,.1-.7V20.6c0-.3,0-.6-.1-.7s-.2-.2-.4-.2h-.4Z"/><path class="cls-2" d="M96.4,30.7a3,3,0,0,1-1.5-.5V27.5h0a1.55,1.55,0,0,0,1.2.7c.6,0,.8-.5.8-1.4a3.59,3.59,0,0,0-.2-1.1,4.05,4.05,0,0,0-.5-.9l-.6-.9a3.92,3.92,0,0,1-.5-1.3,11.08,11.08,0,0,1-.2-1.9,7,7,0,0,1,.5-2.8,1.62,1.62,0,0,1,1.4-.9,2.16,2.16,0,0,1,1.4.6v2.7h0a1.55,1.55,0,0,0-1.2-.7.55.55,0,0,0-.5.3,1.88,1.88,0,0,0-.2.8,3,3,0,0,0,.2,1,4.05,4.05,0,0,0,.5.9l.6.9a3.75,3.75,0,0,1,.5,1.4,11.24,11.24,0,0,1,.2,2,5.46,5.46,0,0,1-.6,2.9A1.29,1.29,0,0,1,96.4,30.7Z"/><path class="cls-2" d="M102.8,29.9a1.81,1.81,0,0,1-3,0,6,6,0,0,1-.5-2.8V20.5a5.75,5.75,0,0,1,.5-2.8,1.81,1.81,0,0,1,3,0,6,6,0,0,1,.5,2.8v6.6A5.75,5.75,0,0,1,102.8,29.9Zm-1.9-2.1c.1.2.2.2.4.2a.52.52,0,0,0,.4-.2,1.48,1.48,0,0,0,.1-.7V20.5c0-.3,0-.6-.1-.7s-.2-.2-.4-.2a.52.52,0,0,0-.4.2,1.48,1.48,0,0,0-.1.7v6.6C100.8,27.4,100.8,27.7,100.9,27.8Z"/><path class="cls-2" d="M104.3,30.5V17.1h1.3l1.4,7.1h0V17.1h1.4V30.5h-1.3l-1.4-7.1h0v7.1Z"/><path class="cls-2" d="M110.3,30.6a.6.6,0,0,1-.6-.3,3.7,3.7,0,0,1,0-2.4.75.75,0,0,1,1.2,0,3.7,3.7,0,0,1,0,2.4A.6.6,0,0,1,110.3,30.6Z"/><path class="cls-2" d="M114.2,30.7a1.72,1.72,0,0,1-1.6-1,6.24,6.24,0,0,1-.5-3V21a7.75,7.75,0,0,1,.5-3,1.72,1.72,0,0,1,1.6-1,2.16,2.16,0,0,1,1.4.6v2.6h-.1a1.38,1.38,0,0,0-1.1-.6.75.75,0,0,0-.7.4,3.92,3.92,0,0,0-.2,1.3v5.2a3.47,3.47,0,0,0,.2,1.3.67.67,0,0,0,.7.4,1.38,1.38,0,0,0,1.1-.6h.1v2.6A2.65,2.65,0,0,1,114.2,30.7Z"/><path class="cls-2" d="M119.9,29.9a1.81,1.81,0,0,1-3,0,6,6,0,0,1-.5-2.8V20.5a5.75,5.75,0,0,1,.5-2.8,1.81,1.81,0,0,1,3,0,6,6,0,0,1,.5,2.8v6.6A4.77,4.77,0,0,1,119.9,29.9Zm-1.8-2.1c.1.2.2.2.4.2a.52.52,0,0,0,.4-.2,1.48,1.48,0,0,0,.1-.7V20.5c0-.3,0-.6-.1-.7s-.2-.2-.4-.2a.52.52,0,0,0-.4.2,1.48,1.48,0,0,0-.1.7v6.6A.76.76,0,0,0,118.1,27.8Z"/><path class="cls-2" d="M121.5,30.5V17.1h1.6l1,6.5h0l1-6.5h1.6V30.5h-1.4V23h0l-.8,5h-.8l-.8-5h0v7.5Z"/></g></g></svg>