<?xml version="1.0" encoding="utf-8"?>
<!-- Generator: Adobe Illustrator 22.1.0, SVG Export Plug-In . SVG Version: 6.00 Build 0)  -->
<svg version="1.1" id="Layer_1" xmlns="http://www.w3.org/2000/svg" xmlns:xlink="http://www.w3.org/1999/xlink" x="0px" y="0px"
	 viewBox="0 0 155 60" style="enable-background:new 0 0 155 60;" xml:space="preserve">
<style type="text/css">
	.st0{fill:#FFFFFF;stroke:#FFFFFF;stroke-width:0.2;stroke-miterlimit:10;}
	.st1{fill:#FFFFFF;}
</style>
<title>Asset 1</title>
<g id="Layer_2_1_">
	<g id="artwork">
		<path d="M14.7,8.4h125c2.8,0,5,2.2,5,5v30c0,2.8-2.2,5-5,5h-125c-2.8,0-5-2.2-5-5v-30C9.7,10.6,11.9,8.4,14.7,8.4z"/>
		<path class="st0" d="M57.1,18.6c0,0.7-0.2,1.5-0.8,2c-0.6,0.6-1.4,0.9-2.2,0.9c-0.8,0-1.6-0.3-2.2-0.9c-1.2-1.2-1.2-3.2,0-4.5
			c0.9-0.9,2.3-1.1,3.4-0.7c0.4,0.1,0.7,0.4,0.9,0.7l-0.5,0.5c-0.4-0.5-1-0.8-1.6-0.7c-1.3,0-2.4,1.1-2.4,2.4c0,1.3,1.1,2.4,2.4,2.4
			c0.6,0,1.2-0.2,1.6-0.7c0.3-0.3,0.5-0.8,0.5-1.2h-2.2v-0.7h2.9C57.1,18.3,57.1,18.5,57.1,18.6z"/>
		<path class="st0" d="M61.7,16.1H59V18h2.5v0.7H59v1.9h2.7v0.7h-3.5v-6h3.5V16.1z"/>
		<path class="st0" d="M65,21.4h-0.8v-5.3h-1.7v-0.7h4.2v0.7H65V21.4z"/>
		<path class="st0" d="M69.6,21.4v-6h0.8v6H69.6z"/>
		<path class="st0" d="M73.8,21.4h-0.8v-5.3h-1.7v-0.7h4.1v0.7h-1.7V21.4z"/>
		<path class="st0" d="M83.3,20.6c-1.2,1.2-3.2,1.2-4.4,0c0,0,0,0,0,0c-1.2-1.2-1.2-3.2,0-4.4c0.6-0.6,1.4-0.9,2.2-0.9
			c0.8,0,1.6,0.3,2.2,0.9c0.6,0.6,0.9,1.4,0.9,2.2C84.2,19.2,83.9,20,83.3,20.6z M79.5,20.1c0.9,0.9,2.3,0.9,3.2,0c0,0,0,0,0,0
			c0.9-1,0.9-2.5,0-3.4c-0.9-0.9-2.3-0.9-3.2,0c0,0,0,0,0,0C78.6,17.6,78.6,19.1,79.5,20.1z"/>
		<path class="st0" d="M85.3,21.4v-6h0.9l2.9,4.7l0,0v-1.2v-3.5h0.8v6h-0.8L86,16.5l0,0v1.1v3.7H85.3z"/>
		<path class="st1" d="M41.4,32.6c0.8-1.6,1.1-3.3,1.1-5C42.4,21.6,37.6,16.9,32,17c-4.2,0.1-7.4,2.4-8.6,5.3c0,0-1-0.3-1.3,0.5
			C22,23,21.9,23.6,21.8,24c-0.1,0.9,0.5,1,0.7,1l2.6,0.2c1.6,0.2,3.4,0.7,3.4,2.9c0,1.9-1.6,2.6-3.4,2.9l-3.1,0.7
			c-0.6,0.1-1.1,0.4-0.9,1.2c0,0.2,0.2,0.7,0.2,0.9c0.2,0.8,1.2,0.6,1.2,0.6l0.3,1.2c6.4-0.7,9-1.1,14.1-2.5c0.1,0,0.3,0,0.3,0.2
			c0,0.1,0,0.3-0.2,0.3l0,0c-5.2,1.4-7.9,1.8-14.6,2.5c-0.2,0.2-0.3,0.5-0.3,0.9l0.2,0.9c0.2,0.6,0.9,0.6,1.3,0.5
			c5-0.3,15-2.2,17.7-3.4c1-0.4,1.1-0.6,0.9-1.6C42.1,32.7,41.9,32.5,41.4,32.6"/>
	</g>
</g>
<g>
	<path class="st1" d="M51.8,38.9V25.5h1.5v4.9h1v-4.9h1.5v13.4h-1.5v-6.4h-1v6.4H51.8z"/>
	<path class="st1" d="M59.5,38.9l-0.2-2.3h-1.2l-0.2,2.3h-1.4l1.4-13.4h1.8L61,38.9H59.5z M58.3,34.6h0.9l-0.4-4.8h0L58.3,34.6z"/>
	<path class="st1" d="M65.9,38.9h-1.6l-0.9-5.3h-0.3v5.3h-1.5V25.5h2c0.7,0,1.2,0.3,1.5,0.8c0.3,0.5,0.5,1.5,0.5,2.8V30
		c0,1.6-0.3,2.6-0.8,3.2L65.9,38.9z M63.1,28v3.5h0.5c0.2,0,0.3-0.1,0.4-0.2c0.1-0.2,0.1-0.4,0.1-0.7V29c0-0.3,0-0.6-0.1-0.7
		c-0.1-0.2-0.2-0.2-0.4-0.2H63.1z"/>
	<path class="st1" d="M66.6,38.9V25.5h1.5v10.9h1.5v2.5H66.6z"/>
	<path class="st1" d="M71.8,36.4h1.6v2.5h-3.1V25.5h3V28h-1.5v2.4h1.3v2.1h-1.3V36.4z"/>
	<path class="st1" d="M75.3,38.9v-6.2l-1.5-7.2h1.5l0.8,4h0l0.8-4h1.5l-1.5,7.2v6.2H75.3z"/>
	<path class="st1" d="M78.9,33.5v-2h2v2H78.9z"/>
	<path class="st1" d="M82.2,38.9V25.5h1.9c0.7,0,1.2,0.3,1.5,0.8c0.3,0.5,0.5,1.5,0.5,2.8v6.2c0,1.4-0.2,2.3-0.5,2.8
		c-0.3,0.5-0.8,0.8-1.5,0.8H82.2z M83.7,36.4h0.4c0.2,0,0.3-0.1,0.4-0.2c0.1-0.2,0.1-0.4,0.1-0.7V29c0-0.3,0-0.6-0.1-0.7
		c-0.1-0.2-0.2-0.2-0.4-0.2h-0.4V36.4z"/>
	<path class="st1" d="M89.7,38.9l-0.2-2.3h-1.2l-0.2,2.3h-1.4L88,25.5h1.8l1.4,13.4H89.7z M88.4,34.6h0.9l-0.4-4.8h0L88.4,34.6z"/>
	<path class="st1" d="M92.7,38.9l-1.4-13.4h1.4l0.8,9.2h0l0.8-9.2l1.4,0l-1.4,13.4H92.7z"/>
	<path class="st1" d="M99.1,27.4h-0.7v9.7h0.7v1.9h-2.9v-1.9h0.7v-9.7h-0.7v-1.9h2.9V27.4z"/>
	<path class="st1" d="M100,38.9V25.5h1.9c0.7,0,1.2,0.3,1.5,0.8c0.3,0.5,0.5,1.5,0.5,2.8v6.2c0,1.4-0.2,2.3-0.5,2.8
		c-0.3,0.5-0.8,0.8-1.5,0.8H100z M101.4,36.4h0.4c0.2,0,0.3-0.1,0.4-0.2c0.1-0.2,0.1-0.4,0.1-0.7V29c0-0.3,0-0.6-0.1-0.7
		c-0.1-0.2-0.2-0.2-0.4-0.2h-0.4V36.4z"/>
	<path class="st1" d="M106.1,39.1c-0.5,0-1-0.2-1.5-0.5v-2.7h0c0.4,0.5,0.8,0.7,1.2,0.7c0.6,0,0.8-0.5,0.8-1.4
		c0-0.4-0.1-0.8-0.2-1.1c-0.1-0.3-0.3-0.6-0.5-0.9c-0.2-0.3-0.4-0.6-0.6-0.9c-0.2-0.3-0.4-0.8-0.5-1.3c-0.1-0.6-0.2-1.2-0.2-1.9
		c0-1.2,0.2-2.1,0.5-2.8c0.4-0.6,0.8-0.9,1.4-0.9c0.5,0,0.9,0.2,1.4,0.6v2.7h0c-0.4-0.5-0.8-0.7-1.2-0.7c-0.2,0-0.4,0.1-0.5,0.3
		c-0.1,0.2-0.2,0.5-0.2,0.8c0,0.4,0.1,0.7,0.2,1c0.1,0.3,0.3,0.6,0.5,0.9c0.2,0.3,0.4,0.6,0.6,0.9c0.2,0.3,0.4,0.8,0.5,1.4
		c0.1,0.6,0.2,1.2,0.2,2c0,1.3-0.2,2.3-0.6,2.9C107.2,38.8,106.7,39.1,106.1,39.1z"/>
	<path class="st1" d="M112.5,38.3c-0.3,0.5-0.8,0.8-1.5,0.8s-1.2-0.3-1.5-0.8c-0.3-0.5-0.5-1.5-0.5-2.8v-6.6c0-1.4,0.2-2.3,0.5-2.8
		c0.3-0.5,0.8-0.8,1.5-0.8s1.2,0.3,1.5,0.8c0.3,0.5,0.5,1.5,0.5,2.8v6.6C113,36.9,112.8,37.8,112.5,38.3z M110.6,36.2
		c0.1,0.2,0.2,0.2,0.4,0.2s0.3-0.1,0.4-0.2c0.1-0.2,0.1-0.4,0.1-0.7v-6.6c0-0.3,0-0.6-0.1-0.7c-0.1-0.2-0.2-0.2-0.4-0.2
		s-0.3,0.1-0.4,0.2c-0.1,0.2-0.1,0.4-0.1,0.7v6.6C110.5,35.8,110.5,36.1,110.6,36.2z"/>
	<path class="st1" d="M114,38.9V25.5h1.3l1.4,7.1h0v-7.1h1.4v13.4h-1.3l-1.4-7.1h0v7.1H114z"/>
	<path class="st1" d="M120,39c-0.3,0-0.5-0.1-0.6-0.3c-0.1-0.2-0.2-0.6-0.2-1.2c0-0.6,0.1-1,0.2-1.2c0.1-0.2,0.3-0.3,0.6-0.3
		c0.3,0,0.5,0.1,0.6,0.3c0.1,0.2,0.2,0.6,0.2,1.2c0,0.6-0.1,1-0.2,1.2C120.5,38.9,120.3,39,120,39z"/>
	<path class="st1" d="M123.9,39.1c-0.7,0-1.2-0.3-1.6-1c-0.4-0.7-0.5-1.7-0.5-3v-5.7c0-1.3,0.2-2.3,0.5-3c0.4-0.7,0.9-1,1.6-1
		c0.5,0,0.9,0.2,1.4,0.6v2.6h-0.1c-0.3-0.4-0.7-0.6-1.1-0.6c-0.3,0-0.5,0.1-0.7,0.4c-0.1,0.3-0.2,0.7-0.2,1.3v5.2
		c0,0.6,0.1,1.1,0.2,1.3c0.1,0.3,0.4,0.4,0.7,0.4c0.4,0,0.8-0.2,1.1-0.6h0.1v2.6C124.8,38.9,124.4,39.1,123.9,39.1z"/>
	<path class="st1" d="M129.6,38.3c-0.3,0.5-0.8,0.8-1.5,0.8c-0.7,0-1.2-0.3-1.5-0.8c-0.3-0.5-0.5-1.5-0.5-2.8v-6.6
		c0-1.4,0.2-2.3,0.5-2.8c0.3-0.5,0.8-0.8,1.5-0.8c0.7,0,1.2,0.3,1.5,0.8c0.3,0.5,0.5,1.5,0.5,2.8v6.6
		C130.1,36.9,130,37.8,129.6,38.3z M127.8,36.2c0.1,0.2,0.2,0.2,0.4,0.2c0.2,0,0.3-0.1,0.4-0.2c0.1-0.2,0.1-0.4,0.1-0.7v-6.6
		c0-0.3,0-0.6-0.1-0.7c-0.1-0.2-0.2-0.2-0.4-0.2c-0.2,0-0.3,0.1-0.4,0.2c-0.1,0.2-0.1,0.4-0.1,0.7v6.6
		C127.6,35.8,127.7,36.1,127.8,36.2z"/>
	<path class="st1" d="M131.2,38.9V25.5h1.6l1,6.5h0l1-6.5h1.6v13.4H135v-7.5h0l-0.8,5h-0.8l-0.8-5h0v7.5H131.2z"/>
</g>
</svg>
