<svg xmlns="http://www.w3.org/2000/svg" viewBox="0 0 27.19 27.56"><title>Asset 1</title><g id="Layer_2" data-name="Layer 2"><g id="Layer_1-2" data-name="Layer 1"><g id="_Group_" data-name="&lt;Group&gt;"><path id="_Compound_Path_" data-name="&lt;Compound Path&gt;" d="M23,7.07,24.54,6a3.4,3.4,0,0,0,.67-4.59A3.09,3.09,0,0,0,23.1,0a3,3,0,0,0-2.32.59l-1.49,1H7.91L6.45.66A3,3,0,0,0,4.09,0,3.09,3.09,0,0,0,2,1.36,3.41,3.41,0,0,0,2.67,6L4.15,7.06,0,17.37,13.6,27.56,27.19,17.37ZM21.66,1.84a1.56,1.56,0,0,1,1.21-.32,1.6,1.6,0,0,1,1.11.7,1.88,1.88,0,0,1-.35,2.54l-1.17.87-1.37-3.4ZM7.33,3.2H19.87l1.35,3.36L13.64,12.2,6,6.55Zm3.41,13.05.64-3.86,2.26,1.67L16,12.33l.65,3.92Zm4.56,1.5L13.74,19l-1.61-1.21ZM3.57,4.77a1.88,1.88,0,0,1-.36-2.55,1.6,1.6,0,0,1,1.11-.7l.23,0a1.64,1.64,0,0,1,1,.37l.53.36L4.73,5.63Zm4.75,17-6.5-4.87L5.4,8,7.54,9.56a2.64,2.64,0,0,0,1.71,4.68l.31,0Zm.94-9a1.17,1.17,0,0,1-1.18-1.16,1.24,1.24,0,0,1,.77-1.05l1.18.86-.2,1.2A1.16,1.16,0,0,1,9.26,12.74Zm4.34,13-3.19-2.4h6.38Zm-3.77-3.9.57-3.48,3.35,2.54L17,18.35l.57,3.45Zm7.49-10.47,1.09-.8a1,1,0,0,1,.64,1.06,1.11,1.11,0,0,1-1.11,1.16,1.4,1.4,0,0,1-.4-.07Zm.48,2.9.14,0a2.63,2.63,0,0,0,1.68-4.63L21.8,8l3.57,8.87L19,21.62Z"/></g></g></g></svg>