<svg xmlns="http://www.w3.org/2000/svg" viewBox="0 0 93.78 35.68"><title>Asset 3</title><g id="Layer_2" data-name="Layer 2"><g id="Layer_1-2" data-name="Layer 1"><path id="_Compound_Path_" data-name="&lt;Compound Path&gt;" d="M47.29,13.56h-3l-.7,2H42.14L45,7.49h1.66l2.79,8.09H48Zm-2.6-1.24H46.9L45.8,9Z"/><path id="_Compound_Path_2" data-name="&lt;Compound Path&gt;" d="M59.16,7.49v8.09h-1l-4-5.31v5.31H52.7V7.49h1l4,5.32V7.49Z"/><path id="_Compound_Path_3" data-name="&lt;Compound Path&gt;" d="M70.11,11v3.19a3.78,3.78,0,0,1-3.29,1.51,3.9,3.9,0,0,1-3-1.15,4.33,4.33,0,0,1-1.06-3,4.2,4.2,0,0,1,1.1-3.08,4.07,4.07,0,0,1,3-1.12,6.73,6.73,0,0,1,2.45.43L69,9a5.36,5.36,0,0,0-2-.34,2.67,2.67,0,0,0-2,.73,2.94,2.94,0,0,0-.73,2.17,3,3,0,0,0,.7,2.15,2.47,2.47,0,0,0,1.89.75,2.23,2.23,0,0,0,1.82-.67V12.21h-1.6V11Z"/><path id="_Compound_Path_4" data-name="&lt;Compound Path&gt;" d="M76.3,12.77H75.21v2.81H73.73V7.49h3a2.5,2.5,0,0,1,2,.78A2.77,2.77,0,0,1,79,11.56a2.23,2.23,0,0,1-1.19.93l2.07,3.09H78.23Zm-1.09-1.23h1.36a1.16,1.16,0,0,0,1-.43,1.61,1.61,0,0,0,.34-1,1.59,1.59,0,0,0-.34-1,1.16,1.16,0,0,0-1-.43H75.21Z"/><path id="_Compound_Path_5" data-name="&lt;Compound Path&gt;" d="M88.6,7.49,86,12.4v3.17H84.53V12.37L82,7.49H83.5l1.78,3.35,1.79-3.35Z"/><path id="_Compound_Path_6" data-name="&lt;Compound Path&gt;" d="M27.87,11.68l1.38-1a3.13,3.13,0,0,0,.62-4.23A2.86,2.86,0,0,0,27.92,5.2a2.8,2.8,0,0,0-2.14.54l-1.37,1H13.92l-1.34-.92a2.78,2.78,0,0,0-2.17-.57A2.86,2.86,0,0,0,8.46,6.42a3.14,3.14,0,0,0,.63,4.24l1.37,1-3.82,9.5,12.53,9.39L31.7,21.17ZM26.6,6.86a1.46,1.46,0,0,1,1.12-.3,1.5,1.5,0,0,1,1,.65,1.74,1.74,0,0,1-.32,2.34l-1.08.8L26.07,7.22ZM13.39,8.11H25l1.24,3.09-7,5.2-7.06-5.21Zm3.15,12,.58-3.56,2.09,1.54,2.14-1.6.6,3.62Zm4.2,1.38L19.3,22.64l-1.48-1.12ZM9.93,9.56A1.73,1.73,0,0,1,9.6,7.21a1.48,1.48,0,0,1,1-.65l.21,0a1.55,1.55,0,0,1,.94.34l.49.34L11,10.35Zm4.38,15.63-6-4.49,3.3-8.18,2,1.45a2.43,2.43,0,0,0,1.57,4.31l.29,0Zm.86-8.29a1.08,1.08,0,0,1-1.09-1.07,1.17,1.17,0,0,1,.71-1l1.09.8-.19,1.11A1.14,1.14,0,0,1,15.17,16.9Zm4,11.93-2.94-2.2h5.88ZM15.7,25.25,16.22,22l3.09,2.34,3-2.31.52,3.18Zm6.9-9.65,1-.75a.94.94,0,0,1,.59,1,1,1,0,0,1-1,1.07,1.19,1.19,0,0,1-.37-.06ZM23,18.27h.13A2.42,2.42,0,0,0,24.72,14l2-1.49L30,20.7l-5.86,4.39Z"/><path id="_Compound_Path_7" data-name="&lt;Compound Path&gt;" d="M48.23,25.87a2.16,2.16,0,0,1-.7,1.65,2.69,2.69,0,0,1-1.94.67H42.18V20.1h3a2.61,2.61,0,0,1,1.82.62,2,2,0,0,1,.67,1.52,1.93,1.93,0,0,1-.81,1.58A2.14,2.14,0,0,1,48.23,25.87Zm-2.3-4.25a1,1,0,0,0-.77-.32h-1.5v2.1h1.51a1,1,0,0,0,.76-.32,1.1,1.1,0,0,0,.27-.73A1.06,1.06,0,0,0,45.93,21.62Zm.48,5a1.2,1.2,0,0,0,.33-.84,1.22,1.22,0,0,0-.33-.86,1.19,1.19,0,0,0-.92-.36H43.66V27h1.83A1.19,1.19,0,0,0,46.41,26.63Z"/><path id="_Compound_Path_8" data-name="&lt;Compound Path&gt;" d="M57,27v1.23H51.67V20.1H56.9v1.23H53.15v2.19h3.4v1.25h-3.4V27Z"/><path id="_Compound_Path_9" data-name="&lt;Compound Path&gt;" d="M65.11,26.16h-3l-.7,2H60l2.83-8.09h1.67l2.78,8.09H65.79ZM62.5,24.93h2.21l-1.1-3.36Z"/><path id="_Compound_Path_10" data-name="&lt;Compound Path&gt;" d="M73.08,25.37H72v2.82H70.51V20.1h3a2.52,2.52,0,0,1,2,.78,2.77,2.77,0,0,1,.29,3.29,2.2,2.2,0,0,1-1.2.92l2.08,3.1H75ZM72,24.14h1.36a1.14,1.14,0,0,0,1-.43,1.54,1.54,0,0,0,.35-1,1.56,1.56,0,0,0-.35-1,1.14,1.14,0,0,0-1-.43H72Z"/><path id="_Compound_Path_11" data-name="&lt;Compound Path&gt;" d="M0,0V35.68H93.78V0ZM1.4,34.28V1.4H36.87V34.28Zm36.87,0V1.4H92.38V34.28Z"/></g></g></svg>