<svg xmlns="http://www.w3.org/2000/svg" viewBox="0 0 116.29 25.4"><title>Asset 4</title><g id="Layer_2" data-name="Layer 2"><g id="Layer_1-2" data-name="Layer 1"><g id="_Group_" data-name="&lt;Group&gt;"><path id="_Compound_Path_" data-name="&lt;Compound Path&gt;" d="M5.15,14.06h-3l-.7,2H0L2.83,8H4.49l2.79,8.08H5.84Zm-2.6-1.24h2.2L3.66,9.46Z"/><path id="_Compound_Path_2" data-name="&lt;Compound Path&gt;" d="M17,8v8.08H16l-4-5.31v5.31H10.56V8h1l4,5.31V8Z"/><path id="_Compound_Path_3" data-name="&lt;Compound Path&gt;" d="M28,11.53v3.19a3.75,3.75,0,0,1-3.28,1.51,3.9,3.9,0,0,1-3-1.15,4.33,4.33,0,0,1-1.06-3A4.16,4.16,0,0,1,21.7,9a4.06,4.06,0,0,1,3-1.11,6.73,6.73,0,0,1,2.45.42l-.36,1.21a5.36,5.36,0,0,0-2-.34,2.67,2.67,0,0,0-2,.73A3,3,0,0,0,22.12,12a3,3,0,0,0,.7,2.15,2.46,2.46,0,0,0,1.88.75,2.24,2.24,0,0,0,1.83-.67V12.71h-1.6V11.53Z"/><path id="_Compound_Path_4" data-name="&lt;Compound Path&gt;" d="M34.16,13.27H33.07v2.81H31.59V8h3a2.51,2.51,0,0,1,2,.77,2.67,2.67,0,0,1,.7,1.85,2.72,2.72,0,0,1-.41,1.45,2.25,2.25,0,0,1-1.2.92l2.08,3.09H36.08ZM33.07,12h1.36a1.14,1.14,0,0,0,1-.43,1.56,1.56,0,0,0,.35-1,1.54,1.54,0,0,0-.35-1,1.14,1.14,0,0,0-1-.43H33.07Z"/><path id="_Compound_Path_5" data-name="&lt;Compound Path&gt;" d="M46.46,8l-2.59,4.9v3.17H42.39V12.87L39.82,8h1.53l1.78,3.34L44.93,8Z"/></g><path id="_Compound_Path_6" data-name="&lt;Compound Path&gt;" d="M72.78,6.51l1.38-1a3.15,3.15,0,0,0,.62-4.24,2.89,2.89,0,0,0-2-1.22,2.81,2.81,0,0,0-2.14.55l-1.37.94H58.83L57.49.61A2.84,2.84,0,0,0,55.32,0a2.89,2.89,0,0,0-2,1.22A3.15,3.15,0,0,0,54,5.5l1.37,1L51.55,16,64.08,25.4,76.61,16ZM71.51,1.7a1.42,1.42,0,0,1,1.12-.3,1.5,1.5,0,0,1,1,.65,1.75,1.75,0,0,1-.32,2.34l-1.08.8L71,2.05ZM58.3,3H69.85L71.1,6l-7,5.2L57.05,6Zm3.15,12L62,11.42,64.12,13l2.14-1.6.6,3.61Zm4.2,1.38-1.44,1.13-1.48-1.13ZM54.84,4.4a1.73,1.73,0,0,1-.33-2.35,1.48,1.48,0,0,1,1-.65l.21,0a1.53,1.53,0,0,1,.94.34l.49.34L55.91,5.19ZM59.21,20l-6-4.49,3.3-8.19,2,1.46a2.41,2.41,0,0,0-.89,1.86,2.45,2.45,0,0,0,2.46,2.45,1.43,1.43,0,0,0,.29,0Zm.87-8.29A1.08,1.08,0,0,1,59,10.67a1.17,1.17,0,0,1,.71-1l1.09.8-.19,1.1A1.07,1.07,0,0,1,60.08,11.74Zm4,11.93-2.94-2.2H67ZM60.6,20.09l.53-3.21,3.09,2.34,3-2.31.52,3.18Zm6.91-9.66,1-.74a.93.93,0,0,1,.59,1,1,1,0,0,1-1,1.07,1.19,1.19,0,0,1-.37-.06ZM68,13.11h.13a2.42,2.42,0,0,0,1.55-4.26l2-1.49,3.29,8.17-5.86,4.39Z"/><g id="_Group_2" data-name="&lt;Group&gt;"><path id="_Compound_Path_7" data-name="&lt;Compound Path&gt;" d="M87.9,13.77a2.19,2.19,0,0,1-.7,1.64,2.69,2.69,0,0,1-1.94.67H81.85V8h3a2.56,2.56,0,0,1,1.81.62,2,2,0,0,1,.68,1.52,1.93,1.93,0,0,1-.81,1.58A2.16,2.16,0,0,1,87.9,13.77ZM85.6,9.51a1,1,0,0,0-.78-.31H83.33v2.09h1.51A1,1,0,0,0,85.6,11a1.12,1.12,0,0,0,0-1.46Zm.48,5a1.2,1.2,0,0,0,.33-.84,1.23,1.23,0,0,0-.33-.86,1.19,1.19,0,0,0-.92-.36H83.33v2.41h1.83A1.19,1.19,0,0,0,86.08,14.52Z"/><path id="_Compound_Path_8" data-name="&lt;Compound Path&gt;" d="M96.65,14.85v1.23H91.34V8h5.23V9.22H92.82v2.19h3.4v1.25h-3.4v2.19Z"/><path id="_Compound_Path_9" data-name="&lt;Compound Path&gt;" d="M104.77,14.05h-3l-.7,2H99.62L102.45,8h1.66l2.79,8.09h-1.44Zm-2.6-1.23h2.2l-1.09-3.36Z"/><path id="_Compound_Path_10" data-name="&lt;Compound Path&gt;" d="M112.74,13.27h-1.08v2.81h-1.48V8h3a2.5,2.5,0,0,1,2,.78,2.75,2.75,0,0,1,.3,3.29,2.28,2.28,0,0,1-1.2.92l2.08,3.1h-1.62ZM111.66,12H113a1.18,1.18,0,0,0,1-.43,1.66,1.66,0,0,0,0-2,1.18,1.18,0,0,0-1-.43h-1.36Z"/></g></g></g></svg>