<svg xmlns="http://www.w3.org/2000/svg" viewBox="0 0 69.43 70.28"><title>Asset 5</title><g id="Layer_2" data-name="Layer 2"><g id="Layer_1-2" data-name="Layer 1"><g id="_Group_" data-name="&lt;Group&gt;"><path id="_Compound_Path_" data-name="&lt;Compound Path&gt;" d="M44.9,29.58l1.5-1.12a3.4,3.4,0,0,0,.67-4.59A3.09,3.09,0,0,0,45,22.55a3,3,0,0,0-2.33.59l-1.49,1H29.76l-1.45-1A3.05,3.05,0,0,0,26,22.55a3.09,3.09,0,0,0-2.11,1.32,3.4,3.4,0,0,0,.68,4.6L26,29.57,21.86,39.88l13.6,10.19L49.05,39.88Zm-1.38-5.23A1.56,1.56,0,0,1,44.73,24a1.6,1.6,0,0,1,1.11.7,1.88,1.88,0,0,1-.35,2.54l-1.17.87L43,24.74ZM29.18,25.71H41.72l1.36,3.36L35.49,34.7l-7.66-5.65Zm3.42,13,.64-3.86,2.26,1.67,2.33-1.73.64,3.92Zm4.56,1.5L35.6,41.47,34,40.26Zm-11.73-13a1.88,1.88,0,0,1-.36-2.55,1.6,1.6,0,0,1,1.11-.7.86.86,0,0,1,.23,0,1.64,1.64,0,0,1,1,.37l.53.36-1.37,3.4Zm4.75,17-6.5-4.87,3.58-8.88,2.14,1.58a2.61,2.61,0,0,0-1,2,2.66,2.66,0,0,0,2.67,2.66l.31,0Zm.93-9a1.16,1.16,0,0,1-1.17-1.16A1.24,1.24,0,0,1,30.71,33l1.17.86-.19,1.2A1.28,1.28,0,0,1,31.11,35.25Zm4.35,13-3.2-2.4h6.38Zm-3.77-3.9.57-3.48,3.35,2.54,3.21-2.5.57,3.45Zm7.49-10.47,1.08-.8a1,1,0,0,1,.64,1.06,1.1,1.1,0,0,1-1.1,1.16,1.34,1.34,0,0,1-.4-.07Zm.48,2.9.14,0a2.63,2.63,0,0,0,1.68-4.63l2.18-1.62,3.57,8.87-6.35,4.76Z"/></g><g id="_Group_2" data-name="&lt;Group&gt;"><g id="_Group_3" data-name="&lt;Group&gt;"><g id="_Group_4" data-name="&lt;Group&gt;"><path id="_Compound_Path_2" data-name="&lt;Compound Path&gt;" d="M17.78,18.11l-2,2.15,1,1.83-.94,1-3.91-7.33L13,14.59l7.6,3.33-.95,1Zm-2.59,1,1.45-1.57-3.11-1.43Z"/></g><g id="_Group_5" data-name="&lt;Group&gt;"><path id="_Compound_Path_3" data-name="&lt;Compound Path&gt;" d="M25.72,6.67l3.07,7.22-.9.38-5.62-3.22,2,4.74L23,16.33,20,9.11l.9-.38L26.47,12l-2-4.75Z"/></g><g id="_Group_6" data-name="&lt;Group&gt;"><path id="_Compound_Path_4" data-name="&lt;Compound Path&gt;" d="M39.23,9.13l-.14,3.09a3.66,3.66,0,0,1-3.25,1.33A3.81,3.81,0,0,1,33,12.3a4.23,4.23,0,0,1-.9-3,4.1,4.1,0,0,1,1.2-2.94,3.91,3.91,0,0,1,3-1,6.55,6.55,0,0,1,2.36.51l-.4,1.16a5.31,5.31,0,0,0-1.91-.41,2.57,2.57,0,0,0-1.95.62,2.86,2.86,0,0,0-.81,2.07,2.94,2.94,0,0,0,.59,2.11,2.37,2.37,0,0,0,1.8.81,2.16,2.16,0,0,0,1.8-.57l.07-1.51-1.56-.07L36.28,9Z"/></g><g id="_Group_7" data-name="&lt;Group&gt;"><path id="_Compound_Path_5" data-name="&lt;Compound Path&gt;" d="M45.55,13.22l-.94-.47-1.23,2.43-1.28-.65,3.55-7,2.57,1.3a2.44,2.44,0,0,1,1.36,1.54,2.62,2.62,0,0,1-.21,1.9,2.5,2.5,0,0,1-1,1.07,2.19,2.19,0,0,1-1.44.27l.44,3.59L46,16.5Zm-.4-1.54,1.18.6a1.12,1.12,0,0,0,1,.05,1.5,1.5,0,0,0,.74-.71,1.58,1.58,0,0,0,.14-1,1.11,1.11,0,0,0-.65-.79l-1.17-.6Z"/></g><g id="_Group_8" data-name="&lt;Group&gt;"><path id="_Compound_Path_6" data-name="&lt;Compound Path&gt;" d="M59,17.89,53.77,19.2l-2.29,2.06-1-1.06,2.32-2.08,1.85-5,1,1.11-1.26,3.45L58,16.79Z"/></g></g><g id="_Group_9" data-name="&lt;Group&gt;"><g id="_Group_10" data-name="&lt;Group&gt;"><path id="_Compound_Path_7" data-name="&lt;Compound Path&gt;" d="M21.47,60a2.08,2.08,0,0,1-1.47.91,2.62,2.62,0,0,1-1.91-.55l-2.7-1.89L19.89,52l2.41,1.69a2.52,2.52,0,0,1,1.1,1.5,1.92,1.92,0,0,1-.32,1.58,1.89,1.89,0,0,1-1.52.81A2.06,2.06,0,0,1,21.47,60Zm-1.86-.42a1.2,1.2,0,0,0,.94-1.35,1.11,1.11,0,0,0-.52-.79l-1.45-1L17.23,58.3l1.46,1A1.12,1.12,0,0,0,19.61,59.55ZM22,55.31a1,1,0,0,0-.44-.68l-1.19-.83-1.16,1.66,1.19.84a1,1,0,0,0,.78.17,1.08,1.08,0,0,0,.63-.43A1.06,1.06,0,0,0,22,55.31Z"/></g><g id="_Group_11" data-name="&lt;Group&gt;"><path id="_Compound_Path_8" data-name="&lt;Compound Path&gt;" d="M31.12,64.05l-.25,1.17-5-1.1,1.67-7.67,5,1.08L32.2,58.7l-3.55-.77L28.2,60l3.22.7-.26,1.18-3.22-.7-.45,2.08Z"/></g><g id="_Group_12" data-name="&lt;Group&gt;"><path id="_Compound_Path_9" data-name="&lt;Compound Path&gt;" d="M41.18,62.58l-2.88.55L38,65.19l-1.36.26,1.22-8.23,1.59-.3,4.13,7.2-1.38.27Zm-2.7-.7,2.1-.4-1.66-3Z"/></g><g id="_Group_13" data-name="&lt;Group&gt;"><path id="_Compound_Path_10" data-name="&lt;Compound Path&gt;" d="M49.78,57.81l-.86.61,1.57,2.22-1.17.83-4.52-6.4,2.36-1.66a2.4,2.4,0,0,1,2-.48A2.57,2.57,0,0,1,50.73,54a2.47,2.47,0,0,1,.48,1.37,2.17,2.17,0,0,1-.43,1.4l3.38,1.29-1.28.9Zm-1.55-.37,1.08-.76a1.1,1.1,0,0,0,.52-.87,1.48,1.48,0,0,0-.29-1,1.51,1.51,0,0,0-.83-.6,1.12,1.12,0,0,0-1,.2l-1.07.76Z"/></g></g></g><path id="_Compound_Path_11" data-name="&lt;Compound Path&gt;" d="M34.71,0a35.14,35.14,0,0,0,0,70.28A35.14,35.14,0,0,0,34.71,0ZM68,35.14A33.56,33.56,0,0,1,34.71,68.87a33.74,33.74,0,0,1,0-67.47A33.57,33.57,0,0,1,68,35.14Z"/></g></g></svg>