<svg xmlns="http://www.w3.org/2000/svg" viewBox="0 0 51.85 37.78"><title>Asset 7</title><g id="Layer_2" data-name="Layer 2"><g id="Layer_1-2" data-name="Layer 1"><path id="_Compound_Path_" data-name="&lt;Compound Path&gt;" d="M27.42,12.74l1.38-1a3.13,3.13,0,0,0,.61-4.23,2.85,2.85,0,0,0-1.94-1.22,2.75,2.75,0,0,0-2.14.55L24,7.75H13.47l-1.34-.92A2.8,2.8,0,0,0,10,6.26,2.89,2.89,0,0,0,8,7.48a3.14,3.14,0,0,0,.63,4.24l1.37,1-3.83,9.5,12.54,9.39,12.52-9.39ZM26.14,7.92a1.47,1.47,0,0,1,2.14.35A1.72,1.72,0,0,1,28,10.61l-1.08.8L25.62,8.28ZM12.93,9.17H24.49l1.25,3.1-7,5.19-7.06-5.2Zm3.15,12,.59-3.56,2.08,1.54,2.15-1.6.6,3.62Zm4.2,1.38L18.84,23.7l-1.47-1.12Zm-10.81-12a1.75,1.75,0,0,1-.33-2.35,1.5,1.5,0,0,1,1-.65h.22a1.58,1.58,0,0,1,.94.33l.48.34-1.26,3.13Zm4.38,15.63-6-4.49,3.3-8.18,2,1.45a2.44,2.44,0,0,0,1.58,4.31l.28,0ZM14.71,18a1.07,1.07,0,0,1-1.08-1.07,1.12,1.12,0,0,1,.71-1l1.08.79-.18,1.11A1.19,1.19,0,0,1,14.71,18Zm4,11.94-2.95-2.21h5.88Zm-3.48-3.59.53-3.21,3.09,2.34,2.95-2.31.53,3.19Zm6.91-9.65,1-.74a.93.93,0,0,1,.59,1,1,1,0,0,1-1,1.07,1.15,1.15,0,0,1-.37-.06Zm.44,2.67h.13a2.41,2.41,0,0,0,1.54-4.26l2-1.49,3.3,8.17-5.86,4.39Z"/><path id="_Compound_Path_2" data-name="&lt;Compound Path&gt;" d="M0,0V37.77H51.85V0ZM36.35,36.45h-35V1.33h35Zm14.17,0H37.69V1.33H50.52Z"/><path id="_Compound_Path_3" data-name="&lt;Compound Path&gt;" d="M45.66,14.66h-3l-.7,2H40.51L43.33,8.6H45l2.79,8.09H46.35Zm-2.6-1.23h2.2l-1.09-3.36Z"/><path id="_Compound_Path_4" data-name="&lt;Compound Path&gt;" d="M47.39,27a2.17,2.17,0,0,1-.71,1.65,2.67,2.67,0,0,1-1.93.67H41.34V21.19h3a2.59,2.59,0,0,1,1.82.62,2,2,0,0,1,.67,1.52,1.93,1.93,0,0,1-.81,1.58A2.15,2.15,0,0,1,47.39,27Zm-2.31-4.25a1,1,0,0,0-.77-.31H42.82v2.09h1.5a1,1,0,0,0,.76-.32,1.06,1.06,0,0,0,.28-.73A1,1,0,0,0,45.08,22.71Zm.49,5a1.24,1.24,0,0,0,.32-.84,1.22,1.22,0,0,0-.33-.86,1.17,1.17,0,0,0-.91-.36H42.82v2.41h1.83A1.21,1.21,0,0,0,45.57,27.72Z"/></g></g></svg>