<svg xmlns="http://www.w3.org/2000/svg" viewBox="0 0 47.05 60.04"><title>Asset 6</title><g id="Layer_2" data-name="Layer 2"><g id="Layer_1-2" data-name="Layer 1"><g id="_Group_" data-name="&lt;Group&gt;"><path id="_Compound_Path_" data-name="&lt;Compound Path&gt;" d="M33,24.07,34.47,23a3.41,3.41,0,0,0,.67-4.6A3.16,3.16,0,0,0,33,17a3,3,0,0,0-2.33.59l-1.49,1H17.83l-1.45-1A3.05,3.05,0,0,0,14,17a3.16,3.16,0,0,0-2.11,1.32A3.42,3.42,0,0,0,12.59,23l1.49,1.1L9.93,34.37l13.6,10.19L37.12,34.37Zm-1.38-5.23a1.6,1.6,0,0,1,1.21-.32,1.67,1.67,0,0,1,1.11.7,1.88,1.88,0,0,1-.35,2.54l-1.17.88L31,19.23ZM17.25,20.2H29.79l1.36,3.36L23.56,29.2,15.9,23.55Zm3.42,13.05.64-3.86,2.26,1.67,2.33-1.73.64,3.92Zm4.56,1.5L23.67,36l-1.61-1.22Zm-11.73-13a1.88,1.88,0,0,1-.36-2.55,1.67,1.67,0,0,1,1.11-.7l.23,0a1.64,1.64,0,0,1,1,.37l.53.36-1.37,3.4Zm4.75,17-6.5-4.87L15.33,25l2.14,1.58a2.61,2.61,0,0,0-1,2,2.65,2.65,0,0,0,2.67,2.66l.31,0Zm.93-9A1.16,1.16,0,0,1,18,28.58a1.25,1.25,0,0,1,.77-1L20,28.4l-.19,1.19A1.17,1.17,0,0,1,19.18,29.74Zm4.35,13-3.2-2.39h6.38ZM19.76,38.8l.57-3.48,3.35,2.54,3.21-2.51.57,3.46Zm7.49-10.48,1.08-.8A1,1,0,0,1,29,28.58a1.1,1.1,0,0,1-1.1,1.16,1.09,1.09,0,0,1-.4-.07Zm.48,2.91h.14a2.62,2.62,0,0,0,1.68-4.62L31.73,25l3.57,8.87L29,38.63Z"/></g><g id="_Group_2" data-name="&lt;Group&gt;"><g id="_Group_3" data-name="&lt;Group&gt;"><g id="_Group_4" data-name="&lt;Group&gt;"><path id="_Compound_Path_2" data-name="&lt;Compound Path&gt;" d="M5.85,12.7l-2,2.15,1,1.83-.94,1L0,10.37,1.1,9.18l7.6,3.33-.95,1Zm-2.59,1,1.45-1.57L1.6,10.74Z"/></g><g id="_Group_5" data-name="&lt;Group&gt;"><path id="_Compound_Path_3" data-name="&lt;Compound Path&gt;" d="M13.79,1.25l3.07,7.23-.9.38L10.34,5.64l2,4.74-1.27.54L8,3.7l.9-.38,5.61,3.22-2-4.75Z"/></g><g id="_Group_6" data-name="&lt;Group&gt;"><path id="_Compound_Path_4" data-name="&lt;Compound Path&gt;" d="M27.3,3.72l-.14,3.09a3.66,3.66,0,0,1-3.25,1.33A3.81,3.81,0,0,1,21,6.89a4.23,4.23,0,0,1-.9-3A4.1,4.1,0,0,1,21.33,1a3.91,3.91,0,0,1,3-.95,6.55,6.55,0,0,1,2.36.51l-.4,1.16a5.11,5.11,0,0,0-1.91-.41,2.57,2.57,0,0,0-1.95.62A2.86,2.86,0,0,0,21.6,4a2.94,2.94,0,0,0,.59,2.11,2.37,2.37,0,0,0,1.8.81,2.16,2.16,0,0,0,1.8-.57l.07-1.51L24.3,4.73l.05-1.14Z"/></g><g id="_Group_7" data-name="&lt;Group&gt;"><path id="_Compound_Path_5" data-name="&lt;Compound Path&gt;" d="M33.62,7.81l-.94-.47L31.45,9.77l-1.28-.65,3.55-7,2.57,1.3A2.39,2.39,0,0,1,37.64,5a2.57,2.57,0,0,1-.2,1.9,2.5,2.5,0,0,1-1,1.07A2.19,2.19,0,0,1,35,8.21l.44,3.59-1.4-.71Zm-.4-1.54,1.18.6a1.12,1.12,0,0,0,1,0,1.54,1.54,0,0,0,.74-.71,1.58,1.58,0,0,0,.14-1,1.15,1.15,0,0,0-.65-.8L34.48,3.8Z"/></g><g id="_Group_8" data-name="&lt;Group&gt;"><path id="_Compound_Path_6" data-name="&lt;Compound Path&gt;" d="M47.05,12.48l-5.21,1.31-2.29,2.06-1-1.06,2.32-2.08,1.85-5,1,1.11-1.26,3.45,3.58-.88Z"/></g></g><g id="_Group_9" data-name="&lt;Group&gt;"><g id="_Group_10" data-name="&lt;Group&gt;"><path id="_Compound_Path_7" data-name="&lt;Compound Path&gt;" d="M9.54,54.56a2.08,2.08,0,0,1-1.47.91,2.62,2.62,0,0,1-1.91-.55L3.46,53,8,46.61l2.41,1.69a2.46,2.46,0,0,1,1.09,1.5,1.92,1.92,0,0,1-.31,1.58,1.86,1.86,0,0,1-1.52.8A2.07,2.07,0,0,1,9.54,54.56Zm-1.86-.42a1.19,1.19,0,0,0,.73-.48,1.24,1.24,0,0,0,.21-.87A1.15,1.15,0,0,0,8.1,52L6.65,51,5.3,52.89l1.46,1A1.12,1.12,0,0,0,7.68,54.14Zm2.41-4.24a1,1,0,0,0-.44-.68l-1.19-.83L7.3,50.05l1.19.84a1,1,0,0,0,.78.17,1.08,1.08,0,0,0,.63-.43A1.06,1.06,0,0,0,10.09,49.9Z"/></g><g id="_Group_11" data-name="&lt;Group&gt;"><path id="_Compound_Path_8" data-name="&lt;Compound Path&gt;" d="M19.19,58.64l-.25,1.16-5-1.09L15.57,51l5,1.08-.26,1.17-3.55-.77-.45,2.07,3.22.7-.26,1.18L16,55.77l-.45,2.08Z"/></g><g id="_Group_12" data-name="&lt;Group&gt;"><path id="_Compound_Path_9" data-name="&lt;Compound Path&gt;" d="M29.25,57.17l-2.88.55-.3,2.06L24.71,60l1.22-8.23,1.59-.3,4.13,7.2L30.27,59Zm-2.7-.7,2.1-.4-1.66-3Z"/></g><g id="_Group_13" data-name="&lt;Group&gt;"><path id="_Compound_Path_10" data-name="&lt;Compound Path&gt;" d="M37.85,52.4,37,53l1.57,2.22-1.17.83-4.52-6.4L35.23,48a2.4,2.4,0,0,1,2-.48,2.53,2.53,0,0,1,1.59,1.07A2.47,2.47,0,0,1,39.28,50a2.12,2.12,0,0,1-.43,1.39l3.38,1.3-1.28.9ZM36.3,52l1.08-.76a1.11,1.11,0,0,0,.52-.88,1.47,1.47,0,0,0-.29-1,1.51,1.51,0,0,0-.83-.6,1.12,1.12,0,0,0-1,.2l-1.07.76Z"/></g></g></g></g></g></svg>