<svg xmlns="http://www.w3.org/2000/svg" viewBox="0 0 35.07 40.91"><title>Asset 2</title><g id="Layer_2" data-name="Layer 2"><g id="Layer_1-2" data-name="Layer 1"><path id="_Compound_Path_" data-name="&lt;Compound Path&gt;" d="M26.24,12.68l1.38-1a3.13,3.13,0,0,0,.62-4.23A2.89,2.89,0,0,0,26.29,6.2a2.81,2.81,0,0,0-2.14.55l-1.37.94H12.29L11,6.77A2.82,2.82,0,0,0,8.78,6.2,2.85,2.85,0,0,0,6.84,7.42a3.14,3.14,0,0,0,.62,4.24l1.38,1L5,22.18l12.53,9.38,12.53-9.38ZM25,7.86a1.46,1.46,0,0,1,1.12-.3,1.57,1.57,0,0,1,1,.65,1.74,1.74,0,0,1-.32,2.34l-1.08.81L24.45,8.22ZM11.76,9.11H23.32l1.24,3.1-7,5.2-7-5.21Zm3.15,12,.58-3.55,2.09,1.53,2.14-1.59.6,3.61Zm4.2,1.38-1.44,1.12-1.48-1.12ZM8.3,10.56A1.73,1.73,0,0,1,8,8.21a1.57,1.57,0,0,1,1-.65H9.2a1.49,1.49,0,0,1,.94.34l.49.33L9.37,11.35Zm4.38,15.63-6-4.48L10,13.52,12,15a2.41,2.41,0,0,0-.89,1.86,2.46,2.46,0,0,0,2.46,2.45,2.85,2.85,0,0,0,.29,0Zm.86-8.28a1.08,1.08,0,0,1-1.09-1.07,1.17,1.17,0,0,1,.71-1l1.09.8-.19,1.1A1,1,0,0,1,13.54,17.91Zm4,11.93L14.6,27.63h5.88Zm-3.47-3.59L14.59,23l3.09,2.34,3-2.3.52,3.18ZM21,16.6l1-.74a.92.92,0,0,1,.59,1,1,1,0,0,1-1,1.07,1.1,1.1,0,0,1-.36-.07Zm.44,2.68h.13a2.4,2.4,0,0,0,2.4-2.45A2.37,2.37,0,0,0,23.09,15l2-1.5,3.29,8.18-5.85,4.38Z"/><g id="_Group_" data-name="&lt;Group&gt;"><path id="_Compound_Path_2" data-name="&lt;Compound Path&gt;" d="M17.77,40.91h-.26c-.26,0-.26,0-17.11-12.93l-.3-.22L0,0H35V15.46l.1,12.29ZM1.62,27l15.9,12.19L33.55,27l-.1-11.54V1.52H1.53Z"/></g></g></g></svg>