<svg id="shield" xmlns="http://www.w3.org/2000/svg" viewBox="0 0 309.44 242.14"><title>16_HD_SHIELD_DB-RGB</title><path d="M195.94,39.43c27.39,19.77,67.39,31.77,98.36,32.49l3.25,0.25v41h49.72V202.4H316.7l-3,3.06-7.48,6.64c-33.59,29.81-80.3,65.64-112.1,67h-0.27C169.46,278.3,128.31,254,81,212.54l-7.17-6.28-3.67-3.83H38.57V113.21H89.34V72.11l3.3-.16c40.21-1.88,70.77-11.93,99.08-32.59l2-1.55Z" transform="translate(-38.19 -37.35)" style="fill:#fff;stroke:#000;stroke-width:0.75px"/><path d="M193.75,42.2C221.22,63.5,258.59,72.65,294,75.41v29c-7.51-.39-13.6,7.48-13.61,12.26h63.35V198.9H285c1.39,7.61,11.55,11,18.86,10.58-39,34.66-82.09,64.93-109.92,66.13-25.37-.84-68.25-28.49-110.7-65.7,17.6,0.28,19.16-11,19.16-11l-60.37,0V116.71h63.15c-0.31-6-5.83-11.61-12.41-12.25v-29C130.45,73.69,162.94,64.67,193.75,42.2Z" transform="translate(-38.19 -37.35)"/><path d="M286.71,81.73c0,5.18,0,12.29,0,18.18-6.93,1.44-13.93,10.85-13.92,16.82h-5.71C267.65,105.37,274,99.85,281,96.09c0-3.58,0-5.53,0-9-30.22-.75-65.45-13.73-87.33-28.5-19.9,13.4-57.08,27.73-87.61,28.5,0,2,0,5.95,0,9.06a24.4,24.4,0,0,1,13.15,20.62h-6c-1.29-9-6.44-13.8-12.75-17.33,0-5.74,0-11.34,0-17.3,34.51-1.95,73.35-15.3,93.25-30.73C212.82,67,252.8,79.14,286.71,81.73Z" transform="translate(-38.19 -37.35)" style="fill:#f60"/><path d="M207.23,74.09l-0.05,7.7L197.42,77v39.72H189.8c0-13,0-39.72,0-39.72l-9.5,4.71,0.05-7.56s11-5.53,13.41-7.3C196.29,68.7,207.23,74.09,207.23,74.09Z" transform="translate(-38.19 -37.35)" style="fill:#f60"/><path d="M144.63,116.71c0-3.82.17-10.21-.74-11.28-1.89,3.43-3.52,7.67-5.09,10.85-1.61-3.22-3.27-7-5.32-9.62l-0.21,10.06h-6.93V91.42c3.76-.66,4.88-1,6.84-1.31l5.44,11.76,5.72-14a71.38,71.38,0,0,1,7.12-1.63v30.48h-6.84Z" transform="translate(-38.19 -37.35)" style="fill:#f60"/><path d="M179.61,85c0,11.06,0,21.54,0,25.79-0.07,6-2.1,5.83-12.28,5.9-8.37.06-11.1,0.19-11.2-8.21V90.88c0.14-6.68,1.89-6.33,9.47-10.12C177.44,75,179.28,76.93,179.61,85ZM173,88.11c0-4.12-8.7.89-9.27,1.47-1.75,1.78-1.33,13.31-1.27,18.16,0,1.09.56,2.35,1.91,2.34,2.19,0,5.41.06,7.22,0A1.31,1.31,0,0,0,173,108.5C173,107.22,173,88.11,173,88.11Z" transform="translate(-38.19 -37.35)" style="fill:#f60"/><path d="M232.13,88.82v21.25c0,6.65-2.36,6.65-11.6,6.65-8.74,0-12.59,0-12.6-6.65,0,0,0-19.24,0-26.39,0-9.6,7.77-5.49,13.67-3.15C227.18,82.75,232.13,83.67,232.13,88.82ZM220.3,87.46c-3.22-.95-5.36-1.51-5.37,2,0,6,0,16,0,16,0,5.14,2.66,4.64,5.56,4.64,2,0,4.94.46,4.92-2.63,0-6.4,0-8.8,0-15.65C225.43,88.08,222.35,88.06,220.3,87.46Z" transform="translate(-38.19 -37.35)" style="fill:#f60"/><path d="M259.42,92.29c3.33,3.67,2.55,13.2-.33,14.19,3.05,2.29,2.39,10.24,2.39,10.24h-6.54c0-7.94-1.55-8.08-5.37-8.07-2.78-.05-2,0-5.25,0v8.06H237.7V86.62C246.83,88.61,257.62,90.32,259.42,92.29ZM244.36,95l0,7c4.31,0.22,5.4.26,8.41,0.44,2.41,0,1.85-4.73,1.17-5.6C253.43,96.09,248,95.39,244.36,95Z" transform="translate(-38.19 -37.35)" style="fill:#f60"/><rect x="11.56" y="87.07" width="286.65" height="66.49" style="fill:#f60"/><path d="M117.24,198.89a19.59,19.59,0,0,1-7.4,15.46c28,25.06,65.76,46.41,84.35,47.64,18.86-1.23,55.61-24,83.7-47.82-5.64-5-7.26-9.24-7.27-15.29l5.56,0c0.48,7.25,8.18,13.12,11.38,14.49-41.27,34.06-67.34,50.69-93.77,54.18-27.47-3.84-54.07-20.29-94-53.87,5.56-2.47,11.17-8.24,11.15-14.81h6.32Z" transform="translate(-38.19 -37.35)" style="fill:#f60"/><path d="M303.11,202.71a2.17,2.17,0,1,1-3.07,3.08,2.12,2.12,0,0,1-.63-1.54A2.16,2.16,0,0,1,303.11,202.71Zm0.25-.24a2.52,2.52,0,1,0,.74,1.78A2.44,2.44,0,0,0,303.36,202.47Zm-1.41,1.66a1.32,1.32,0,0,1-.46.06H301v-1h0.42a1.26,1.26,0,0,1,.59.1A0.5,0.5,0,0,1,301.95,204.13Zm-1.39,1.49H301v-1.09h0.38a1.17,1.17,0,0,1,.54.09,0.68,0.68,0,0,1,.26.63v0.37h0.46l0,0a0.43,0.43,0,0,1,0-.14c0-.07,0-0.14,0-0.21V205a0.76,0.76,0,0,0-.15-0.43,0.67,0.67,0,0,0-.48-0.27,1.06,1.06,0,0,0,.4-0.13,0.6,0.6,0,0,0,.27-0.55,0.69,0.69,0,0,0-.43-0.7,2.11,2.11,0,0,0-.75-0.1h-1v2.77Z" transform="translate(-38.19 -37.35)"/><rect x="17.86" y="92.69" width="274.76" height="55.64"/><path d="M282.86,143.17v8.22l-6.27,0c0-5.15,0-8.52-2.48-8.36-2.12,0-1.77,2.46-1.78,4.32,0,5.49,2.83,6.51,5.71,8.65,3.84,2.87,5.15,4.71,5.2,12.84,0,6-2,10.59-8.53,10.59-7.66,0-8.71-3.46-8.7-16.51,1,0,5,0,6.34,0,0,2.14,0,5.25,0,6.37s-0.21,3.74,2.39,3.75c1.57,0,2.17-1.29,2.17-5,0-4.24-1.24-5.55-2.66-6.62-2.81-2.13-8.15-4.23-8.14-10.75,0-5.9-.93-14.82,8.69-14.72C280.48,136,282.87,139.13,282.86,143.17Z" transform="translate(-38.19 -37.35)" style="fill:#fff"/><path d="M70.73,153H75.3V137h6.27v42H75.26V161.49H70.77V179H64.45V137h6.28V153Z" transform="translate(-38.19 -37.35)" style="fill:#fff"/><path d="M130.26,172c2.29,0,4,0,6.27,0v7h-13V137h6.71v35Z" transform="translate(-38.19 -37.35)" style="fill:#fff"/><path d="M150.95,143.63h-6.35v9.8c2.53,0,4.1,0,6.31,0v7.36h-6.31v11.15c2.35,0,3.88,0,6.27,0V179H137.93V137h13v6.62Z" transform="translate(-38.19 -37.35)" style="fill:#fff"/><path d="M158.24,137c0.82,4.46,1.57,8.84,2.9,13.73,1.43-4.94,1.78-9,3.18-13.71h6.19c-1.72,8.86-4,16.52-6.29,24.74,0,6.74,0,10.37,0,16.89h-6.32c0-6.91,0-11.77,0-17-2.11-8.27-4.5-16.34-6.2-24.61Z" transform="translate(-38.19 -37.35)" style="fill:#fff"/><path d="M225.11,136.66c0.76,8.16,1.59,16.74,2.48,24.87,0,0,2-17.54,3-24.87h6.23l-5.84,42h-6.71l-5.57-42h6.36Z" transform="translate(-38.19 -37.35)" style="fill:#fff"/><polygon points="206.19 141.34 199.85 141.34 199.85 99.31 206.16 99.31 206.19 141.34" style="fill:#fff"/><path d="M312.62,136.66c1.38,6.41,2.67,13,4.07,19.25l-0.26-19.25h6.32v41.65h-7.41c-1.42-7.83-2.78-15.18-4.33-23.06l0.2,23.06h-6.65V136.66h8.06Z" transform="translate(-38.19 -37.35)" style="fill:#fff"/><path d="M302.11,144.64c0,4,0,26.94,0,26.94,0,4.4-4.27,8.22-8.64,8.14-3.64-.07-8.19-2-8.18-8.23,0-6,0-15.72,0-27,0-8.09,5.15-8.84,8.75-8.86C297.32,135.59,302.11,136.87,302.11,144.64Zm-10.85.1c0,5.37,0,15.41,0,25,0,3.6,4.41,4.61,4.42.61,0-9.65,0-23.17,0-25.58C295.72,141.93,291.28,141.85,291.26,144.73Z" transform="translate(-38.19 -37.35)" style="fill:#fff"/><path d="M194.74,137c3.26,0,5.54,2.32,5.55,7.23,0,8.92,0,19.72.05,27.31A7.29,7.29,0,0,1,192.8,179c-2.28,0-5.36,0-9,0V137Zm-4.6,6.37v28.57c0.94,0,.86,0,2.26,0a1.78,1.78,0,0,0,1.55-2c0-5.16-.06-23-0.06-24.6C193.89,142.51,190.14,143.37,190.14,143.37Z" transform="translate(-38.19 -37.35)" style="fill:#fff"/><path d="M257.11,136.67c3.19,0,6.82,1.86,6.81,7.41v27.76c0,4.52-2.71,6.85-8.08,6.84h-8.7v-42h10Zm-1.22,6.66c-1.13,0-2.06,0-2.06,0v28.61c3.71,0,4.15-.16,4.16-2,0,0,0-17.1,0-24.31A2.37,2.37,0,0,0,255.89,143.32Z" transform="translate(-38.19 -37.35)" style="fill:#fff"/><path d="M114.27,137c6.12,0,6.82,7.18,6.81,11.6,0,2,.14,5.78-3.14,9.07,2.06,1.85,3.15,3.32,3.19,7.91,0,4.37,0,8.09,0,13.48H117c-0.75,0-2.55-.61-2.53-1.84,0-2.65,0-8.31,0-11.45,0-2.6-1.54-2.86-3-2.87h-1.12V179h-6.8l0.09-42C106.39,137,107.27,137,114.27,137Zm-3.95,6.68v11.15h2.48c0.64,0,1.38-.5,1.37-2.16,0.06-1.92,0-4.83,0-6.63C114.18,143.69,112.78,143.69,110.32,143.67Z" transform="translate(-38.19 -37.35)" style="fill:#fff"/><path d="M220.54,178.65h-5.92c-0.7-3.39-1-6.69-1.61-10.15h-4.49l-1.24,10.15h-6c1.23-13.89,3.61-28.16,5-42h9Zm-9.89-33-1.4,15h2.84A128,128,0,0,0,210.66,145.68Z" transform="translate(-38.19 -37.35)" style="fill:#fff"/><path d="M97.3,137c1.65,13.59,3.1,27.24,4.61,42H96.07c-0.49-3.72-1-7.66-1.29-10.06H90.46L89.28,179h-6c1.46-13.83,2.95-27.65,4.3-42H97.3Zm-5.1,8.53L91.45,160.7H93.9C93.44,155.37,93.09,151,92.2,145.55Z" transform="translate(-38.19 -37.35)" style="fill:#fff"/><rect x="131.26" y="118.21" width="11.55" height="5.22" style="fill:#fff"/><polygon points="106.55 161.59 114.97 161.59 119.17 173.13 119.69 173.13 124.82 161.59 133.23 161.59 122.56 182.33 122.56 204.56 114.86 200.06 114.86 182.43 106.55 161.59" style="fill:#f60"/><path d="M127.2,221l18.11,11.94V224.4l-0.26-1.1L134.21,217l-0.52-.42a1.4,1.4,0,0,1-.88-1.16V207a1.35,1.35,0,0,1,1.38-1.32h8.12v-6.7l-11.63,0a5.62,5.62,0,0,0-5.75,5.48v12.18A5.38,5.38,0,0,0,127.2,221Z" transform="translate(-38.19 -37.35)" style="fill:#f60"/><path d="M192.15,247.49l-7.38-2.75-2.79-1a2.45,2.45,0,0,1-1.63-2.28V208.09a2.51,2.51,0,0,1,2.56-2.45h9.23v-6.7h-14a5.62,5.62,0,0,0-5.75,5.48v39.44a5.39,5.39,0,0,0,2.31,4.4h0c1.21,1,4.42,2.65,17.35,6.86v-7.63Z" transform="translate(-38.19 -37.35)" style="fill:#f60"/><path d="M203.85,198.94h-7.9v55.82a72.45,72.45,0,0,0,18.49-5.29v-7.27l-10.57,3.33V198.94Z" transform="translate(-38.19 -37.35)" style="fill:#f60"/><path d="M235,205.64v-6.7H222a5.62,5.62,0,0,0-5.75,5.48v35.9c0.15,7.58,6.95,4.3,7.36,4,1.69-1.06,11.52-7.11,11.52-7.11v-8.07l-8.36,4.75c-3.23,1.86-2.62-2.35-2.62-2.35v-9.83h8.31v-6.46h-8.31v-6.16L224.11,208a2.46,2.46,0,0,1,2.51-2.4H235Z" transform="translate(-38.19 -37.35)" style="fill:#f60"/><path d="M248.07,205.64a1.2,1.2,0,0,0-1.23,1.17v1.61a1.2,1.2,0,0,0,1.23,1.17h8.49a4.27,4.27,0,0,1,4.44,4.08v5.89c-0.51,3.42-21.91,15.21-21.91,15.21l-0.05-8,9-5.09c9.18-5.19,2.21-5,2.21-5h-7a4.07,4.07,0,0,1-4.21-3.91v-9.91c0-2.17,2.08-3.94,4.64-3.94l1.41,0h15.34v6.7H248.07Z" transform="translate(-38.19 -37.35)" style="fill:#f60"/></svg>