<svg xmlns="http://www.w3.org/2000/svg" xmlns:xlink="http://www.w3.org/1999/xlink" width="512" height="512" viewBox="0 0 512 512">
    <defs>
        <path id="a" d="M95.564 53.333h320.872c23.323 0 42.23 18.872 42.23 42.231v320.872c0 23.323-18.87 42.23-42.23 42.23H95.564c-23.323 0-42.23-18.87-42.23-42.23V95.564c0-23.323 18.87-42.23 42.23-42.23z"/>
    </defs>
    <g fill="none" fill-rule="evenodd">
        <path d="M0 0h512v512H0z"/>
        <use fill="#000" xlink:href="#a"/>
        <g fill="#FFF">
            <path d="M115.766 279.004h280.467v-43.663H115.766v43.663zM256 362.514c-47.507-11.796-83.692-44.476-83.692-44.476 10.79-6.388 14.421-14.627 15.64-19.74h136.104c1.22 5.113 4.852 13.352 15.64 19.74 0 0-36.185 32.68-83.692 44.476zm0-204.556c43.215 31.778 84 29.659 84 29.659-13.225 13.274-15.427 23.866-15.689 28.43H187.69c-.26-4.564-2.464-15.156-15.687-28.43 0 0 40.783 2.119 83.998-29.659zm160 58.088h-70.303c.414-11.046 14.847-16.324 14.847-16.324v-28.445C282.043 167.04 256 128 256 128s-26.042 39.04-104.544 43.277v28.445s14.434 5.278 14.848 16.324H96v82.252h70.062c-3.997 14.18-23.958 17.773-23.958 17.773C199.294 374.624 256 384 256 384s56.706-9.376 113.896-67.929c0 0-19.961-3.594-23.958-17.773H416v-82.252z"/>
            <path d="M379.01 318.648h.97v-2.087h.778c.35-.083.72-.083 1.076 0 .386.284.587.756.516 1.224v.647h.928a.936.936 0 0 1 0-.287v-.792a1.413 1.413 0 0 0-.297-.828 1.332 1.332 0 0 0-.961-.54c.286-.029.564-.111.813-.252.37-.223.582-.622.56-1.043a1.33 1.33 0 0 0-.857-1.332 4.437 4.437 0 0 0-1.522-.183h-1.925l-.078 5.473zm2.784-2.879c-.305.054-.62.054-.928 0h-.887v-1.943h.998c.412-.025.817.054 1.191.216a.82.82 0 0 1 .368.792.83.83 0 0 1-.728.932c-.003 0-.007.003-.014.003zm2.616-3.203a4.95 4.95 0 0 0-6.956 0 4.841 4.841 0 0 0-.047 6.87 4.903 4.903 0 0 0 3.668 1.444c2.709 0 4.903-2.167 4.925-4.859a4.624 4.624 0 0 0-1.521-3.455h-.069zm-.279.468c1.566 1.764 1.358 4.423-.456 5.938a4.443 4.443 0 0 1-5.666 0 3.993 3.993 0 0 1-1.258-2.987c.007-2.325 1.96-4.203 4.352-4.192a4.415 4.415 0 0 1 3.07 1.241h-.042z"/>
        </g>
    </g>
</svg>
