<svg xmlns="http://www.w3.org/2000/svg" viewBox="0 0 4000 3252"><defs><style>.cls-1{fill:#fff;}</style></defs><title>Asset 1</title><g id="Layer_2" data-name="Layer 2"><g id="Layer_1-2" data-name="Layer 1"><path class="cls-1" d="M2,3254V2H4002V3254ZM3923.84,2104.89V1096.26h-820c1.61-30.82,10.82-57.86,27.52-82.16,33.28-48.44,80.39-72.11,138.4-74.75V575.29c-4.95-.32-9.22-.62-13.49-.87-50.23-2.92-100.52-5-150.67-8.95-71.41-5.56-142.52-14.07-213.33-25.05C2799,526,2706.83,506.84,2615.82,482c-224.15-61.2-431.6-156.76-616.25-299.3-1.79-1.38-3.84-2.43-6.16-3.88-3.93,2.95-7.64,5.71-11.33,8.5-80.94,61.34-166.5,115.3-257.33,160.82-186.87,93.64-385.18,151.07-590.56,185.73-48.26,8.14-96.81,14.77-145.4,20.59-46.3,5.54-92.77,9.79-139.26,13.36C808.34,571,767,572.4,725.76,574.63c-2.93.15-5.85.62-9.1,1V939.52c43.59,1.46,82,15.49,113.7,45.22,31.92,29.88,49.57,66.65,52.69,111.52H176q-58.78,0-117.38,0c-2.12,19.35-1.24,1000.86.93,1008.57H671.26c25.33,0,50.66-.11,76,0,25.52.14,51.06-.62,76.91.49a56.21,56.21,0,0,1,.29,6.86,107.67,107.67,0,0,1-1.48,11.88c-5.13,25.79-18.51,46.85-37.56,64.53C765,2207.53,741,2220.24,715.24,2230c-33.21,12.6-67.76,19.56-102.87,24.09-2.72.35-5.42,1-9.93,1.83,6.14,5.62,10.7,9.92,15.39,14.08,79.4,70.27,161.26,137.57,244.52,203.18,150.34,118.47,304.83,231.15,466.68,333.51,101.17,64,204.74,123.68,313.52,173.95,73.6,34,148.82,63.61,228,82.14,42.63,10,85.68,16.25,129.63,15.59,53.07-.79,104.54-11.07,155.33-25.46,81.7-23.16,159.4-56.44,235.4-93.89,107.15-52.8,209.65-113.7,309.81-178.62,169.65-110,332-230,488.94-357.3,63.67-51.63,125.55-105.45,188.22-158.31,2.9-2.44,5.53-5.21,9.45-8.94-4.15-.8-6.33-1.36-8.55-1.62-27.5-3.31-54.66-8.31-81.22-16.2-31.21-9.28-60.81-21.9-86.31-42.71-16.8-13.71-30.18-30.11-38.33-50.38-5-12.4-8.26-25.21-7.31-40.05Z" transform="translate(-2 -2)"/><path d="M3923.84,2104.89H3165.61c-1,14.84,2.32,27.65,7.31,40.05,8.15,20.27,21.53,36.67,38.33,50.38,25.5,20.81,55.1,33.43,86.31,42.71,26.56,7.89,53.72,12.89,81.22,16.2,2.22.26,4.4.82,8.55,1.62-3.92,3.73-6.55,6.5-9.45,8.94-62.67,52.86-124.55,106.68-188.22,158.31-157,127.28-319.29,247.34-488.94,357.3-100.16,64.92-202.66,125.82-309.81,178.62-76,37.45-153.7,70.73-235.4,93.89-50.79,14.39-102.26,24.67-155.33,25.46-44,.66-87-5.61-129.63-15.59-79.18-18.53-154.4-48.12-228-82.14-108.78-50.27-212.35-110-313.52-173.95-161.85-102.36-316.34-215-466.68-333.51-83.26-65.61-165.12-132.91-244.52-203.18-4.69-4.16-9.25-8.46-15.39-14.08,4.51-.84,7.21-1.48,9.93-1.83,35.11-4.53,69.66-11.49,102.87-24.09,25.74-9.76,49.8-22.47,70.17-41.36,19.05-17.68,32.43-38.74,37.56-64.53a107.67,107.67,0,0,0,1.48-11.88,56.21,56.21,0,0,0-.29-6.86c-25.85-1.11-51.39-.35-76.91-.49-25.33-.14-50.66,0-76,0H59.55c-2.17-7.71-3-989.22-.93-1008.57q58.5-.06,117.38,0H883.05c-3.12-44.87-20.77-81.64-52.69-111.52C798.62,955,760.25,941,716.66,939.52V575.6c3.25-.35,6.17-.82,9.1-1,41.26-2.23,82.58-3.66,123.77-6.82,46.49-3.57,93-7.82,139.26-13.36,48.59-5.82,97.14-12.45,145.4-20.59,205.38-34.66,403.69-92.09,590.56-185.73,90.83-45.52,176.39-99.48,257.33-160.82,3.69-2.79,7.4-5.55,11.33-8.5,2.32,1.45,4.37,2.5,6.16,3.88,184.65,142.54,392.1,238.1,616.25,299.3,91,24.85,183.22,44,276.44,58.43,70.81,11,141.92,19.49,213.33,25.05,50.15,3.9,100.44,6,150.67,8.95,4.27.25,8.54.55,13.49.87V939.35c-58,2.64-105.12,26.31-138.4,74.75-16.7,24.3-25.91,51.34-27.52,82.16h820Zm-82-910.62H144.67c-1.94,14.84-1.29,817.8.6,825.1H3841.85ZM3185.94,650.45c-2.53-.29-4.13-.52-5.75-.65-50.83-3.85-101.7-7.25-152.48-11.64-67.39-5.83-134.39-14.9-201.15-25.83-96.72-15.84-192.27-36.81-286.37-64.28C2429,515.59,2321.26,474.15,2218,421.41c-74.63-38.11-145.71-82-214.26-130.16-3.21-2.25-6.51-4.37-10-6.69-4.34,3.16-8.1,5.87-11.84,8.61A1517.39,1517.39,0,0,1,1748.5,433.83c-143.32,69.81-294,118-449.37,152.09-63.46,13.91-127.29,25.91-191.71,34.39-53.16,7-106.38,13.74-159.73,19-46.41,4.6-93,7-139.55,10.42-2.52.18-5,.76-7.54,1.16V877c98.56,40.47,156.4,110.94,164.54,218.39,14.85,1.94,74.15,1.27,80.9-.85a28.91,28.91,0,0,0,.32-3c0-2.34,0-4.67-.14-7A302.5,302.5,0,0,0,1023,982.8c-27-64.14-71.2-113.61-129.84-150.38-6.87-4.31-9.14-8.9-9-16.73.4-26.66.06-53.33,0-80V724c11.95-1.28,23.14-2.38,34.3-3.68,53.27-6.23,106.63-11.74,159.75-19q117.35-15.93,233.06-41.4c125.14-27.34,248-62.38,367.2-109.58,109.72-43.45,214.7-95.88,311-164.69a38,38,0,0,1,5.15-2.67c3.12,2,5.93,3.79,8.69,5.65a1536.38,1536.38,0,0,0,168.49,97.73c183.54,92,377.52,152.72,578.66,191.37,54.58,10.5,109.6,19,164.67,26.6,47.82,6.61,96,10.75,144,15.82,14.14,1.5,28.34,2.47,42.9,3.71v103c-47.73,28.71-87.32,65.66-116.41,113.28s-44,99.22-45.49,155.32h81.5c8.53-108,65.95-178.4,164.35-218.62Zm-132,1650a45.72,45.72,0,0,1-3.36,3.84c-12.78,11.2-25.35,22.67-38.45,33.49a4543.25,4543.25,0,0,1-477.65,345.38C2443.9,2740,2351,2792.93,2253.17,2836.73c-61.52,27.55-124.34,51.39-190.85,64.18-37.9,7.29-75.91,9.18-114.32,3.65-40.41-5.81-79.52-16.44-118-29.76-73.55-25.49-143.46-59.09-211.9-95.87-108.74-58.43-212.7-124.64-314.18-194.78-116.3-80.39-229.51-164.88-337.65-256-10.17-8.57-20-17.54-30.35-26.64,1.81-1.67,2.89-2.87,4.17-3.81,34.1-25.24,56.45-58.84,70.33-98.53,9.63-27.53,14.58-56,17.66-84.9a86,86,0,0,0,0-8.82H936.06c-1.41,8-2.71,15.46-4.07,22.95-8.81,48.44-31.57,88.72-70,119.86a288.35,288.35,0,0,1-58.46,36.28c-3.18,1.51-6.22,3.29-10,5.3,2.92,3.12,5.08,5.58,7.4,7.88,35.76,35.46,73.43,68.84,112.1,101.06,160.86,134,331.67,254.06,510.79,362.31,95.6,57.76,193.53,111.2,296.07,155.8,64.24,27.94,129.7,52.32,198.64,66.24,43.51,8.78,87.09,10.7,131.1,3.47,43.56-7.16,85.76-19.11,127.29-33.7,84.45-29.66,165.15-67.76,243.81-110.14,232.82-125.45,450-274.08,654-442.26,39.61-32.67,77.92-66.83,114.49-102.9,2.44-2.41,4.66-5.05,6.58-7.15-17.75-10.32-35-19.21-51-29.87-45.36-30.13-74.4-71.76-85.4-125.46-2-9.74-3.72-19.54-5.61-29.5h-92c0,3-.2,5.34,0,7.61,2.47,24.9,6.61,49.48,13.73,73.53,13.33,45.07,36.72,83.31,75.1,111.48C3051.63,2299,3052.78,2299.63,3054,2300.4ZM1819.53,833.56q0-55.48,0-111c0-21.33.17-42.66,0-64-.29-29.82-18.08-51-47.36-57.09-14.84-3.1-29.24-1.44-43.19,3.85q-78.47,29.72-156.78,59.81c-24.72,9.48-40.47,27.39-48.09,52.55-4.48,14.78-6.19,30-6.18,45.37q.07,99.48,0,198.94c0,17.33-.21,34.66.06,52,.55,35.67,22.82,65.59,56.68,76.69,12.48,4.09,25.3,5.56,38.38,5.55,38.32,0,76.64.1,115-.12a117.86,117.86,0,0,0,23.8-2.27c34.45-7.4,57.16-27.51,64.64-62.65a146,146,0,0,0,3-29.73C1819.67,945.53,1819.53,889.55,1819.53,833.56Zm362.37.56q0,35,0,70c0,35.65-.32,71.32.33,107,.44,23.72,7.5,45.35,25.48,62.07,16.92,15.73,37.57,22.3,60.25,23,14,.41,28,.18,42,.15,29.66,0,59.34.67,89-.44,51.49-1.94,84.8-37.09,84.85-88.32.08-80.31.19-160.62-.15-240.93a210.28,210.28,0,0,0-3.81-38.69c-5.74-29.84-22-51.79-51.08-62.92q-77.86-29.87-155.85-59.45a82.84,82.84,0,0,0-33.29-5.42c-29.08,1.26-52,20.13-56.73,47.16-1,5.53-.9,11.28-.9,16.93Q2181.85,749.15,2181.9,834.12Zm-950.13,261.77V1020c0-12.66-.14-25.32,0-38,.17-12.3-.79-24.67,1.29-37,24.37,49.49,47.27,99.43,72,150.88,23-53.48,45.09-104.65,67.13-155.82l2.36.42v155.09h89.16V698.93c-3.53.72-6.47,1.18-9.34,1.92-20.94,5.43-41.76,11.36-62.85,16.15-8.48,1.93-12.66,6.13-16,14-22.78,53.62-46.08,107-69.24,160.48-1.11,2.56-2.53,5-4.56,8.93l-70.33-149-88.51,16c-2,14.46-1.37,321.3.67,328.57Zm740.55,1653.54c-4-2-7.52-3.68-11-5.47-30.57-15.56-61-31.41-91.76-46.59-15.49-7.64-21.36-20-21.23-36.39,0-2.66,0-5.33,0-8q0-195.48,0-391c0-4-.13-8,.18-12,1-12.64,2-25.3,7.73-36.93,4.73-9.65,9-11.62,19.81-11.24,23.64.85,47.28,1.4,70.93,1.85a65.45,65.45,0,0,0,20.35-2.4v-95.71c-2.88-.28-5.15-.69-7.43-.7-40.33,0-80.66-.17-121,.15a39.2,39.2,0,0,0-16.28,3.9,165.93,165.93,0,0,0-54.74,42.76c-9.35,11.09-13.84,23.51-13.81,38.47q.46,258.49.2,517c0,2.67-.14,5.35.07,8,1.92,23.78,11.66,42.82,33.31,54.56,4.39,2.39,8.69,5,13.23,7q82.77,37.62,165.62,75c1.62.73,3.54.81,5.86,1.3Zm677.6-1653.54V991.08a37.49,37.49,0,0,1,4.78-.74c27-.05,54-.5,81,.24,7.34.2,15.06,3,21.76,6.33,12.28,6.09,18.7,16.26,18.39,30.62-.43,19.33-.13,38.67-.09,58,0,3.24.33,6.47.53,10.13h89.24v-11.32c0-24-.32-48,.13-72a56,56,0,0,0-11.17-35.52c-5.71-7.69-12.36-14.67-18.76-22.17a19.92,19.92,0,0,1,2.67-2c17.27-9.61,26.06-24.48,26.4-44,.44-25.65.87-51.32.3-77-.57-25.95-13.39-45.52-34.52-59.91-16.21-11-34.24-17.84-53.3-21.83q-91.92-19.21-183.9-38.08c-10.71-2.21-21.43-4.33-32.14-6.5-2.12,11-1.74,382.92.33,390.56ZM2239,2661.43l-100.6,40.45v-596.3H2036.06v691.3c0,3.33-.43,6.75.16,10,.88,4.85,1.74,9.95,3.91,14.29,5.37,10.79,15,14,26,9.07,55.32-24.72,110.56-49.62,166-74.16,5.89-2.61,7.59-6,7.52-12.09-.28-24.65-.1-49.31-.14-74C2239.5,2667.71,2239.23,2665.42,2239,2661.43Zm605.58-555.94c-2.59-.3-3.9-.58-5.22-.59-69.29-.2-138.59-.54-207.89-.49-23.21,0-44.48,7.6-64.32,19.26-16.95,10-26.81,23.69-26.48,44.65.78,48.62.44,97.26.67,145.89.09,19.32,5.19,25.39,24,29.45a25.2,25.2,0,0,0,3.94.61c18.61,1,37.21,2.69,55.81,2.73,40.31.08,80.62-.74,120.92-1.08,3.21,0,7.2-.23,9.48,1.46,8.83,6.58,8.65,24.88-.35,31.64-13.32,10-26.74,19.91-40.68,29q-87.06,56.73-174.58,112.78c-5.45,3.5-7.72,7-7.57,13.58.44,19.31.13,38.64.2,58a76.79,76.79,0,0,0,.91,8.16c3-1.47,5.1-2.32,7-3.49q136.74-82.86,273.31-166c8.93-5.46,16.43-13.41,24.13-20.71,6.57-6.23,9.07-14.12,9-23.45-.36-34.65-.15-69.31-.15-104,0-2,0-4-.06-6,0-5-2.43-8.45-7.34-9.28a103.42,103.42,0,0,0-16.81-1.68q-91.46-.18-182.92-.08h-11.53c-5.11-8.37-4.71-17-5-25.07a349.53,349.53,0,0,1,1.06-37.87c.68-9.23,2.2-10.08,11.11-10.23,2.33,0,4.66,0,7,0h202.32ZM2163.79,665.27a61,61,0,0,0,.88-6.48c0-28.33-.13-56.65.18-85,.07-5.84-2.95-8.07-7.3-10.43q-78.18-42.36-156.2-85c-5.23-2.87-9.34-3.08-14.7-.16q-74.1,40.45-148.51,80.33c-5.4,2.9-7.49,6.31-7.42,12.44.29,27,.1,54,.17,81a84.6,84.6,0,0,0,1,8.57l117.43-63.85V985.11c0,18.66-.06,37.32,0,56,.07,18.16-.31,36.33.27,54.49h96.71V767.23q0-41,0-82c0-27.07,0-54.14.08-82.92Zm332.8,1439.58h-11.48c-53.33,0-106.66.55-160-.25-23.76-.36-41.94,12.63-41.78,41.45.83,144.64.38,289.29.38,433.94q0,55,0,110c0,12.57,4.91,18.83,16.95,22.49,10.6,3.22,20.31.77,29.87-4q70.65-35.22,141.35-70.33c2.65-1.31,5.17-2.86,7.37-4.09v-82.47L2364.57,2605V2417h94.22v-78h-94c-2-17.33-1.22-129.72,1-137.59h130.76Zm-1071.41.64c1.62,4.74,2.65,7.89,3.77,11q44.11,122.09,88.17,244.2c1.56,4.31,3,9,2.94,13.49,0,35-.66,70-.69,104.93,0,54,.3,107.92.27,161.88,0,7.27,2.17,12.8,8.06,17.18,20.71,15.4,42.91,28,67.38,36.4,3.89,1.33,8.21,1.38,13.42,2.19.26-5.62.63-9.85.63-14.07q0-149.93-.06-299.85a44,44,0,0,1,4.23-19.21q57.66-123.54,115-247.23c1.49-3.21,2.88-6.47,4.84-10.88-4.59-.28-7.79-.64-11-.65-21.66,0-43.32.33-65-.21-7.74-.2-11.8,2.24-15.4,9.2-22.88,44.4-46.28,88.52-69.53,132.73-1.57,3-3.27,5.92-5.94,10.72-16.95-52.16-33.17-102-49.35-151.82Zm-53.8.18c-2.85-.31-5.12-.78-7.38-.78q-104.51-.06-209-.08c-9,0-16.32,3.22-22.07,9.82-13.09,15-21.77,32.58-22.16,52.41-1,52.31-.9,104.64-.77,157a63.73,63.73,0,0,0,4.28,21.36,89,89,0,0,0,32,42.22c91.2,66.69,181.91,134.05,272.79,201.17,3.06,2.25,6.25,4.33,10.9,7.54v-11.95c0-23.66-.35-47.34.19-71,.18-8.17-2.3-13.27-8.87-18.3q-99.65-76.26-198.82-153.15c-9.47-7.32-14.73-16.6-14.6-29.08.31-30,.1-60,.1-90,0-2.34,0-4.68.14-7,.86-11.5,6.08-17.75,17.2-20.19a51,51,0,0,1,10.89-1.13q62.49,0,125,.2c3.23,0,6.47-.33,10.22-.53Z" transform="translate(-2 -2)"/><path class="cls-1" d="M3841.85,1194.27v825.1H145.27c-1.89-7.3-2.54-810.26-.6-825.1ZM3757.77,1270c-19.19-2.15-3519.92-1.21-3527.21.82-1.88,15.59-1.16,656.29.76,663.34,18.07,2,3518.83,1.09,3526.45-1Z" transform="translate(-2 -2)"/><path class="cls-1" d="M3185.94,650.45V876.91c-98.4,40.22-155.82,110.62-164.35,218.62h-81.5c1.47-56.1,16.42-107.74,45.49-155.32s68.68-84.57,116.41-113.28v-103c-14.56-1.24-28.76-2.21-42.9-3.71-48-5.07-96.2-9.21-144-15.82-55.07-7.61-110.09-16.1-164.67-26.6-201.14-38.65-395.12-99.34-578.66-191.37a1536.38,1536.38,0,0,1-168.49-97.73c-2.76-1.86-5.57-3.63-8.69-5.65a38,38,0,0,0-5.15,2.67c-96.3,68.81-201.28,121.24-311,164.69-119.21,47.2-242.06,82.24-367.2,109.58q-115.71,25.28-233.06,41.4c-53.12,7.22-106.48,12.73-159.75,19-11.16,1.3-22.35,2.4-34.3,3.68V735.7c.06,26.66.4,53.33,0,80-.12,7.83,2.15,12.42,9,16.73C951.76,869.19,996,918.66,1023,982.8a302.5,302.5,0,0,1,23.26,101.77c.12,2.33.14,4.66.14,7a28.91,28.91,0,0,1-.32,3c-6.75,2.12-66,2.79-80.9.85C957,987.92,899.16,917.45,800.6,877V650.93c2.53-.4,5-1,7.54-1.16,46.52-3.42,93.14-5.82,139.55-10.42,53.35-5.3,106.57-12,159.73-19,64.42-8.48,128.25-20.48,191.71-34.39,155.41-34.08,306-82.28,449.37-152.09a1517.39,1517.39,0,0,0,233.41-140.66c3.74-2.74,7.5-5.45,11.84-8.61,3.48,2.32,6.78,4.44,10,6.69,68.55,48.12,139.63,92.05,214.26,130.16,103.26,52.74,211,94.18,322.19,126.64,94.1,27.47,189.65,48.44,286.37,64.28,66.76,10.93,133.76,20,201.15,25.83,50.78,4.39,101.65,7.79,152.48,11.64C3181.81,649.93,3183.41,650.16,3185.94,650.45Z" transform="translate(-2 -2)"/><path class="cls-1" d="M3054,2300.4c-1.21-.77-2.36-1.42-3.41-2.19-38.38-28.17-61.77-66.41-75.1-111.48-7.12-24.05-11.26-48.63-13.73-73.53-.23-2.27,0-4.58,0-7.61h92c1.89,10,3.61,19.76,5.61,29.5,11,53.7,40,95.33,85.4,125.46,16,10.66,33.25,19.55,51,29.87-1.92,2.1-4.14,4.74-6.58,7.15-36.57,36.07-74.88,70.23-114.49,102.9-203.95,168.18-421.16,316.81-654,442.26-78.66,42.38-159.36,80.48-243.81,110.14-41.53,14.59-83.73,26.54-127.29,33.7-44,7.23-87.59,5.31-131.1-3.47-68.94-13.92-134.4-38.3-198.64-66.24-102.54-44.6-200.47-98-296.07-155.8-179.12-108.25-349.93-228.29-510.79-362.31-38.67-32.22-76.34-65.6-112.1-101.06-2.32-2.3-4.48-4.76-7.4-7.88,3.78-2,6.82-3.79,10-5.3A288.35,288.35,0,0,0,862,2248.23c38.44-31.14,61.2-71.42,70-119.86,1.36-7.49,2.66-15,4.07-22.95h92.09a86,86,0,0,1,0,8.82c-3.08,28.88-8,57.37-17.66,84.9-13.88,39.69-36.23,73.29-70.33,98.53-1.28.94-2.36,2.14-4.17,3.81,10.35,9.1,20.18,18.07,30.35,26.64,108.14,91.15,221.35,175.64,337.65,256,101.48,70.14,205.44,136.35,314.18,194.78,68.44,36.78,138.35,70.38,211.9,95.87,38.45,13.32,77.56,23.95,118,29.76,38.41,5.53,76.42,3.64,114.32-3.65,66.51-12.79,129.33-36.63,190.85-64.18,97.82-43.8,190.73-96.69,281.36-153.62a4543.25,4543.25,0,0,0,477.65-345.38c13.1-10.82,25.67-22.29,38.45-33.49A45.72,45.72,0,0,0,3054,2300.4Z" transform="translate(-2 -2)"/><path class="cls-1" d="M1819.53,833.56c0,56,.14,112-.14,168a146,146,0,0,1-3,29.73c-7.48,35.14-30.19,55.25-64.64,62.65a117.86,117.86,0,0,1-23.8,2.27c-38.33.22-76.65.07-115,.12-13.08,0-25.9-1.46-38.38-5.55-33.86-11.1-56.13-41-56.68-76.69-.27-17.33-.06-34.66-.06-52q0-99.46,0-198.94c0-15.42,1.7-30.59,6.18-45.37,7.62-25.16,23.37-43.07,48.09-52.55q78.33-30,156.78-59.81c14-5.29,28.35-7,43.19-3.85,29.28,6.11,47.07,27.27,47.36,57.09.21,21.32,0,42.65,0,64Q1819.54,778.07,1819.53,833.56Zm-89.8,21.63c0-39.3.06-78.59-.08-117.89a50.13,50.13,0,0,0-1.89-14.72c-2.84-9.06-11.06-13.65-20.39-12a51.29,51.29,0,0,0-9.47,3.07q-31.64,12.29-63.23,24.71c-20.23,8-26.8,17.29-26.84,39.44q-.21,100.41,0,200.82c0,17.77,8.31,26.45,26.27,26.79,23,.44,46,.39,68.93,0,16-.27,25.11-9.36,26.57-25.38.27-3,.14-6,.14-9Q1729.74,913.14,1729.73,855.19Z" transform="translate(-2 -2)"/><path class="cls-1" d="M2181.9,834.12q0-85,0-170c0-5.65-.06-11.4.9-16.93,4.72-27,27.65-45.9,56.73-47.16a82.84,82.84,0,0,1,33.29,5.42q78,29.65,155.85,59.45c29,11.13,45.34,33.08,51.08,62.92a210.28,210.28,0,0,1,3.81,38.69c.34,80.31.23,160.62.15,240.93-.05,51.23-33.36,86.38-84.85,88.32-29.62,1.11-59.3.39-89,.44-14,0-28,.26-42-.15-22.68-.67-43.33-7.24-60.25-23-18-16.72-25-38.35-25.48-62.07-.65-35.64-.28-71.31-.33-107Q2181.87,869.11,2181.9,834.12Zm89.87,20.93q0,57.45,0,114.89a100,100,0,0,0,.47,13c1.67,12.68,9.36,20.41,22,22.28a61,61,0,0,0,9,.36q29.47,0,59,0c23.94,0,31.7-7.81,31.72-31.76q0-77.43,0-154.85,0-21.48-.15-43c-.12-18.33-8.32-30.78-25.92-37.29-21.53-8-42.8-16.63-64.18-25a67.84,67.84,0,0,0-6.57-2.38c-12.58-3.52-22.84,3-24.81,15.85a80.92,80.92,0,0,0-.47,12Q2271.75,797.11,2271.77,855.05Z" transform="translate(-2 -2)"/><path class="cls-1" d="M1231.77,1095.89h-88.18c-2-7.27-2.71-314.11-.67-328.57l88.51-16,70.33,149c2-4,3.45-6.37,4.56-8.93,23.16-53.46,46.46-106.86,69.24-160.48,3.32-7.82,7.5-12,16-14,21.09-4.79,41.91-10.72,62.85-16.15,2.87-.74,5.81-1.2,9.34-1.92v396.65h-89.16V940.49l-2.36-.42c-22,51.17-44.09,102.34-67.13,155.82-24.71-51.45-47.61-101.39-72-150.88-2.08,12.33-1.12,24.7-1.29,37-.18,12.66,0,25.32,0,38v75.9Z" transform="translate(-2 -2)"/><path class="cls-1" d="M1972.32,2749.43v103.63c-2.32-.49-4.24-.57-5.86-1.3q-82.85-37.44-165.62-75c-4.54-2.06-8.84-4.64-13.23-7-21.65-11.74-31.39-30.78-33.31-54.56-.21-2.65-.07-5.33-.07-8q0-258.48-.2-517c0-15,4.46-27.38,13.81-38.47a165.93,165.93,0,0,1,54.74-42.76,39.2,39.2,0,0,1,16.28-3.9c40.33-.32,80.66-.18,121-.15,2.28,0,4.55.42,7.43.7v95.71a65.45,65.45,0,0,1-20.35,2.4c-23.65-.45-47.29-1-70.93-1.85-10.79-.38-15.08,1.59-19.81,11.24-5.7,11.63-6.76,24.29-7.73,36.93-.31,4-.18,8-.18,12q0,195.49,0,391c0,2.67,0,5.34,0,8-.13,16.34,5.74,28.75,21.23,36.39,30.76,15.18,61.19,31,91.76,46.59C1964.8,2745.75,1968.36,2747.47,1972.32,2749.43Z" transform="translate(-2 -2)"/><path class="cls-1" d="M2649.92,1095.89h-88.36c-2.07-7.64-2.45-379.57-.33-390.56,10.71,2.17,21.43,4.29,32.14,6.5q92,19,183.9,38.08c19.06,4,37.09,10.79,53.3,21.83,21.13,14.39,33.95,34,34.52,59.91.57,25.64.14,51.31-.3,77-.34,19.55-9.13,34.42-26.4,44a19.92,19.92,0,0,0-2.67,2c6.4,7.5,13.05,14.48,18.76,22.17a56,56,0,0,1,11.17,35.52c-.45,24-.13,48-.13,72v11.32h-89.24c-.2-3.66-.52-6.89-.53-10.13,0-19.33-.34-38.67.09-58,.31-14.36-6.11-24.53-18.39-30.62-6.7-3.32-14.42-6.13-21.76-6.33-27-.74-54-.29-81-.24a37.49,37.49,0,0,0-4.78.74Zm.41-196c1.38.59,2,1.07,2.57,1.07,34.32.1,68.64.35,103,.11,10.35-.07,15.73-5.11,18.08-15.37,2.64-11.51,2.41-23.11.4-34.73-1.87-10.75-7.81-17.23-18.72-19.26s-21.53-4.42-32.29-6.62c-24.11-4.93-48.22-9.83-73-14.88Z" transform="translate(-2 -2)"/><path class="cls-1" d="M2239,2661.43c.26,4,.53,6.28.53,8.57,0,24.66-.14,49.32.14,74,.07,6.09-1.63,9.48-7.52,12.09-55.41,24.54-110.65,49.44-166,74.16-11,4.92-20.65,1.72-26-9.07-2.17-4.34-3-9.44-3.91-14.29-.59-3.23-.16-6.65-.16-10v-691.3h102.31v596.3Z" transform="translate(-2 -2)"/><path class="cls-1" d="M2844.55,2105.49v87.23H2642.23c-2.33,0-4.66,0-7,0-8.91.15-10.43,1-11.11,10.23a349.53,349.53,0,0,0-1.06,37.87c.28,8.1-.12,16.7,5,25.07h11.53q91.45,0,182.92.08a103.42,103.42,0,0,1,16.81,1.68c4.91.83,7.3,4.27,7.34,9.28,0,2,.06,4,.06,6,0,34.65-.21,69.31.15,104,.09,9.33-2.41,17.22-9,23.45-7.7,7.3-15.2,15.25-24.13,20.71q-136.41,83.38-273.31,166c-1.92,1.17-4,2-7,3.49a76.79,76.79,0,0,1-.91-8.16c-.07-19.33.24-38.66-.2-58-.15-6.55,2.12-10.08,7.57-13.58q87.49-56.09,174.58-112.78c13.94-9.08,27.36-19,40.68-29,9-6.76,9.18-25.06.35-31.64-2.28-1.69-6.27-1.48-9.48-1.46-40.3.34-80.61,1.16-120.92,1.08-18.6,0-37.2-1.75-55.81-2.73a25.2,25.2,0,0,1-3.94-.61c-18.85-4.06-23.95-10.13-24-29.45-.23-48.63.11-97.27-.67-145.89-.33-21,9.53-34.68,26.48-44.65,19.84-11.66,41.11-19.24,64.32-19.26,69.3,0,138.6.29,207.89.49C2840.65,2104.91,2842,2105.19,2844.55,2105.49Z" transform="translate(-2 -2)"/><path class="cls-1" d="M2163.79,665.27l-117.43-62.93c0,28.78-.07,55.85-.08,82.92q0,41,0,82v328.35h-96.71c-.58-18.16-.2-36.33-.27-54.49-.07-18.66,0-37.32,0-56V596.67l-117.43,63.85a84.6,84.6,0,0,1-1-8.57c-.07-27,.12-54-.17-81-.07-6.13,2-9.54,7.42-12.44q74.4-39.88,148.51-80.33c5.36-2.92,9.47-2.71,14.7.16q78,42.74,156.2,85c4.35,2.36,7.37,4.59,7.3,10.43-.31,28.32-.14,56.64-.18,85A61,61,0,0,1,2163.79,665.27Z" transform="translate(-2 -2)"/><path class="cls-1" d="M2496.59,2104.85v96.54H2365.83c-2.26,7.87-3,120.26-1,137.59h94v78h-94.22V2605l114.72-53.46V2634c-2.2,1.23-4.72,2.78-7.37,4.09q-70.66,35.17-141.35,70.33c-9.56,4.77-19.27,7.22-29.87,4-12-3.66-16.93-9.92-16.95-22.49q-.08-55,0-110c0-144.65.45-289.3-.38-433.94-.16-28.82,18-41.81,41.78-41.45,53.32.8,106.65.25,160,.25Z" transform="translate(-2 -2)"/><path class="cls-1" d="M1425.18,2105.49H1517c16.18,49.78,32.4,99.66,49.35,151.82,2.67-4.8,4.37-7.73,5.94-10.72,23.25-44.21,46.65-88.33,69.53-132.73,3.6-7,7.66-9.4,15.4-9.2,21.64.54,43.3.16,65,.21,3.19,0,6.39.37,11,.65-2,4.41-3.35,7.67-4.84,10.88q-57.45,123.64-115,247.23a44,44,0,0,0-4.23,19.21q.18,149.92.06,299.85c0,4.22-.37,8.45-.63,14.07-5.21-.81-9.53-.86-13.42-2.19-24.47-8.36-46.67-21-67.38-36.4-5.89-4.38-8.07-9.91-8.06-17.18,0-54-.32-107.92-.27-161.88,0-35,.65-70,.69-104.93,0-4.5-1.38-9.18-2.94-13.49q-44-122.14-88.17-244.2C1427.83,2113.38,1426.8,2110.23,1425.18,2105.49Z" transform="translate(-2 -2)"/><path class="cls-1" d="M1371.38,2105.67v88.5c-3.75.2-7,.53-10.22.53q-62.49-.09-125-.2a51,51,0,0,0-10.89,1.13c-11.12,2.44-16.34,8.69-17.2,20.19-.17,2.32-.14,4.66-.14,7,0,30,.21,60-.1,90-.13,12.48,5.13,21.76,14.6,29.08q99.33,76.7,198.82,153.15c6.57,5,9,10.13,8.87,18.3-.54,23.65-.19,47.33-.19,71v11.95c-4.65-3.21-7.84-5.29-10.9-7.54-90.88-67.12-181.59-134.48-272.79-201.17a89,89,0,0,1-32-42.22A63.73,63.73,0,0,1,1110,2324c-.13-52.32-.25-104.65.77-157,.39-19.83,9.07-37.39,22.16-52.41,5.75-6.6,13.09-9.83,22.07-9.82q104.49.14,209,.08C1366.26,2104.89,1368.53,2105.36,1371.38,2105.67Z" transform="translate(-2 -2)"/><path d="M3757.77,1270v663.13c-7.62,2.12-3508.38,3.06-3526.45,1-1.92-7.05-2.64-647.75-.76-663.34C237.85,1268.77,3738.58,1267.83,3757.77,1270Zm-251.9,301.49c21.94,95,41.31,190.36,61.64,285,22.44,1.82,86.67,1.07,94-1,2.05-17.2,1.14-509.23-1.18-517-25.21.09-50.64-.3-76.7.23v254.85c-18.59-84.74-34.3-169.93-51.16-254.43-22.36-1.9-96.8-1.12-104.33,1v516.23h77.72ZM847,1857.21c26.34-.36,51.47.53,77.66-.6V1642.38c15.11-.23,29,.49,42.34,5.18,11.1,3.89,17.56,11.77,19.15,23.39a119.41,119.41,0,0,1,1.11,15.92q.1,79,.07,158c0,3.84.35,7.69.54,11.72H1064c.29-2.83.73-5.1.73-7.37q.06-98,0-196a63.08,63.08,0,0,0-13.8-39.84c-4.49-5.74-9.9-10.76-14.9-16.11l-5.23-5.59c17.51-17.77,23.85-26.77,28.27-43.48,2.54-9.6,4.75-19.6,4.93-29.46q.93-52.46.1-105c-.15-9.85-2.24-19.9-5-29.41-6-20.76-19.85-34.78-40.74-40.18a165.27,165.27,0,0,0-38.4-5.47c-41.32-.67-82.65-.26-124-.22-2.87,0-5.74.46-9,.74Zm2548.8-259.44q0-90.94,0-181.88c0-22.19-6.57-42-22.75-57.87a91.09,91.09,0,0,0-35.74-21.32c-33.24-11-66.74-11.64-100.15-.94-40.24,12.89-60.54,40.55-60.58,82.66q-.18,179.37.07,358.76a111.64,111.64,0,0,0,2.5,23.77c6.4,29,25.46,47,52.4,56.86,35.33,12.92,71.2,13,106.69.59,38.74-13.52,57.57-40.77,57.58-81.75Q3395.81,1687.21,3395.77,1597.77ZM1875,1856.56c3.73.22,7,.55,10.19.57,14.33.06,28.66.12,43,0,22.66-.18,45.36.39,68-1,36.25-2.15,64.71-25.17,76.08-59.72,4.11-12.48,5.55-25.31,5.54-38.39q0-150,0-299.94c0-4.66,0-9.33-.29-14-1-16.63-2.38-33.2-7.42-49.26-8.49-27-26.07-44.76-53.81-50.94a217.46,217.46,0,0,0-41.5-5.21c-30.31-.77-60.65-.26-91-.2-2.85,0-5.7.49-8.73.77Zm-1532.68-.86c9.67,2.18,69.16,2,77.83-.48v-220.5h61.1v12.11q0,99,0,198c0,3.84.33,7.69.52,11.72h75.93V1339.07h-76.5v206.11H419.77V1407.64c0-11.67.13-23.33,0-35-.16-11.15.77-22.37-.68-34.08-26.2,0-51.34-.41-76.7.23Zm2345.76,1.45h12c19.33,0,38.66.11,58,0,17.32-.12,34.73.5,51.94-1,33.61-2.95,57.87-20.21,72-51.08,6.19-13.53,8.51-27.9,8.5-42.77-.07-103,.15-205.93-.23-308.89a260.33,260.33,0,0,0-4.49-47.61c-7.15-37.33-28.35-57.47-65.93-64a201.72,201.72,0,0,0-31.76-3.13c-30.65-.41-61.31-.16-92-.11-2.56,0-5.11.51-8,.81Zm454.48-343.32a24.5,24.5,0,0,0,.84-4.28c.05-32.65.57-65.32-.11-98-.52-24.94-10.1-46.31-31-60.86A118.54,118.54,0,0,0,3083,1336c-28.76-9.76-58.23-10.33-87.67-3.07-38.15,9.39-70.85,33.83-69.45,89.06.84,33.3.52,66.65,0,100-.33,22.19,6.54,41.54,21.6,57.37,10.5,11,22.29,21,34.2,30.54,12.2,9.79,25.59,18.09,37.82,27.85a276.21,276.21,0,0,1,28.75,26.16c9.56,10.12,15.9,22.39,16.11,36.74.31,21,.7,42-.13,62.94-.76,19.47-12,28.69-31.52,27.64a64.45,64.45,0,0,1-7.92-1.1c-9.9-1.83-16.07-7.92-18.37-17.48a69.54,69.54,0,0,1-1.67-15.84c-.16-26-.08-52-.08-78v-10.35c-14-2.06-69.6-1.54-76.92.55a30.37,30.37,0,0,0-.46,3.8c0,37.32-.61,74.65.17,112,.75,35.93,19.53,60.32,52.62,72.85,36.63,13.86,73.87,13.44,110.36-.75,34.26-13.33,51.7-39.9,51.76-76.56.08-40.66-.12-81.31.13-122a45.29,45.29,0,0,0-7.68-26.4c-4.28-6.32-8.72-12.74-14.12-18.06-11.14-11-22.65-21.63-34.59-31.72-16.8-14.18-34.39-27.43-51.12-41.69-8.58-7.31-16.29-15.7-23.88-24.06-5.3-5.84-7.56-13-7.15-21.2.44-8.65.09-17.33.1-26,0-10.66-.26-21.34.19-32,.46-11,4.49-20.21,15.52-24.66,24.95-10.09,45.54,3.32,46.21,30,0,1.67,0,3.33,0,5q0,28,0,56c0,3.25.28,6.5.46,10.3ZM643.12,1339.07c-4.35,17.51-59.8,509.55-58.31,517.44h68.28c5.36-45,10.66-89.44,16-133.91h56.82q7,67.37,13.79,133.63c18.12,2.15,70.8,1.34,78.11-1.2q-29.52-257.71-59.09-516Zm1690.22,517.54c-19.83-173.26-39.51-345.21-59.24-517.57H2157.54c-19.75,172.61-39.45,344.79-59.23,517.62h70.15c5.35-44.78,10.66-89.26,16-133.85h56.89c4.62,44.9,9.16,89.15,13.75,133.8Zm93.72-215.6-2.22,0c-12.45-100.64-24.15-201.37-36.84-302.56-26.77.07-52.22-.23-78.93.21,24.41,173.54,48.61,345.57,72.76,517.28,11.9,1.94,79.2,1.53,87.25-.56q36.21-257.49,72.68-516.85c-26.69-.14-52.1-.12-78.14,0C2451.32,1440.29,2439.19,1540.65,2427.06,1641Zm-978.22-95h-26.72c-8.66,0-17.33.23-26-.06-8.49-.28-17.12,1.32-25.45-1V1419.83h81.74v-80.7H1292.8v516.65c10.55,2.17,153.37,1.83,160.73-.27v-80.43h-82.08c-2.07-11-1.76-138.72.39-147.08h77Zm28.81-207.16c.73,3.53,1.11,5.77,1.65,8,23.81,97,47.47,194,71.59,291a206.34,206.34,0,0,1,6.55,52.24c-.47,51.32-.16,102.65-.16,154v12.38h77.16v-12.6q0-87,.09-174a81.62,81.62,0,0,1,2-17.75c3.24-14.28,7-28.44,10.58-42.65q32.76-131.82,65.47-263.66a63.4,63.4,0,0,0,.89-6.88h-71.44q-21.16,88.61-42.25,176.82l-1.85-.14q-20.48-88.3-41-176.68Zm-290.24,436.4V1339.16h-76.88V1856.4h155v-81.1Zm1453.46,81.13V1338.91h-76.39v517.52Zm-949.8-228.6h140.62v-63.9H1691.07Z" transform="translate(-2 -2)"/><path d="M1729.73,855.19q0,57.94,0,115.89c0,3,.13,6-.14,9-1.46,16-10.56,25.11-26.57,25.38-23,.38-46,.43-68.93,0-18-.34-26.24-9-26.27-26.79q-.13-100.41,0-200.82c0-22.15,6.61-31.48,26.84-39.44q31.59-12.43,63.23-24.71a51.29,51.29,0,0,1,9.47-3.07c9.33-1.68,17.55,2.91,20.39,12a50.13,50.13,0,0,1,1.89,14.72C1729.79,776.6,1729.73,815.89,1729.73,855.19Z" transform="translate(-2 -2)"/><path d="M2271.77,855.05q0-57.94,0-115.89a80.92,80.92,0,0,1,.47-12c2-12.89,12.23-19.37,24.81-15.85a67.84,67.84,0,0,1,6.57,2.38c21.38,8.35,42.65,17,64.18,25,17.6,6.51,25.8,19,25.92,37.29q.15,21.48.15,43,0,77.41,0,154.85c0,24-7.78,31.71-31.72,31.76q-29.48.06-59,0a61,61,0,0,1-9-.36c-12.63-1.87-20.32-9.6-22-22.28a100,100,0,0,1-.47-13Q2271.75,912.49,2271.77,855.05Z" transform="translate(-2 -2)"/><path d="M2650.33,899.94V810.26c24.78,5,48.89,10,73,14.88,10.76,2.2,21.49,4.61,32.29,6.62s16.85,8.51,18.72,19.26c2,11.62,2.24,23.22-.4,34.73-2.35,10.26-7.73,15.3-18.08,15.37-34.32.24-68.64,0-103-.11C2652.31,901,2651.71,900.53,2650.33,899.94Z" transform="translate(-2 -2)"/><path class="cls-1" d="M3505.87,1571.47v285h-77.72V1340.19c7.53-2.15,82-2.93,104.33-1,16.86,84.5,32.57,169.69,51.16,254.43V1338.74c26.06-.53,51.49-.14,76.7-.23,2.32,7.82,3.23,499.85,1.18,517.05-7.34,2-71.57,2.77-94,1C3547.18,1761.83,3527.81,1666.48,3505.87,1571.47Z" transform="translate(-2 -2)"/><path class="cls-1" d="M847,1857.21v-518c3.29-.28,6.16-.73,9-.74,41.33,0,82.66-.45,124,.22a165.27,165.27,0,0,1,38.4,5.47c20.89,5.4,34.76,19.42,40.74,40.18,2.74,9.51,4.83,19.56,5,29.41q.84,52.47-.1,105c-.18,9.86-2.39,19.86-4.93,29.46-4.42,16.71-10.76,25.71-28.27,43.48l5.23,5.59c5,5.35,10.41,10.37,14.9,16.11a63.08,63.08,0,0,1,13.8,39.84q-.06,98,0,196c0,2.27-.44,4.54-.73,7.37H987.84c-.19-4-.54-7.88-.54-11.72q-.06-79-.07-158a119.41,119.41,0,0,0-1.11-15.92c-1.59-11.62-8-19.5-19.15-23.39-13.39-4.69-27.23-5.41-42.34-5.18v214.23C898.44,1857.74,873.31,1856.85,847,1857.21Zm77.89-295.62c11.38,0,22,.71,32.51-.2,10.71-.92,19-7.05,22.43-17.33a78.93,78.93,0,0,0,4.23-23.3c.51-25.94.21-51.89.17-77.83a54.48,54.48,0,0,0-.55-9c-2.09-12.5-10.74-22.34-22.61-23.39s-23.73-.23-36.18-.23Z" transform="translate(-2 -2)"/><path class="cls-1" d="M3395.77,1597.77q0,89.43,0,178.88c0,41-18.84,68.23-57.58,81.75-35.49,12.38-71.36,12.33-106.69-.59-26.94-9.84-46-27.88-52.4-56.86a111.64,111.64,0,0,1-2.5-23.77q-.24-179.39-.07-358.76c0-42.11,20.34-69.77,60.58-82.66,33.41-10.7,66.91-10.06,100.15.94A91.09,91.09,0,0,1,3373,1358c16.18,15.88,22.71,35.68,22.75,57.87Q3395.88,1506.82,3395.77,1597.77Zm-77.87-1.24q0-74.49,0-149a97.73,97.73,0,0,0-.21-10c-1.55-14.82-10.32-23.73-25.08-25.19a62.06,62.06,0,0,0-14,.12c-12.88,1.63-20.49,8.64-23.13,21.32a68.5,68.5,0,0,0-1.19,13.88q-.09,148.47,0,297a85.12,85.12,0,0,0,.3,10c2,16.54,11.06,24.9,27.67,25.76,25.16,1.31,35.62-8.6,35.64-33.88Q3317.94,1671.51,3317.9,1596.53Z" transform="translate(-2 -2)"/><path class="cls-1" d="M1875,1856.56V1339.29c3-.28,5.88-.77,8.73-.77,30.33-.06,60.67-.57,91,.2a217.46,217.46,0,0,1,41.5,5.21c27.74,6.18,45.32,23.91,53.81,50.94,5,16.06,6.4,32.63,7.42,49.26.29,4.66.29,9.33.29,14q0,150,0,299.94c0,13.08-1.43,25.91-5.54,38.39-11.37,34.55-39.83,57.57-76.08,59.72-22.59,1.35-45.29.78-68,1-14.33.12-28.66.06-43,0C1882,1857.11,1878.76,1856.78,1875,1856.56Zm77.65-81.92c9.56,0,18.17.4,26.73-.1,10.38-.6,16.35-7,18.34-16.81a96,96,0,0,0,2.06-18.8q.18-141.4,0-282.81a93,93,0,0,0-2.17-18.79c-1.87-9-7.37-15.28-16.78-16.07-9.14-.77-18.39-.17-28.17-.17Z" transform="translate(-2 -2)"/><path class="cls-1" d="M342.35,1855.7V1338.8c25.36-.64,50.5-.24,76.7-.23,1.45,11.71.52,22.93.68,34.08.17,11.66,0,23.32,0,35v137.54h61.48V1339.07h76.5v517.45H481.82c-.19-4-.52-7.88-.52-11.72q0-99,0-198v-12.11h-61.1v220.5C411.51,1857.66,352,1857.88,342.35,1855.7Z" transform="translate(-2 -2)"/><path class="cls-1" d="M2688.11,1857.15V1339.33c2.87-.3,5.42-.81,8-.81,30.66,0,61.32-.3,92,.11a201.72,201.72,0,0,1,31.76,3.13c37.58,6.54,58.78,26.68,65.93,64a260.33,260.33,0,0,1,4.49,47.61c.38,103,.16,205.93.23,308.89,0,14.87-2.31,29.24-8.5,42.77-14.11,30.87-38.37,48.13-72,51.08-17.21,1.5-34.62.88-51.94,1-19.32.14-38.65,0-58,0Zm78-81.61c9.84-.44,19.07-.51,28.24-1.35,8.15-.75,13.57-5.82,15.48-13.58a88.29,88.29,0,0,0,2.84-20.67q.28-141.92,0-283.85a93.46,93.46,0,0,0-3-21.64c-1.67-7-6.7-11.27-13.88-12.88-9.84-2.2-19.63-1.17-29.66-1.07Z" transform="translate(-2 -2)"/><path class="cls-1" d="M3142.59,1513.83h-76.21c-.18-3.8-.45-7-.46-10.3q-.06-28,0-56c0-1.67,0-3.33,0-5-.67-26.67-21.26-40.08-46.21-30-11,4.45-15.06,13.68-15.52,24.66-.45,10.65-.17,21.33-.19,32,0,8.66.34,17.34-.1,26-.41,8.16,1.85,15.36,7.15,21.2,7.59,8.36,15.3,16.75,23.88,24.06,16.73,14.26,34.32,27.51,51.12,41.69,11.94,10.09,23.45,20.75,34.59,31.72,5.4,5.32,9.84,11.74,14.12,18.06a45.29,45.29,0,0,1,7.68,26.4c-.25,40.65-.05,81.3-.13,122-.06,36.66-17.5,63.23-51.76,76.56-36.49,14.19-73.73,14.61-110.36.75-33.09-12.53-51.87-36.92-52.62-72.85-.78-37.31-.19-74.64-.17-112a30.37,30.37,0,0,1,.46-3.8c7.32-2.09,62.92-2.61,76.92-.55v10.35c0,26-.08,52,.08,78a69.54,69.54,0,0,0,1.67,15.84c2.3,9.56,8.47,15.65,18.37,17.48a64.45,64.45,0,0,0,7.92,1.1c19.51,1,30.76-8.17,31.52-27.64.83-21,.44-42,.13-62.94-.21-14.35-6.55-26.62-16.11-36.74a276.21,276.21,0,0,0-28.75-26.16c-12.23-9.76-25.62-18.06-37.82-27.85-11.91-9.56-23.7-19.49-34.2-30.54-15.06-15.83-21.93-35.18-21.6-57.37.5-33.31.82-66.66,0-100-1.4-55.23,31.3-79.67,69.45-89.06,29.44-7.26,58.91-6.69,87.67,3.07a118.54,118.54,0,0,1,29.26,14.73c20.93,14.55,30.51,35.92,31,60.86.68,32.64.16,65.31.11,98A24.5,24.5,0,0,1,3142.59,1513.83Z" transform="translate(-2 -2)"/><path class="cls-1" d="M643.12,1339.07H758.69q29.58,258.32,59.09,516c-7.31,2.54-60,3.35-78.11,1.2q-6.84-66.29-13.79-133.63H669.06c-5.31,44.47-10.61,88.92-16,133.91H584.81C583.32,1848.62,638.77,1356.58,643.12,1339.07Zm35.18,294.6h38c-.33-6.77-.48-12.73-.92-18.67q-5.77-77.19-11.64-154.39c-.58-7.64-1.08-15.29-2-22.89-.18-1.57-2-3-3-4.42l-2.38.76C690.34,1500.26,684.37,1566.46,678.3,1633.67Z" transform="translate(-2 -2)"/><path class="cls-1" d="M2333.34,1856.61h-78.26c-4.59-44.65-9.13-88.9-13.75-133.8h-56.89c-5.32,44.59-10.63,89.07-16,133.85h-70.15c19.78-172.83,39.48-345,59.23-517.62H2274.1C2293.83,1511.4,2313.51,1683.35,2333.34,1856.61Zm-101.87-222.73c0-3.87.19-6.82,0-9.75q-5.89-79.2-11.88-158.38c-.68-9-1.33-17.94-2.08-26.89-.22-2.66-.41-5.59-5.76-4.7-5.95,66.13-11.93,132.57-18,199.72Z" transform="translate(-2 -2)"/><path class="cls-1" d="M2427.06,1641c12.13-100.36,24.26-200.72,36.56-302.47,26-.09,51.45-.11,78.14,0q-36.53,259.82-72.68,516.85c-8,2.09-75.35,2.5-87.25.56-24.15-171.71-48.35-343.74-72.76-517.28,26.71-.44,52.16-.14,78.93-.21,12.69,101.19,24.39,201.92,36.84,302.56Z" transform="translate(-2 -2)"/><path class="cls-1" d="M1448.84,1546.06V1628h-77c-2.15,8.36-2.46,136.11-.39,147.08h82.08c0,27.47,0,54,0,80.43-7.37,2.1-150.19,2.44-160.74.27V1339.13h159.63v80.7h-81.74V1545c8.33,2.36,17,.76,25.45,1,8.65.29,17.32.06,26,.06Z" transform="translate(-2 -2)"/><path class="cls-1" d="M1477.65,1338.9H1557q20.51,88.39,41,176.68l1.85.14q21.11-88.31,42.25-176.82h71.44a63.4,63.4,0,0,1-.89,6.88q-32.7,131.84-65.47,263.66c-3.53,14.21-7.34,28.37-10.58,42.65a81.62,81.62,0,0,0-2,17.75q-.22,87-.09,174v12.6h-77.16V1844c0-51.33-.31-102.66.16-154a206.34,206.34,0,0,0-6.55-52.24c-24.12-96.92-47.78-194-71.59-291C1478.76,1344.67,1478.38,1342.43,1477.65,1338.9Z" transform="translate(-2 -2)"/><path class="cls-1" d="M1187.41,1775.3h78.17v81.1h-155V1339.16h76.88Z" transform="translate(-2 -2)"/><path class="cls-1" d="M2640.87,1856.43h-76.39V1338.91h76.39Z" transform="translate(-2 -2)"/><path class="cls-1" d="M1691.07,1627.83v-63.9h140.62v63.9Z" transform="translate(-2 -2)"/><path d="M924.86,1561.59V1410.36c12.45,0,24.4-.82,36.18.23s20.52,10.89,22.61,23.39a54.48,54.48,0,0,1,.55,9c0,25.94.34,51.89-.17,77.83a78.93,78.93,0,0,1-4.23,23.3c-3.47,10.28-11.72,16.41-22.43,17.33C946.88,1562.3,936.24,1561.59,924.86,1561.59Z" transform="translate(-2 -2)"/><path d="M3317.9,1596.53q0,75,0,150c0,25.28-10.48,35.19-35.64,33.88-16.61-.86-25.67-9.22-27.67-25.76a85.12,85.12,0,0,1-.3-10q0-148.49,0-297a68.5,68.5,0,0,1,1.19-13.88c2.64-12.68,10.25-19.69,23.13-21.32a62.06,62.06,0,0,1,14-.12c14.76,1.46,23.53,10.37,25.08,25.19a97.73,97.73,0,0,1,.21,10Q3317.91,1522,3317.9,1596.53Z" transform="translate(-2 -2)"/><path d="M1952.68,1774.64V1421.09c9.78,0,19-.6,28.17.17,9.41.79,14.91,7.11,16.78,16.07a93,93,0,0,1,2.17,18.79q.2,141.41,0,282.81a96,96,0,0,1-2.06,18.8c-2,9.82-8,16.21-18.34,16.81C1970.85,1775,1962.24,1774.64,1952.68,1774.64Z" transform="translate(-2 -2)"/><path d="M2766.14,1775.54v-355c10-.1,19.82-1.13,29.66,1.07,7.18,1.61,12.21,5.93,13.88,12.88a93.46,93.46,0,0,1,3,21.64q.3,141.93,0,283.85a88.29,88.29,0,0,1-2.84,20.67c-1.91,7.76-7.33,12.83-15.48,13.58C2785.21,1775,2776,1775.1,2766.14,1775.54Z" transform="translate(-2 -2)"/><path d="M678.3,1633.67c6.07-67.21,12-133.41,18-199.61l2.38-.76c1,1.47,2.83,2.85,3,4.42.9,7.6,1.4,15.25,2,22.89q5.84,77.19,11.64,154.39c.44,5.94.59,11.9.92,18.67Z" transform="translate(-2 -2)"/><path d="M2231.47,1633.88h-37.73c6.05-67.15,12-133.59,18-199.72,5.35-.89,5.54,2,5.76,4.7.75,9,1.4,17.92,2.08,26.89q6,79.18,11.88,158.38C2231.66,1627.06,2231.47,1630,2231.47,1633.88Z" transform="translate(-2 -2)"/></g></g></svg>