<svg xmlns="http://www.w3.org/2000/svg" width="24" height="24" viewBox="0 0 24 24">
    <g fill="none" fill-rule="evenodd">
        <path d="M-24-16h72v56h-72z"/>
        <path d="M0 0h24v24H0z"/>
        <path fill="#F60" d="M11.568 12.977a.848.848 0 1 1 0-1.695.848.848 0 0 1 0 1.695m9.488 3.669a10.062 10.062 0 0 0 1.078-4.74c-.103-5.56-4.77-10.029-10.328-9.903-4.1.092-7.25 2.274-8.447 4.964 0 0-.99-.28-1.241.444-.077.22-.262.782-.326 1.138-.147.828.52.935.695.949L5 9.695c1.543.153 3.348.623 3.348 2.752 0 1.774-1.588 2.454-3.348 2.778l-3.06.672c-.543.068-1.04.407-.923 1.087.026.15.192.697.242.878.208.753 1.168.525 1.168.525l.328 1.142c6.27-.661 8.885-1.066 13.867-2.32a.237.237 0 0 1 .115.46c-5.108 1.285-7.739 1.682-14.307 2.37-.185.166-.343.44-.247.878l.191.825c.191.565.889.53 1.24.506 4.88-.325 14.726-2.114 17.397-3.173.951-.372 1.06-.602.897-1.523-.129-.727-.38-.946-.852-.906"/>
    </g>
</svg>
