<svg id="Layer_1" data-name="Layer 1" xmlns="http://www.w3.org/2000/svg" viewBox="0 0 209.89 214.47"><defs><style>.cls-1,.cls-10,.cls-12,.cls-3,.cls-4,.cls-5,.cls-6,.cls-9{fill:#fff;}.cls-11,.cls-2,.cls-7,.cls-8{fill:none;}.cls-10,.cls-11,.cls-2,.cls-9{stroke:#fff;}.cls-11,.cls-2{stroke-linecap:round;}.cls-10,.cls-12,.cls-2,.cls-3,.cls-4,.cls-5,.cls-6,.cls-7,.cls-8,.cls-9{stroke-miterlimit:10;}.cls-2,.cls-6{stroke-width:3px;}.cls-12,.cls-3,.cls-4,.cls-5,.cls-6,.cls-7,.cls-8{stroke:#000;}.cls-10,.cls-3,.cls-8{stroke-width:2px;}.cls-4{stroke-width:6px;}.cls-5{stroke-width:7px;}.cls-7{stroke-width:1.7px;}.cls-9{stroke-width:4px;}.cls-11{stroke-linejoin:round;}.cls-12{stroke-width:9px;}</style></defs><title>Loader_Icon</title><path d="M9.69,61.26s.83,8.51.8,8.43.08.18.12.27c2.16,4.06,4.31,8.12,6.49,12.16l2.64,4.07c.73,1,1.82.43,2.73.59a4.92,4.92,0,0,0,2.09.11c2.73-.81,5.45-1.67,8.17-2.53l.25.37-2.72,1a.75.75,0,1,0,.53,1.4L33.87,86l0,.06h0l1.1,1.6-2.84,1.07a.75.75,0,1,0,.53,1.4L35.86,89,37,90.67l-2.88,1.09a.75.75,0,1,0,.53,1.4l3.23-1.22,1.17,1.71-2.93,1.11a.75.75,0,1,0,.53,1.4l3.27-1.24,1.17,1.71-3,1.12a.75.75,0,1,0,.53,1.4L42,97.91l1.17,1.71-3,1.14a.75.75,0,1,0,.53,1.4L44,100.89l1.17,1.71-3.06,1.16a.75.75,0,1,0,.53,1.4l3.41-1.29,1.09,1.59h0l.08.12-3.12,1.18a.75.75,0,1,0,.53,1.4l3.45-1.3,1.15,1.67h0l0,0-3.16,1.2a.75.75,0,1,0,.53,1.4l3.5-1.32,1.13,1.65h0l0,.06-3.21,1.21a.75.75,0,1,0,.53,1.4l3.55-1.34.11.16h0l1.06,1.55-3.25,1.23a.75.75,0,1,0,.53,1.4l3.59-1.36.13.2h0l1,1.51-3.29,1.24a.75.75,0,1,0,.53,1.4l3.63-1.37.56.81.06.09a2.74,2.74,0,0,0-.57.48,1.61,1.61,0,0,0,.13,1.85c.3.5.29.87-.4,1.23a11.54,11.54,0,0,0-2.31,1.8,4.08,4.08,0,0,0-.86,1.31,7.68,7.68,0,0,0-.77,2.15,21.11,21.11,0,0,0,.06,2.82c0,.64.14,1.08,1,1,.65-.08.92.3.92.89a8.08,8.08,0,0,0,.05,1.07c.11.81-.1,1.34-1.1,1.3-.73,0-1,.33-1,1,0,1.2,0,2.41.06,3.61.5,7,1.05,14.06,1.53,21.1q.74,11,1.34,22c.24,4.45.17,8.91.52,13.35.24,3.07-.25,2.54,2.9,2.55h.31a3.15,3.15,0,0,1,2.47.61,3.38,3.38,0,0,0,1.82.53c1.94.14,3.89.2,5.83.27,2.1.08,2.29.27,2.46,2.23.11,1.26-.17,2.51,1,3.69a4.18,4.18,0,0,0,3.27,1.59c1.29,0,2.34.12,2.7,1.61.21.86.95,1.62,1.07,2.48a2.6,2.6,0,0,0,1.93,2.39c2.21.5,4.5.89,6.62-.46a2.33,2.33,0,0,1,1.16-.29c5.77-.08,11.55-.12,17.32-.2a26.89,26.89,0,0,0,3.27-.23,6.32,6.32,0,0,0,4.61-2.42,2.11,2.11,0,0,1,2.28-1,4.87,4.87,0,0,0,.92,0,3.06,3.06,0,0,0,3-2.17c.48-1.45.91-1.57,2.28-.77a3.07,3.07,0,0,1,.82.84c.67.9,1.32,1.82,2,2.73a1.42,1.42,0,0,0,2,.49,26.31,26.31,0,0,0,3-1.87c1.1-.84,1.12-1.41.35-2.5a6.2,6.2,0,0,1-.68-1c-.09-.2,0-.66.08-.7a1.52,1.52,0,0,1,1,0c.21.08.34.39.47.61a1,1,0,0,0,1.62.36c.34-.21.71-.39,1-.62a.75.75,0,0,0,.22-1.18c-.25-.36-.46-.76-.7-1.14,1.61-.71,2.66-.49,3.58.64.19.23.37.47.57.69a2.88,2.88,0,0,0,4.09.12c.47-.46.84-1,1.28-1.51.24-.27.52-.71.78-.71,1.61,0,3.22-.66,4.82.45a5.46,5.46,0,0,0,5.82.3,5.3,5.3,0,0,0,3-4.57c.1-1.51.14-3,.24-4.54a2.85,2.85,0,0,1,2.91-2.52,16.55,16.55,0,0,0,2.35-.08c3-.39,3.84-1.53,2.9-4.26a3.06,3.06,0,0,1,.83-3.5c3.65-3.86,6.18-8.33,6.61-13.55a8.65,8.65,0,0,1,3-6.12,7.82,7.82,0,0,0,1.78-3,2.05,2.05,0,0,0-.48-1.75c-2.16-2.35-4.37-4.65-6.66-6.89l-19.21-21.14h0l-.72-.65s-.71-.6-1.09-.88c-.75-.57-1.52-1.11-2.24-1.7-.43-.35-.57-.66,0-1.19s1.26-1.12.61-1.93c-.49-.61-.29-1.06.1-1.56l.65-.83h0l.15-.18,2,1.16a.75.75,0,0,0,1-.28.75.75,0,0,0-.28-1l-1.82-1,1.3-1.58,2.21,1.26a.74.74,0,0,0,.37.1.75.75,0,0,0,.37-1.4l-2-1.13,1.3-1.58,2.39,1.36a.75.75,0,0,0,1-.28.75.75,0,0,0-.28-1L155,115.54l1.3-1.58,2.56,1.45a.75.75,0,0,0,1-.28.75.75,0,0,0-.28-1l-2.33-1.32,1.3-1.58,2.73,1.55a.75.75,0,0,0,1-.28.75.75,0,0,0-.28-1l-2.5-1.42,1.3-1.58,2.9,1.65a.74.74,0,0,0,.37.1.75.75,0,0,0,.37-1.4l-2.67-1.52,1.3-1.58,3.07,1.75a.75.75,0,0,0,1-.28.75.75,0,0,0-.28-1l-2.84-1.62,1.3-1.58,3.24,1.84a.75.75,0,0,0,1-.28.75.75,0,0,0-.28-1l-3-1.71,1.3-1.58,3.41,1.94a.75.75,0,0,0,1-.28.75.75,0,0,0-.28-1L168.66,99l1.3-1.58,3.58,2a.75.75,0,0,0,1-.28.75.75,0,0,0-.28-1l-3.35-1.91,1.3-1.58L176,96.84a.75.75,0,0,0,1-.28.75.75,0,0,0-.28-1l-3.52-2L174.48,92l3.82,2.18a.75.75,0,0,0,1-.28.75.75,0,0,0-.28-1l-3.48-2,7.22,3a1.67,1.67,0,0,0,.68.1c.72,0,1.45-.07,2.17-.14.43,0,1,0,1.24-.26a1.17,1.17,0,0,1,1.75-.13,1.11,1.11,0,0,0,1-.12c.23-.25.4-.92.24-1.08-1-.91-.54-1.59.26-2.27a2.11,2.11,0,0,0,.38-.46q3.79-5.78,7.58-11.57a.83.83,0,0,0,.17-.55,4.22,4.22,0,0,1,.21-2.58c-5.51-3.35-30-16.25-30-16.25l-3.32,1.54-20-11L73.41,37.73c-.78.32-7.61,2.66-8.41,2.93s-.72,2.53-.72,2.53c-.23.26-20.17,8.12-20.54,8.26-2.23.84-2.77-1.15-5-.32l-5.43,2L11.8,61.45l-2.11-.19Z" transform="translate(-0.96 -0.62)"/><circle class="cls-1" cx="61.23" cy="182.93" r="3.53"/><circle class="cls-2" cx="150.11" cy="193.96" r="2.49" transform="translate(-70.91 301.62) rotate(-78.46)"/><circle class="cls-3" cx="106.64" cy="49.27" r="5.69"/><circle class="cls-3" cx="107.61" cy="49.89" r="2.58" transform="translate(-4.72 90.08) rotate(-45)"/><path class="cls-4" d="M78.88,130.5s-5.68,1.14-8.47,4.18-.56,52.59,3.1,55.72,30.12,8.9,32.93,6.32,26.41-33.2,25.31-36.24-10.3,2-10.3,2S89.76,153.16,78.88,130.5Z" transform="translate(-0.96 -0.62)"/><circle class="cls-5" cx="102.17" cy="147.21" r="22.35"/><circle class="cls-6" cx="102.04" cy="147.55" r="15.43"/><circle cx="101.92" cy="147.43" r="10.57"/><path class="cls-7" d="M76.89,167.47s-.27,15,3.84,17.53,22.17,4.15,22.17,4.15,13.6-13.83,16.92-18.67" transform="translate(-0.96 -0.62)"/><path class="cls-7" d="M99.89,184.3s8.39-6.57,9.14-13.82" transform="translate(-0.96 -0.62)"/><path class="cls-1" d="M108.61,146.52h-2.47c0-.37.52-.55.52-.55v-1c-2.76-.14-3.67-1.45-3.67-1.45h0s-.91,1.31-3.67,1.45v1s.51.18.52.55H97.37v2.75h2.46c-.14.47-.84.59-.84.59a8.18,8.18,0,0,0,4,2.27h0a8.18,8.18,0,0,0,4-2.27s-.7-.12-.84-.59h2.46Zm-8.57-1a5.18,5.18,0,0,0,3-1h0a5.18,5.18,0,0,0,3,1,1.51,1.51,0,0,0-.55,1h-4.8A1.51,1.51,0,0,0,100,145.57Zm5.89,4.36a7.82,7.82,0,0,1-2.94,1.49h0a7.82,7.82,0,0,1-2.94-1.49,1.06,1.06,0,0,0,.55-.66h4.78A1.06,1.06,0,0,0,105.93,149.93Zm2-1.3H98.06v-1.46h9.85Z" transform="translate(-0.96 -0.62)"/><path class="cls-7" d="M79.34,136.37c-1.29,3.3-7,17.59,5.2,39.81" transform="translate(-0.96 -0.62)"/><path class="cls-3" d="M3.25,31.3,77,3.29s4.69-1.38,7,2,5.8,14.54,5.8,14.54l.76,1.93-84,30.51S1.65,41.17,2,36.39,3.25,31.3,3.25,31.3Z" transform="translate(-0.96 -0.62)"/><path class="cls-3" d="M6.74,52.83s3.36,8.26,4.56,8.82L39.08,51.31l4.62.63s19.81-7.7,20.21-8C64,43.88,65,41.44,65,41.44s8.46-3.22,8.82-3.7c.53-.7,2.64-11.44,2.64-11.44Z" transform="translate(-0.96 -0.62)"/><path class="cls-8" d="M63.91,13.3S57.82,24.38,65,43.19" transform="translate(-0.96 -0.62)"/><path class="cls-8" d="M23,29.71s8.74,1.83,17,23.45" transform="translate(-0.96 -0.62)"/><path class="cls-9" d="M100.3,110.9" transform="translate(-0.96 -0.62)"/><path class="cls-9" d="M81.79,114" transform="translate(-0.96 -0.62)"/><path class="cls-10" d="M121.61,87.69" transform="translate(-0.96 -0.62)"/><path class="cls-10" d="M115,109" transform="translate(-0.96 -0.62)"/><path class="cls-9" d="M83.2,109.21" transform="translate(-0.96 -0.62)"/><path class="cls-3" d="M200.44,65.18l-45.88-25-22-11.93h0l-14-6.47,7.71-15.31a20.17,20.17,0,0,1,2-3.44c.5-.34,1.83-1.89,4-1.2s74.82,39.69,74.82,39.69,3.82,3.09,2.49,7S204.93,65,200.44,65.18Z" transform="translate(-0.96 -0.62)"/><path class="cls-3" d="M135.42,29.75l1,14.44,28.47,16,3.17-.75L197.66,76l5.93-9.25s-.78-2.81-1-2.61-67.8-36.5-67.8-36.5Z" transform="translate(-0.96 -0.62)"/><path class="cls-8" d="M187.66,37.82s-9.12-.81-19.87,22.33" transform="translate(-0.96 -0.62)"/><path class="cls-8" d="M148.71,16.23s3.88,4.94,1.63,13.26c0,0-4.44,11.76-5.93,13.7" transform="translate(-0.96 -0.62)"/><line class="cls-11" x1="169.11" y1="87.83" x2="141.46" y2="72.1"/><line class="cls-11" x1="166.71" y1="90.45" x2="139.45" y2="74.94"/><line class="cls-11" x1="164.16" y1="93.04" x2="137.8" y2="78.05"/><line class="cls-11" x1="162.04" y1="95.88" x2="136.67" y2="81.44"/><line class="cls-11" x1="159.7" y1="98.59" x2="135.41" y2="84.77"/><line class="cls-11" x1="157.32" y1="101.28" x2="134.46" y2="88.27"/><line class="cls-11" x1="155.17" y1="104.1" x2="133.26" y2="91.63"/><line class="cls-11" x1="152.6" y1="106.68" x2="131.85" y2="94.87"/><line class="cls-11" x1="150.54" y1="109.72" x2="130.82" y2="98.5"/><line class="cls-11" x1="148.12" y1="112.35" x2="129.67" y2="101.72"/><line class="cls-11" x1="145.89" y1="115.06" x2="128.59" y2="105.21"/><line class="cls-11" x1="143.45" y1="118.08" x2="127.47" y2="108.98"/><line class="cls-11" x1="38.59" y1="81.84" x2="64.96" y2="71.88"/><line class="cls-11" x1="40.46" y1="84.84" x2="65.85" y2="75.24"/><line class="cls-11" x1="42.46" y1="87.84" x2="67.2" y2="78.49"/><line class="cls-11" x1="44.46" y1="90.84" x2="68.02" y2="81.94"/><line class="cls-11" x1="46.46" y1="93.84" x2="69" y2="85.32"/><line class="cls-11" x1="48.46" y1="96.84" x2="70.1" y2="88.66"/><line class="cls-11" x1="50.46" y1="99.84" x2="71.37" y2="91.94"/><line class="cls-11" x1="52.46" y1="102.84" x2="72.39" y2="95.31"/><line class="cls-11" x1="54.46" y1="105.84" x2="73.64" y2="98.59"/><line class="cls-11" x1="56.46" y1="108.84" x2="74.27" y2="102.11"/><line class="cls-11" x1="58.46" y1="111.84" x2="75.93" y2="105.24"/><line class="cls-11" x1="60.46" y1="114.84" x2="76.81" y2="108.66"/><polygon class="cls-1" points="108.79 115.4 105.42 123.05 122.23 131.56 125.7 123.86 108.79 115.4"/><path class="cls-1" d="M127.42,114.86a34.07,34.07,0,0,0-1.5,6.32l-14.09-6.88a50.62,50.62,0,0,0,4.76-4.61Z" transform="translate(-0.96 -0.62)"/><polygon class="cls-3" points="116.27 107.59 126.91 112.5 156.02 59.49 145.68 53.4 116.27 107.59"/><polygon class="cls-1" points="97.02 114.6 100.39 122.25 83.58 129.77 80.11 122.06 97.02 114.6"/><path class="cls-1" d="M80.79,113.77a59.62,59.62,0,0,1,.81,6.26l14.22-6.38a50.62,50.62,0,0,1-4.7-4.68Z" transform="translate(-0.96 -0.62)"/><polygon class="cls-3" points="89.54 106.8 78.9 111.7 49.77 53.22 61.28 48.9 89.54 106.8"/><circle class="cls-3" cx="105" cy="52.01" r="39.15"/><circle class="cls-12" cx="105" cy="52.01" r="22.88"/><circle class="cls-3" cx="105" cy="52.01" r="4.1"/></svg>