<?xml version="1.0" encoding="iso-8859-1"?>
<!-- Generator: Adobe Illustrator 19.0.0, SVG Export Plug-In . SVG Version: 6.00 Build 0)  -->
<svg version="1.1" id="Capa_1" xmlns="http://www.w3.org/2000/svg" xmlns:xlink="http://www.w3.org/1999/xlink" x="0px" y="0px"
	 viewBox="0 0 480.025 480.025" style="enable-background:new 0 0 480.025 480.025;" xml:space="preserve">
<g>
	<g>
		<path d="M452.91,251.701c-12.754-10.161-28.581-15.687-44.888-15.672c-16.327-0.006-32.165,5.568-44.888,15.8l-93.448-93.448
			l-36.32-36.32c-14-13.959-36.656-13.959-50.656,0l-20.328,20.328l11.312,11.312l20.328-20.328c7.745-7.701,20.255-7.701,28,0
			l24.44,24.44c-39.58,8.136-68.549,42.157-70.272,82.528c-8.482,7.543-19.441,11.703-30.792,11.688h-18.176
			c-3.827-18.611-20.199-31.976-39.2-32h-48c-13.255,0.041-23.967,10.819-23.926,24.074c0.025,8.018,4.052,15.494,10.734,19.926
			c-28.747,20.482-35.447,60.391-14.965,89.138c20.482,28.747,60.391,35.447,89.138,14.965c7.459-5.315,13.689-12.17,18.267-20.103
			h104.752c2.061-0.247,4.015-1.055,5.648-2.336L332.023,243.34l19.8,19.8c-24.756,31.074-19.634,76.332,11.44,101.088
			c31.074,24.756,76.332,19.634,101.088-11.44C489.106,321.715,483.984,276.456,452.91,251.701z M256.023,172.468v16.064
			c-0.026,26.22-21.276,47.47-47.496,47.496h-16.056C196.257,202.622,222.616,176.259,256.023,172.468z M187.095,252.028h11.936
			c-9.255,11.275-14.308,25.413-14.296,40c0.026,2.676,0.221,5.348,0.584,8h-20.352l-16.08-32.168
			C163.06,267.112,176.547,261.524,187.095,252.028z M120.023,268.028h11.056l16,32h-21.12c-3.23-12.406-10.115-23.555-19.76-32
			H120.023z M40.023,236.028h48c10.168,0.012,19.229,6.418,22.632,16H40.023c-4.418,0-8-3.582-8-8S35.604,236.028,40.023,236.028z
			 M64.023,364.028c-26.51,0.03-48.025-21.435-48.055-47.945c-0.03-26.51,21.435-48.025,47.945-48.055
			c20.362-0.023,38.522,12.803,45.31,32h-61.2c-4.418-0.002-8.002,3.578-8.004,7.996c-0.001,1.472,0.405,2.915,1.172,4.172l19.56,32
			c1.452,2.379,4.037,3.83,6.824,3.832h32.184C90.643,358.173,77.661,363.985,64.023,364.028z M238.551,314.26l-17.84,17.768
			H120.023h-47.96l-9.776-16h145.736c2.118,0,4.149-0.841,5.648-2.336l12.088-12c3.505-3.499,9.183-3.495,12.683,0.01
			c1.692,1.695,2.636,3.995,2.621,6.39C241.058,310.397,240.157,312.609,238.551,314.26z M254.863,297.844
			c-1.229-2.792-2.962-5.333-5.112-7.496c-9.757-9.714-25.531-9.714-35.288,0l-9.744,9.68h-3.24
			c-4.6-25.524,12.362-49.945,37.886-54.545c2.857-0.515,5.755-0.764,8.658-0.743c15.701-0.03,30.382,7.771,39.144,20.8
			L254.863,297.844z M298.607,254.132c-9.999-13.455-24.958-22.36-41.552-24.736c9.67-11.42,14.974-25.9,14.968-40.864v-5.192
			l48.688,48.688L298.607,254.132z M441.75,352.829c-9.728,7.296-21.567,11.227-33.728,11.2
			c-30.866,0.071-55.945-24.894-56.016-55.76c-0.028-12.158,3.91-23.994,11.216-33.712l17.32,17.32
			c-2.935,4.878-4.497,10.459-4.52,16.152c0,17.673,14.327,32,32,32c17.673,0,32-14.327,32-32c0-17.673-14.327-32-32-32
			c-5.695,0.028-11.276,1.595-16.152,4.536l-17.32-17.336c24.742-18.557,59.843-13.542,78.4,11.2
			C471.507,299.171,466.493,334.272,441.75,352.829z M392.023,308.028c0-8.837,7.163-16,16-16s16,7.163,16,16s-7.163,16-16,16
			S392.023,316.865,392.023,308.028z"/>
	</g>
</g>
<g>
	<g>
		<path d="M360.023,124.028h-24c-17.673,0-32,14.327-32,32s14.327,32,32,32h24c4.418,0,8-3.582,8-8v-48
			C368.023,127.61,364.441,124.028,360.023,124.028z M352.023,172.028h-16c-8.837,0-16-7.163-16-16s7.163-16,16-16h16V172.028z"/>
	</g>
</g>
<g>
	<g>
		<rect x="416.023" y="180.028" width="16" height="16"/>
	</g>
</g>
<g>
	<g>
		<rect x="400.023" y="164.028" width="16" height="16"/>
	</g>
</g>
<g>
	<g>
		<rect x="384.023" y="148.028" width="16" height="16"/>
	</g>
</g>
<g>
	<g>
		<rect x="400.023" y="132.028" width="16" height="16"/>
	</g>
</g>
<g>
	<g>
		<rect x="416.023" y="148.028" width="16" height="16"/>
	</g>
</g>
<g>
	<g>
		<rect x="416.023" y="116.028" width="16" height="16"/>
	</g>
</g>
<g>
	<g>
		<rect x="432.023" y="132.028" width="16" height="16"/>
	</g>
</g>
<g>
	<g>
		<rect x="432.023" y="164.028" width="16" height="16"/>
	</g>
</g>
<g>
	<g>
		<rect x="432.023" y="196.028" width="16" height="16"/>
	</g>
</g>
<g>
	<g>
		<rect x="432.023" y="100.028" width="16" height="16"/>
	</g>
</g>
<g>
	<g>
		<rect x="448.023" y="116.028" width="16" height="16"/>
	</g>
</g>
<g>
	<g>
		<rect x="448.023" y="148.028" width="16" height="16"/>
	</g>
</g>
<g>
	<g>
		<rect x="448.023" y="180.028" width="16" height="16"/>
	</g>
</g>
<g>
</g>
<g>
</g>
<g>
</g>
<g>
</g>
<g>
</g>
<g>
</g>
<g>
</g>
<g>
</g>
<g>
</g>
<g>
</g>
<g>
</g>
<g>
</g>
<g>
</g>
<g>
</g>
<g>
</g>
</svg>
