<svg id="Layer_1" data-name="Layer 1" xmlns="http://www.w3.org/2000/svg" xmlns:xlink="http://www.w3.org/1999/xlink" viewBox="0 0 573.95 453.62"><defs><style>.cls-1{fill:none;}.cls-2{fill:#ffcd3f;}.cls-3{clip-path:url(#clip-path);}.cls-4{fill:#c8c7cf;}.cls-5{fill:#464646;}.cls-6{fill:#fff;}.cls-7{fill:#4364a0;}.cls-8{fill:#d6a370;}</style><clipPath id="clip-path" transform="translate(-6.72 -93.55)"><path class="cls-1" d="M597,337.36c-4.53,169.77-97.28,31.55-102.83,48-31.89,94.15-124.9,158-228.33,148.9C144.39,523.59,54.56,416.51,65.19,295.06S182.9,83.78,304.35,94.41c106.27,9.3,188.33,92.45,200.07,194.45C506.09,303.43,597.4,322.13,597,337.36Z"/></clipPath></defs><title>logo-round</title><circle class="cls-2" cx="278.38" cy="220.76" r="220.75"/><g class="cls-3"><path class="cls-4" d="M169.22,432.59c.77,3.24,1.07,7.93,4.74,9,3.89,1.14,9.74-3.56,12.89-5,9.64-4.31,26.46-4.15,31.83-14.69.87-1.73-.6-4.2-2.69-3.5-9.64,3.25-19.57,4.47-29.28,7.25-5.09,1.46-13.34,3.94-16.07,8.8-1,1.72.31,3.35,2.06,3.58,7.15.93,16.88-5.93,23.24-8.68l-2.4-4.11a39.72,39.72,0,0,1-15.29,6.1l1.26,4.58a177.9,177.9,0,0,1,18.3-6c2.95-.79,1.7-5.38-1.27-4.58a176.11,176.11,0,0,0-18.29,6,2.38,2.38,0,0,0,1.26,4.58,42.07,42.07,0,0,0,16.43-6.57c2.62-1.72.36-5.3-2.4-4.11-5.23,2.27-15.22,8.77-20.84,8l2.05,3.58c3-5.3,14.21-7,19.85-8.05A173.49,173.49,0,0,0,217.26,423l-2.69-3.49c-3.7,7.26-15.72,7.92-22.67,10.14-5.26,1.68-16.2,9.64-18.1,1.64-.7-3-5.29-1.71-4.58,1.27Z" transform="translate(-6.72 -93.55)"/><path class="cls-5" d="M532.1,333.8c-2.05-1.35-4.92,1.28-4.44,3.69s3,3.9,5.44,4.23,4.89-.18,7.34-.18c-.37,4.3-1.83,8.41-2.73,12.63-3.87,18.2,3.81,38.35,18.83,49.35,2.21,1.61,5,3.1,7.57,2.09s3.6-4.18,4.2-6.94a210.75,210.75,0,0,0,4-25.61c1-10.22.83-21.51-5.68-29.45-7.25-8.83-19.86-10.57-31.22-11.68-1.64-.16-3.47-.26-4.72.8" transform="translate(-6.72 -93.55)"/><path class="cls-5" d="M532.1,331.42c-3.86-.32-7.57,2.23-6.73,6.7,1.26,6.78,10.3,6.07,15.07,5.8l-2.29-3c-2.65,18.45-6.43,33.55,4.23,50.62,4.72,7.56,20.38,25.77,27.33,10.85,4-8.63,4.41-21.57,5.11-31,.64-8.78.45-18.37-4.2-26.16C564,334,542.35,325.69,530.05,330.44c-2.82,1.08-1.59,5.68,1.27,4.58,10.32-4,29.74,3.6,35.2,12.56,7.42,12.2,3.22,31.12.78,44.11-1,5.59.06,6.13-6.46,7.23-6,1-6.1.55-9.86-3.7a47.79,47.79,0,0,1-9.69-17.42c-4-12.67-.35-23.14,1.44-35.63.21-1.42-.58-3.1-2.29-3q-5,1.43-8.34-3c3,.25,3-4.5,0-4.75Z" transform="translate(-6.72 -93.55)"/><path class="cls-4" d="M528,337.1a71,71,0,0,1,24.79-1c15.57,2.05,19.52,11.81,20.6,25.72a73.3,73.3,0,0,1-1.63,22.69c-.84,3.48-4.36,18.51-8.48,18.89-3,.27-3.05,5,0,4.75,6.21-.56,8.78-9.18,10.54-14.25a78.54,78.54,0,0,0,3.85-36.65c-1.29-9.52-5-20.66-14.83-24.4-10.39-3.94-25.56-2.82-36.11-.38-3,.68-1.71,5.27,1.27,4.58Z" transform="translate(-6.72 -93.55)"/><path class="cls-4" d="M531.09,342.57a19.7,19.7,0,0,0,10-.73c1-.33,11-4.33,11.13-4l1.62-4c-7.93,2.27-16.82-1.05-24.72,1.7-3.26,1.14-1.86,6.36,1.43,5.21,7.82-2.73,16.78.57,24.72-1.7a2.73,2.73,0,0,0,1.61-4c-1.86-2.8-5.17-2.21-8.12-1.56-5.44,1.19-10.49,4.94-16.27,3.87-3.4-.63-4.86,4.57-1.44,5.2Z" transform="translate(-6.72 -93.55)"/><path class="cls-4" d="M339.51,394.41A294.41,294.41,0,0,1,398.13,375c2.59-.55,2.06-4.87-.63-4.67-10.32.79-20.69,3.48-30.77,5.68S346,379.83,336.58,384c-2.11.93-1.07,3.68.57,4.35,6.67,2.72,20.3-2.34,26.93-3.59,12.72-2.4,24.85-5.49,37.3-9.07,2.95-.85,1.72-5.27-1.26-4.58l-16.38,3.74L385,379.4q15.57-4.57,31.4-8l-1.27-4.59c-7.27,1.89-14.57,3.51-22,4.87l1.26,4.59,27.94-7.85c2.94-.82,1.69-5.41-1.27-4.58l-25.26,7c-2.94.82-1.69,5.41,1.27,4.59l34.18-9.5c3-.83,1.72-5.24-1.26-4.59-6.28,1.37-12.44,3-18.57,4.9a2.38,2.38,0,0,0,1.27,4.59q11.34-2.55,22.51-5.76L434,360.47l-15.88,4.8c-2.92.88-1.71,5.38,1.26,4.58l27.52-7.41c2.95-.79,1.7-5.36-1.27-4.58l-12.69,3.3c-3,.77-1.71,5.32,1.27,4.58l25.25-6.28c3-.75,1.71-5.23-1.26-4.59l-19.66,4.2,1.26,4.59,21.67-5-1.26-4.58-19.05,4.68,1.27,4.58a337.7,337.7,0,0,1,34-8.87l-1.26-4.59c-6.1,1.66-12.21,3-18.44,4.07l1.27,4.58,19.72-4.77c3-.73,1.71-5.24-1.27-4.59L463.64,352l1.26,4.59L493,349.11c3-.79,1.71-5.35-1.26-4.59l-15.53,4,1.26,4.59,17.41-4.55L493.57,344l-3.69,1.28,1.26,4.59,14.73-5.18-1.27-4.59-6.05,2.55,1.83,4.34c3.49-1.81,6.92-3.55,10.58-5l-1.83-4.34c-2.53,1.06-5,2.21-7.55,3.27s-.69,5,1.84,4.35c3.53-.94,10.84-1.19,12.17-5.15s-5.36-.14-7.81.47l-8.48,2.17q-20.1,5.19-40.09,10.77c-25.68,7.17-51.23,14.81-76.78,22.44l1.83,4.34,1.92-1.41c2.43-1.8.06-5.93-2.4-4.1l-1.92,1.41c-2,1.49-.94,5.17,1.84,4.34,45.8-13.68,91.67-27.06,138.09-38.55a2.36,2.36,0,0,0,1.66-1.66c2.12-11.75-17.65-.62-21.3.34L504,345c2.53-1.07,5-2.21,7.55-3.28s.67-5.35-1.83-4.34a127.47,127.47,0,0,0-11.72,5.5c-2.34,1.21-.68,5.4,1.83,4.34l6.06-2.54c2.73-1.15,1.69-5.63-1.27-4.59l-14.72,5.18c-2.87,1-1.64,5.6,1.26,4.59l3.69-1.29c2.86-1,1.73-5.36-1.26-4.58l-17.41,4.54c-3,.78-1.71,5.35,1.26,4.59l15.53-4-1.26-4.59L463.64,352c-3,.79-1.71,5.24,1.26,4.59l12.76-2.8-1.27-4.59L456.67,354c-3,.73-1.7,5.09,1.27,4.58,6.23-1.06,12.33-2.41,18.43-4.06,3-.81,1.72-5.2-1.26-4.59a339.93,339.93,0,0,0-34,8.88,2.38,2.38,0,0,0,1.27,4.58l19-4.68c3-.73,1.71-5.27-1.26-4.58l-21.67,5c-3,.69-1.72,5.23,1.26,4.59l19.66-4.2-1.26-4.59-25.26,6.29,1.27,4.58,12.69-3.3-1.27-4.58-27.51,7.41,1.26,4.58,15.89-4.8c2.92-.88,1.69-5.43-1.27-4.58q-11.18,3.21-22.51,5.75l1.27,4.59c6.13-1.91,12.29-3.54,18.56-4.9L430,361.32l-34.19,9.5,1.27,4.59,25.26-7-1.27-4.58-27.93,7.84c-3,.84-1.71,5.14,1.26,4.59,7.39-1.37,14.69-3,22-4.87,3-.78,1.71-5.25-1.27-4.59q-15.84,3.5-31.39,8.05c-2.95.86-1.72,5.27,1.26,4.59l16.38-3.75-1.26-4.58c-11,3.16-21.73,6.06-32.94,8.23-5.81,1.13-11.62,2.23-17.46,3.17-2.88.46-8.44,2.42-11.31,1.25l.57,4.35c8.91-3.93,19.57-5.41,29-7.48,9.65-2.1,19.63-4.75,29.5-5.5l-.63-4.67a299.9,299.9,0,0,0-59.76,19.88c-2.78,1.27-.37,5.37,2.4,4.11Z" transform="translate(-6.72 -93.55)"/><path d="M523.9,332.47C461.81,345.39,400.57,365.16,339.44,382s-123.39,32-184,51.15a1.47,1.47,0,0,0,.78,2.83c61.88-14.54,123-33.28,184.3-50.11s123.88-31.09,183.86-51.72a.87.87,0,0,0-.47-1.68Z" transform="translate(-6.72 -93.55)"/><path d="M157.67,444.29c30.72-6.85,61-16.18,91.34-24.54,31.1-8.56,62.3-16.93,93.27-25.95,61.25-17.85,123.11-33.46,184.63-50.41A1.74,1.74,0,0,0,526,340c-61.53,16.88-122.68,35.08-184.45,51.06-30.5,7.88-60.87,16.43-91.26,24.77-31.06,8.53-62.6,16.16-93.21,26.2a1.15,1.15,0,0,0,.61,2.22Z" transform="translate(-6.72 -93.55)"/><path d="M539.05,330.35c15.54-.13,31,.3,36.07,18,3.61,12.58,3,28.22-.16,40.78-.82,3.3-2.17,9.69-4.36,11.86l-11.74,5.17-4.71-3.88a71.37,71.37,0,0,1-13-15.75c-8.36-13.95-2.29-29.34.31-44.26.36-2.07-2.81-2.95-3.16-.87-1.66,10-5.24,20.69-4.95,30.85.23,8,5,15.28,9.76,21.52,7.54,10,20.23,23.91,29.81,8.55,9.16-14.68,9.69-40,4.42-56.14-5.73-17.55-21.67-20.43-38.26-18.34-1.53.19-1.64,2.49,0,2.48Z" transform="translate(-6.72 -93.55)"/><path d="M562.71,359.67l.58-2.27c.41-.9-1-1.44-1.23-.52-2.53,9.27-4.68,19.35-4.88,29,0,1,1.61,1.27,1.77.24,1.49-9.65,2.5-19.26,4.41-28.86h-1.3l.38,2.43a.14.14,0,0,0,.27,0Z" transform="translate(-6.72 -93.55)"/><path d="M558.45,349.25c-.81,4.66-1.64,9.31-2.61,13.94-.45,2.14-.93,4.27-1.46,6.39-.25,1.06-.52,2.12-.8,3.18a5.35,5.35,0,0,0,.1,5.09.81.81,0,0,0-1.1-1.09l-.21.11a.87.87,0,0,0-.4,1l.11.28a1,1,0,0,0,1.65.43c2.64-2.27,2.82-9.53,3.43-12.75a154.61,154.61,0,0,0,2.25-16.44c0-.54-.87-.68-1-.13Z" transform="translate(-6.72 -93.55)"/><path d="M552.59,343.61c-2.72,10.17-5.27,21.59-6.08,32.09-.09,1.09,1.6,1.27,1.88.25,2.83-10.12,4.33-21.73,5.25-32.2.06-.61-.89-.71-1-.14Z" transform="translate(-6.72 -93.55)"/><path d="M548.65,336.64c.07,0,.07-.12,0-.12a.06.06,0,1,0,0,.12Z" transform="translate(-6.72 -93.55)"/><path d="M562.75,403.9c12-12.25,15.26-43.43,7.65-58.78-3.25-6.55-9.2-8.47-16.23-8.32-5.49.11-11.65,3.89-16.79,3.49q-3.68,1.71-5.19-3.74-7.61-5.08,0-4.71c2.65-1.5,8-1.33,10.95-1.84,2.13-.37,1.25-3.69-.9-3.26-5.84,1.15-19.42.63-20.25,8.72-.49,4.78,3.85,8.14,8.07,8.83,4.51.74,9.09-1.42,13.35-2.43,4.46-1.06,12.49-3.54,16.86-1.42,7.16,3.47,9.29,11.77,10,18.76a73.33,73.33,0,0,1-1.19,22.51c-1.64,7.54-5.55,14.25-7.08,21.75a.46.46,0,0,0,.76.44Z" transform="translate(-6.72 -93.55)"/><path class="cls-5" d="M230.68,400.07c-.77,23.68,4.27,48.63,19.73,66.57,5.55,6.43,12.24,11.76,18.88,17l24.12,19.16a1.94,1.94,0,0,0,3,0l25.82-21.38c6-5,12-10,16.79-16.12,13.55-17.45,15.05-45.87,15.86-67.95,3.76-.35,6,6.55,6.16,10.33.3,8.08,7.37,14.46,14.86,17.51,9.64,3.92,18.34,9.65,28.37,12.42,10.62,2.94,32.19,8.13,42,13.12,20.62,10.48,26.31,21.91,34,44.43.4,1.17.16,7.23,0,8.45a5.6,5.6,0,0,1-2.11,3.05c-22.35,20.1-53.35,26.73-82.82,32.62-10.79,2.16-21.69,4.32-32.68,4-8-.25-16-1.84-24-1.7-11.31.19-22.34,3.83-33.64,4.32-10.75.47-21.39-1.9-32.1-2.81-16-1.36-32.15.56-48.24,1a264.19,264.19,0,0,1-96.21-15.4c-9.82-3.53-20.89-9.48-22-19.86-.74-7.2,3.76-13.77,8-19.6,5.86-8,11.82-16.07,19.58-22.22,12.32-9.76,28-13.83,42.69-19.45s29.67-14,36.18-28.28c1.8-4,2.9-8.3,5.27-12s6.58-6.65,10.87-5.85" transform="translate(-6.72 -93.55)"/><path class="cls-6" d="M225.64,168.6a130.6,130.6,0,0,0-13.34,46.73,72.58,72.58,0,0,0-62.11,14.45,37.47,37.47,0,0,0-8.38,9.21c-3.22,5.32-4.37,11.66-4.65,17.88-.8,17.52,4.82,34.94,13.89,49.95s21.43,27.77,34.77,39.15c4.54,3.88,9.27,7.65,14.72,10.07,7,3.1,14.7,3.85,22.29,4.34,25.73,1.7,51.56,1,77.33.36l45.51-1.18c7.57-.2,15.24-.41,22.53-2.45,11.72-3.28,21.65-11.06,30.36-19.56,8-7.81,15.31-16.5,20.16-26.58,5.08-10.55,7.27-22.3,7.95-34,1-17.64-1.87-36.77-14.08-49.55-15.75-16.5-41.54-17.43-64.25-15.26-.84-10.29-2.24-20.71-6.41-30.15s-11.48-17.91-21.18-21.44c-6.32-2.3-13.19-2.39-19.91-2.45l-28.9-.28c-17.63-.17-37.67.68-49.17,14.05" transform="translate(-6.72 -93.55)"/><path class="cls-6" d="M223.59,167.4a144,144,0,0,0-13.67,47.93l3-2.29c-18.94-4-38.7-1.35-55.43,8.68C140.31,232,133.38,246.28,135,266.23c1.61,20.16,10.59,38.83,22.92,54.6,12.07,15.46,29.37,35,49.2,39.9,23.9,5.93,51.49,3.32,75.88,2.81s49.66.21,74.07-2.14c42.31-4.07,71.06-48.07,72.16-87.74.53-19.23-4-40-19.93-52.4-17-13.27-40.47-13.27-60.93-11.47l2.38,2.38c-2.61-29.06-13.18-55.17-45.84-56.36-26-.95-63.83-6.51-83.79,14.41-2.12,2.21,1.24,5.58,3.36,3.36,16.89-17.7,45.93-13.37,68.13-13.16,14.19.14,28.41-.42,39.13,10.37s13,27,14.25,41.38a2.41,2.41,0,0,0,2.38,2.37c16.65-1.46,34.9-2,50.27,5.64,17.43,8.65,24.73,26.55,25.73,45.09,1.08,20.14-3.16,40.52-15.32,56.88-11.79,15.85-28.4,31.11-48.55,34-18.33,2.64-37.67,1.6-56.17,2.08-20,.52-40,1.12-60,.67a278.66,278.66,0,0,1-28.74-1.61C203,355.73,194,350,184.66,341.83,171.2,330,158.82,316.59,150.32,300.7c-10.17-19-18.66-50.09-.81-67.18,16.22-15.53,40.69-20.44,62.15-15.9a2.42,2.42,0,0,0,3-2.29,137.21,137.21,0,0,1,13-45.53c1.33-2.74-2.77-5.15-4.1-2.4Z" transform="translate(-6.72 -93.55)"/><path class="cls-4" d="M339.83,226.42c6,7.58,12,15.2,16.58,23.68s7.8,17.94,7.7,27.59c0,1.64-.1,3.39.78,4.78,1.35,2.11,4.36,2.48,6.09,4.29s1.81,4.33,1.85,6.71q.23,11.32-.18,22.66c-.14,3.89-.49,8.15-3.21,10.92-1.08,1.1-2.47,1.89-3.37,3.14-1.56,2.18-1.24,5.13-1.08,7.81a44.71,44.71,0,0,1-1.58,14.51c9.49-3.15,20.72-7.35,27.83-14.38a161.48,161.48,0,0,0,19.65-23.47c2.61-3.85,4.26-10.05,6.16-14.29,4.18-9.36,5.59-20.05,5.92-30.29.22-6.89-1.61-16.29-4-22.75-1.8-4.82-5.08-9.14-8.13-13.29-2-2.73-5.26-4.36-7.88-6.53-5.1-4.22-12.22-3.66-18.8-4.39a98,98,0,0,0-30,1.31c-4.69.95-9.55,2.24-14.2,1.08" transform="translate(-6.72 -93.55)"/><path class="cls-4" d="M233.76,228.54a70.36,70.36,0,0,0-29,57.52c-6,3.41-8.76,10.73-8.65,17.59s2.62,13.42,5.1,19.81c1.56,4,4.68,8.87,8.81,7.69a141.33,141.33,0,0,0,2.5,23c-12.3-6.36-24.8-12.87-34.64-22.62-13.78-13.67-21.09-32.47-26.76-51-2.65-8.68-5-17.63-4.54-26.69s4.37-18.37,11.95-23.37c8.14-5.37,12.2-6.3,21.91-7.19,15.73-1.44,35.81-1.62,51.24,4.25" transform="translate(-6.72 -93.55)"/><path class="cls-6" d="M258.72,348.06c10.4,4.95,21.68,2.5,32.82,2.78,9.47.24,17.69-.42,23.75-8.39,1.33-1.74-.86-4-2.68-3.49-9.19,2.36-18.76,4.77-28.24,5.36-8.23.51-16.11-2-24.34-1.54-3,.19-3.06,4.94,0,4.76,9.65-.59,18.64,2.29,28.4,1.1a200.57,200.57,0,0,0,25.44-5.09l-2.68-3.5c-6.5,8.54-17.89,5.72-26.9,5.93-8,.19-15.59,1.59-23.17-2-2.74-1.31-5.16,2.79-2.4,4.11Z" transform="translate(-6.72 -93.55)"/><path class="cls-7" d="M229.1,400.07c-.77,23.68,4.26,48.63,19.73,66.57,5.54,6.43,12.23,11.76,18.88,17l24.11,19.16a1.95,1.95,0,0,0,3.06,0l25.81-21.38c6-5,12-10,16.8-16.12,13.54-17.45,15-45.87,15.86-67.95,3.76-.35,6,6.55,6.16,10.33.29,8.08,7.37,14.46,14.86,17.51,9.63,3.92,18.33,9.65,28.36,12.42,10.62,2.94,32.19,8.13,42,13.12,20.61,10.48,26.31,21.91,34,44.43.4,1.17.17,7.23,0,8.45a5.6,5.6,0,0,1-2.11,3.05c-22.34,20.1-53.35,26.73-82.82,32.62-10.78,2.16-21.68,4.32-32.67,4-8-.25-16-1.84-24-1.7-11.32.19-22.34,3.83-33.65,4.32-10.74.47-21.38-1.9-32.1-2.81-16-1.36-32.15.56-48.24,1a264.13,264.13,0,0,1-96.2-15.4c-9.83-3.53-20.89-9.48-22-19.86-.75-7.2,3.76-13.77,8-19.6,5.87-8,11.83-16.07,19.59-22.22,12.31-9.76,28-13.83,42.69-19.45s29.67-14,36.17-28.28c1.81-4,2.9-8.3,5.28-12s6.57-6.65,10.87-5.85" transform="translate(-6.72 -93.55)"/><path class="cls-6" d="M224.05,168.6a131,131,0,0,0-13.34,46.73,72.6,72.6,0,0,0-62.11,14.45,37.47,37.47,0,0,0-8.38,9.21c-3.22,5.32-4.36,11.66-4.65,17.88-.79,17.52,4.83,34.94,13.89,49.95S170.9,334.59,184.23,346c4.54,3.88,9.28,7.65,14.73,10.07,6.95,3.1,14.69,3.85,22.29,4.34,25.73,1.7,51.55,1,77.33.36l45.5-1.18c7.58-.2,15.24-.41,22.54-2.45,11.71-3.28,21.65-11.06,30.35-19.56,8-7.81,15.32-16.5,20.16-26.58,5.08-10.55,7.27-22.3,8-34,1-17.64-1.88-36.77-14.08-49.55-15.76-16.5-41.54-17.43-64.25-15.26-.85-10.29-2.24-20.71-6.42-30.15s-11.47-17.91-21.18-21.44c-6.31-2.3-13.19-2.39-19.91-2.45l-28.9-.28c-17.63-.17-37.67.68-49.17,14.05" transform="translate(-6.72 -93.55)"/><path class="cls-6" d="M222,167.4a144.51,144.51,0,0,0-13.67,47.93l3-2.29c-18.94-4-38.69-1.35-55.43,8.68-17.18,10.3-24.11,24.56-22.52,44.51,1.61,20.16,10.58,38.83,22.91,54.6,12.08,15.46,29.38,35,49.21,39.9,23.9,5.93,51.48,3.32,75.88,2.81s49.65.21,74.07-2.14c42.3-4.07,71.06-48.07,72.15-87.74.53-19.23-4-40-19.92-52.4-17-13.27-40.48-13.27-60.93-11.47l2.37,2.38C346.53,183.11,336,157,303.3,155.81c-26-.95-63.84-6.51-83.8,14.41-2.11,2.21,1.25,5.58,3.36,3.36,16.89-17.7,45.94-13.37,68.14-13.16,14.18.14,28.41-.42,39.12,10.37s13,27,14.26,41.38a2.4,2.4,0,0,0,2.38,2.37c16.64-1.46,34.89-2,50.27,5.64,17.42,8.65,24.72,26.55,25.72,45.09,1.09,20.14-3.15,40.52-15.31,56.88-11.79,15.85-28.4,31.11-48.56,34-18.33,2.64-37.67,1.6-56.16,2.08-20,.52-40,1.12-60,.67A278.5,278.5,0,0,1,214,357.31c-12.57-1.58-21.56-7.27-30.9-15.48-13.46-11.82-25.84-25.24-34.33-41.13-10.17-19-18.66-50.09-.82-67.18,16.22-15.53,40.7-20.44,62.16-15.9a2.42,2.42,0,0,0,3-2.29,137,137,0,0,1,13-45.53c1.32-2.74-2.78-5.15-4.11-2.4Z" transform="translate(-6.72 -93.55)"/><path class="cls-4" d="M338.24,226.42c6,7.58,12,15.2,16.59,23.68s7.79,17.94,7.69,27.59c0,1.64-.09,3.39.79,4.78,1.35,2.11,4.35,2.48,6.09,4.29s1.8,4.33,1.85,6.71q.21,11.32-.19,22.66c-.13,3.89-.48,8.15-3.2,10.92-1.08,1.1-2.47,1.89-3.37,3.14-1.56,2.18-1.24,5.13-1.09,7.81a44.44,44.44,0,0,1-1.58,14.51c9.5-3.15,20.72-7.35,27.84-14.38a161.41,161.41,0,0,0,19.64-23.47c2.62-3.85,4.27-10.05,6.16-14.29,4.18-9.36,5.6-20.05,5.93-30.29.22-6.89-1.61-16.29-4-22.75-1.8-4.82-5.07-9.14-8.12-13.29-2-2.73-5.27-4.36-7.88-6.53-5.11-4.22-12.22-3.66-18.8-4.39a98,98,0,0,0-30,1.31c-4.7.95-9.56,2.24-14.21,1.08" transform="translate(-6.72 -93.55)"/><path class="cls-4" d="M232.17,228.54a70.33,70.33,0,0,0-29,57.52c-5.95,3.41-8.76,10.73-8.66,17.59s2.62,13.42,5.11,19.81c1.55,4,4.67,8.87,8.81,7.69a141.33,141.33,0,0,0,2.5,23c-12.3-6.36-24.81-12.87-34.64-22.62-13.78-13.67-21.09-32.47-26.76-51-2.65-8.68-5.05-17.63-4.55-26.69s4.38-18.37,11.95-23.37c8.15-5.37,12.2-6.3,21.92-7.19,15.73-1.44,35.81-1.62,51.23,4.25" transform="translate(-6.72 -93.55)"/><path class="cls-8" d="M236.32,228.92a57.59,57.59,0,0,0-29,48.3c-.06,3.15.1,6.5-1.49,9.23-1.09,1.86-2.88,3.2-4.29,4.84-4.91,5.73-6.4,17.68-3.82,24.78s6.58,14.53,12.89,13.07c0,0,2.5,23.94,6,33.39,3.3,8.94,6.65,21.35,12.56,28.82.81,12.62,4.27,20.46,5.09,33.07.32,5,.65,10,2.07,14.73,1.26,4.19,2.13,13.37,4.89,16.78,16.42,20.32,33,32.93,53.64,46.93,7.87-16.5,28-26.07,40.24-39.62a57.17,57.17,0,0,0,12.93-24c3.32-12.9,3.28-29,2.13-43.06-.53-6.35-3-10.77-1-16.45,4.95-13.86,12.31-28.44,10.76-43.94,6.79-2,11.47-8.47,13.25-15.31s1.16-14,.52-21.07c-.28-3.15-.62-6.45-2.35-9.1s-5.35-4.36-8.16-2.9a402.59,402.59,0,0,0-20.3-47.06c-2.51-4.94-5.58-10.23-10.8-12.07-2.91-1-6.09-.82-9.16-.61q-43.76,3-87.66,2.14" transform="translate(-6.72 -93.55)"/><path class="cls-8" d="M235.12,226.86a61.3,61.3,0,0,0-24,25.55,59.32,59.32,0,0,0-5.57,17.66c-1.22,8.28-1.14,12-5.69,19.54s-7.13,15.6-5.14,24.56c1.77,8,6.65,17.74,15.89,17.35l-2.37-2.38c1.21,11.4,2.56,23.08,6.06,34a201.59,201.59,0,0,0,9.54,24.38c4.26,9.09,5.73,19.73,7.23,29.7,2.65,17.67,2.25,33.77,14.62,47.63,14,15.7,30.65,28.25,48,40a2.39,2.39,0,0,0,3.25-.85c10.72-20.27,34.5-28.47,46.44-47.85,6-9.74,8.52-20.76,9.45-32.06,1.11-13.39-1.94-26.5-1.43-39.63.5-12.66,8.9-24.46,10.61-37.26.85-6.38.26-8.07,4.44-12.1,3-2.91,5.42-5.33,7.24-9.18,4.85-10.27,7.58-43.88-11.11-40.85l2.93,1.66a430.13,430.13,0,0,0-16.74-40c-4.23-8.76-8.45-19.88-19.32-21.53-13.7-2.07-29.86,1.43-43.72,1.86-16.81.52-33.62.58-50.43.29-3.06-.05-3.06,4.7,0,4.76,25.59.44,51.17,0,76.71-1.45,6.79-.39,12.49-1.44,18.9,1,7.81,3,10.28,10.27,13.76,17.47a418.68,418.68,0,0,1,16.25,38.83,2.47,2.47,0,0,0,2.93,1.66c8.5-1.37,8.37,17.92,8.12,22.44-.51,9.11-3.47,17.7-12.64,21.36a2.45,2.45,0,0,0-1.74,2.29c.55,10.33-1.87,19.59-5.35,29.2-2.09,5.77-5.69,11.84-6.15,18-.55,7.53,2,15.42,2.3,23,.34,9.62.19,19.55-1.8,29-3.61,17.16-14,28.56-27.28,39.17C309.19,482.28,299,490,292.82,501.66l3.26-.85c-16.45-11.22-32.3-23.13-45.75-37.91-7-7.73-9.56-14.51-11.68-24.39-2-9.18-2.13-18.59-3.92-27.82-1.51-7.76-1.84-16-5.19-22.92a197.64,197.64,0,0,1-10.62-25.87c-3.35-10.56-4.72-21.77-5.89-32.76a2.42,2.42,0,0,0-2.38-2.37c-13.76.58-13.26-24.48-8.52-32.15,3.72-6,6.63-6.92,7.54-14.21,2.65-21.09,8.42-37.8,27.85-49.44,2.62-1.57.23-5.68-2.4-4.11Z" transform="translate(-6.72 -93.55)"/><path class="cls-6" d="M257.14,348.06c10.39,4.95,21.67,2.5,32.81,2.78,9.48.24,17.69-.42,23.76-8.39,1.32-1.74-.86-4-2.69-3.49-9.18,2.36-18.76,4.77-28.24,5.36-8.23.51-16.11-2-24.33-1.54-3,.19-3.06,4.94,0,4.76,9.65-.59,18.64,2.29,28.39,1.1a200.37,200.37,0,0,0,25.45-5.09l-2.69-3.5c-6.5,8.54-17.89,5.72-26.89,5.93-8,.19-15.6,1.59-23.17-2-2.75-1.31-5.16,2.79-2.4,4.11Z" transform="translate(-6.72 -93.55)"/><path d="M280.29,296.53c-3.67-3.89-10.3-3.14-14.71-.93a19.9,19.9,0,0,0-10.17,13.56c-2.61,12,12.84,17.26,22.27,14.69,2.82-.77,1.62-4.85-1.19-4.32-7.36,1.4-19.6-1.6-16.27-11.4a15.75,15.75,0,0,1,7.43-9c4-2.07,7.8-1.2,12.08-1.25a.81.81,0,0,0,.56-1.37Z" transform="translate(-6.72 -93.55)"/><path d="M244.62,337.05c-5.38,3.9-6.18,12.87-3.23,18.39a1.5,1.5,0,0,0,2.73-1.15,19.54,19.54,0,0,1-.92-8.06c.37-2.9,1.82-5,3-7.58.44-.94-.56-2.36-1.61-1.6Z" transform="translate(-6.72 -93.55)"/><path d="M251.59,342.77c20.43,6,46.07,2,66.25-3.56,2.65-.74,1.53-4.64-1.12-4.09-11.29,2.37-22.51,4.53-34,5.34-10.29.73-20.68-.08-30.92,1a.65.65,0,0,0-.17,1.27Z" transform="translate(-6.72 -93.55)"/><path d="M253.71,346c5.61,15.75,17.56,18.33,33.31,16.95,14.29-1.26,29-9.38,32.3-24.26a2.1,2.1,0,0,0-4-1.11c-4.75,12.93-15.1,19.51-28.57,20.88-5.47.56-12.27.91-17.59-.72-6.83-2.09-9.23-7.4-12.52-13-.89-1.5-3.51-.52-2.89,1.22Z" transform="translate(-6.72 -93.55)"/><path d="M310.8,325.47c2,4.34,6.7,4.8,9.79,8.09,6.45,6.86,2.48,16.49.5,24.22-.55,2.14,2.71,3.72,3.7,1.57,3.21-7,5.73-15.84,2.41-23.26-3.2-7.14-10.07-6.71-15-11.7-.75-.76-1.81.2-1.4,1.08Z" transform="translate(-6.72 -93.55)"/><path d="M248.91,397.81c6.83,17.71,18.06,20,35.84,20.25,12.46.2,37-1.45,38.18-18,.16-2.21-3.05-2.42-3.7-.5-5,14.91-25.9,14.47-38.49,14-7-.26-14.58.06-20.45-4.64-3.83-3.08-6.14-8.13-8.65-12.27-.85-1.39-3.36-.49-2.73,1.15Z" transform="translate(-6.72 -93.55)"/><path d="M205.64,290.09c-.42-3.73-3.66-5.7-7.37-4.48-6.27,2.06-5.9,11.2-5.89,16.35,0,8.43-.06,18,5,25.21,2.13,3.05,7.28,8.45,11,4.9a2.26,2.26,0,0,0,.59-2.21l-.21-.72a2.07,2.07,0,0,0-4,0s-6-9.4-6.17-10.07a43,43,0,0,1-1.44-10.41c-.16-2.66-.22-5.35-.2-8,0-1.15,1.33-16.24,6.14-9.88.7.92,2.71.82,2.53-.69Z" transform="translate(-6.72 -93.55)"/><path d="M207.27,302.37c-.92,11.83.82,24.32,1.88,36.14.88,9.81,2.13,19.7,5.11,29.12,5.74,18.14,19,31.89,35.46,41,2.05,1.13,4.56-1.77,2.61-3.38-7.4-6.11-15.74-11-22.12-18.28-6.84-7.84-10.9-17.48-13.41-27.49-4.7-18.76-3.44-38.66-8.42-57.26a.57.57,0,0,0-1.11.15Z" transform="translate(-6.72 -93.55)"/><path d="M361.16,298.09c-1.3,19.31.22,39.43-4.07,58.43-4.23,18.73-17.59,31.19-30.91,43.94-2.15,2.06,1.06,5.2,3.25,3.25,13.11-11.69,26.3-24.81,31.22-42.19,5.52-19.51,5.44-43.45,3.42-63.43a1.46,1.46,0,0,0-2.91,0Z" transform="translate(-6.72 -93.55)"/><path d="M362,337.27c13.1-.84,16.05-12,17.32-23.59.81-7.42,3.86-32-9.68-29.22-2.34.48-1.81,4.23.57,4.16,8.14-.26,4,29.11,3.35,31.77-1.94,8.05-3.88,7.47-9.92,13.06-.92.86-1.45.58-2.48,1.79-.61.72-.27,2.1.84,2Z" transform="translate(-6.72 -93.55)"/><path d="M203.67,287c.78-17.92,6.69-48.15,27.15-54,3-.85,1.72-5.51-1.29-4.66-22.11,6.23-31.15,38.49-29.69,58.64a1.92,1.92,0,0,0,3.83,0Z" transform="translate(-6.72 -93.55)"/><path d="M333.51,228.47c8.15-.87,20,28.3,22,34a98.08,98.08,0,0,1,4.93,35.62c-.12,3.28,4.9,3.25,5.08,0a97.84,97.84,0,0,0-10.06-48.93c-3.06-6.17-13.63-28-22.81-24-1.55.69-.8,3.45.89,3.26Z" transform="translate(-6.72 -93.55)"/><path d="M258.92,352.67c15.34,4.06,33.69,3.9,48.77-1.16l-1.25-4.5c-13,5.16-29.19,4.52-43,4.19-1.65,0-3.15,2.11-2.05,3.57,4.27,5.65,12.31,5.4,18.89,5.68,9.45.41,18.41-1,26.8-5.51,3.05-1.63.36-6.2-2.7-4.62A44.69,44.69,0,0,1,285,355.2c-4.89.18-16.66.78-19.88-3.3l-1.68,4c14.26.37,30.68.65,44.25-4.43,2.77-1,1.63-5.49-1.25-4.5-15.9,5.49-31.39,1.69-47.52,4-.89.13-.78,1.49,0,1.7Z" transform="translate(-6.72 -93.55)"/><path d="M223.36,387.17c5.58,22.51,2.13,48.13,12.65,69.3,4.14,8.33,10.55,14.3,17.81,19.94,11.61,9,23.46,17.74,35.23,26.54,2.69,2,5.26-2.49,2.63-4.48-9.64-7.27-19.33-14.46-29-21.71-10.29-7.73-19.8-14.88-24.64-27.28-7.91-20.25-3.29-43-11.52-63.19-.78-1.91-3.7-1.24-3.18.88Z" transform="translate(-6.72 -93.55)"/><path d="M350.75,376.58c-2.79,25.47,3.64,55-10.21,78-12.35,20.48-34,33.11-49.05,51.38-2.17,2.64,1.61,6.45,3.79,3.78,16-19.57,39.58-32.93,51.57-55.7,5.19-9.85,6.54-20.3,7.09-31.28.76-15.2,1.34-31-.5-46.15a1.35,1.35,0,0,0-2.69,0Z" transform="translate(-6.72 -93.55)"/><path d="M226.44,399.33c-13.51,2.75-15.82,18.69-17.32,30.15-1.3,10-2.09,20.08-2.93,30.11-.82,9.69-2.8,20.34-2.16,30,.83,12.6,14.6,6.74,22.86,5.88,21.2-2.19,42.09,2.92,60.34,13.74,3,1.81,5.85-3,2.78-4.76-21-12.12-45.34-17.18-69.41-13.17-3.78.63-8.54,2.74-11.52-1.69-1.18-1.75.57-8.72.71-10.72q.78-11.79,1.73-23.57c1.16-14.12-1-46.73,15.87-52.54a1.79,1.79,0,0,0-.95-3.44Z" transform="translate(-6.72 -93.55)"/><path d="M296.56,508.81l-1.67-.28.43,3.24c14.8-11,29.39-20.37,47.58-24.81,8.18-2,16.45-2.32,24.76-3.33,3.48-.43,7.84-.47,10.22-3.51,6.75-8.61-3.49-28.08-6.49-36.35a171.22,171.22,0,0,1-7.77-28.29c-1.31-7.34-1.95-14.37-5.71-21-1.72-3-6.38-.31-4.67,2.73,4.12,7.35,4.22,15.8,5.87,23.88a163.26,163.26,0,0,0,5.66,20.5c2.5,7.26,5.67,14.33,7.51,21.81,1.32,5.35,3.13,8.84-1.49,12.6-3.69,3-7.86,2.46-12.35,2.93-23.78,2.49-48.8,12.12-65.27,30-1.55,1.68.94,4.19,2.51,2.52l1.24-1.33a.82.82,0,0,0-.36-1.36Z" transform="translate(-6.72 -93.55)"/><path d="M293.5,490a15.63,15.63,0,0,0,3.41-5.39c.61-1.67-1.87-3.09-3-1.75a15.52,15.52,0,0,0-3.06,5.59A1.61,1.61,0,0,0,293.5,490Z" transform="translate(-6.72 -93.55)"/><path d="M292.16,507c-8.06,9.47-5.93,27.49-3.49,38.71.51,2.33,4.25,1.82,4.16-.56-.23-6.39-1.34-12.68-1.3-19.1s1.9-12.1,2.46-18.29a1.08,1.08,0,0,0-1.83-.76Z" transform="translate(-6.72 -93.55)"/><path d="M288,224.58s0-.09,0-.09a0,0,0,1,0,0,.09Z" transform="translate(-6.72 -93.55)"/><path d="M156.57,233.41a1.17,1.17,0,0,0-.35.58.2.2,0,0,0,.25.25,1.21,1.21,0,0,0,.58-.35c.31-.3-.18-.79-.48-.48Z" transform="translate(-6.72 -93.55)"/><path d="M362.63,356.58c33.48-13.79,58.62-43.81,61.05-80.75,1.06-16.23-1.87-36.3-15.24-47.16-14.53-11.79-35.08-10.5-52.5-8.65-40.57,4.32-81.79,8.53-122.5,3.77-30.27-3.55-90.15-15.38-92.31,30.73-1,22,12.09,45.8,23.41,63.78,10.91,17.33,24.76,33.66,46.55,35,3.41.21,3.4-5.1,0-5.31-25.5-1.57-40.42-27.52-50.88-47.9-10.36-20.18-27-59.88,3.39-71.81,21-8.25,48.23-2.18,69.84.34,17.54,2,34.43,2,52,1.3,21.59-.85,42.71-1.91,64.22-4.34,23.75-2.69,55.67-6.28,65.8,21.58,16,44.09-15.14,88.57-53.89,106.91-1.38.65-.38,3.1,1.06,2.5Z" transform="translate(-6.72 -93.55)"/><path d="M212.74,359.49c-11.82-.55-21.92-3.42-30.65-11.73a220.66,220.66,0,0,1-26.67-30.3C141.58,298.28,134,276.05,136,252.2c3.68-43.91,55.48-36.1,85.27-31.45,23.46,3.66,47.68,2.75,71.34,1.48,15.8-.86,31.16-3.71,46.82-5.84,22.41-3.06,50.13-7.61,69.91,6.63,11.76,8.46,18,29.75,18.69,43.77.76,14.92-5.15,32.39-11.72,45.69-11.68,23.65-34.64,41.23-58.69,50.91-2.76,1.11-1.56,5.63,1.24,4.51,21.41-8.56,40.41-22.32,54.07-41,14.74-20.23,24.14-50,17.36-74.61-2.61-9.52-6-21-12.83-28.5-7.65-8.36-19.71-12.43-30.58-14.14-23.52-3.69-48.4,1.85-71.58,5.64-33.65,5.5-69.53,4.35-103.13-.64-28.58-4.24-73.6-5.77-80,31.82-4.73,27.64,5.37,54.88,21.91,76.63,15.28,20.09,31.57,40.6,58.73,39.94a1.75,1.75,0,0,0,0-3.5Z" transform="translate(-6.72 -93.55)"/><path d="M231,217c15.32-2.72,29.65-7.64,45.35-8.76a167.47,167.47,0,0,1,45.94,3.1c3,.62,4.27-4,1.26-4.6-29-5.41-66.64-6.4-93,9.1A.64.64,0,0,0,231,217Z" transform="translate(-6.72 -93.55)"/><path d="M344.23,212a.49.49,0,0,0,0-1,.49.49,0,0,0,0,1Z" transform="translate(-6.72 -93.55)"/><path d="M352,211.42c-1.66-15.6-2.35-35.27-15.75-45.67-14.15-11-33.83-12.95-51.11-13.87-18.32-1-38.05.55-54.38,9.72-17.57,9.85-19.08,32-22.43,50-.56,3,4,4.29,4.6,1.27,3.51-17,5-38.94,22.13-47.63,14.84-7.51,31.81-9,48.19-8.29,14.81.6,31.59,1.92,44.72,9.46,16.71,9.6,16.29,28.76,20.92,45.43.46,1.66,3.3,1.41,3.11-.42Z" transform="translate(-6.72 -93.55)"/><path d="M265,189.75a14.37,14.37,0,0,1-2.17.13,1.23,1.23,0,1,0,.33,2.43c8.38-1.3,17-2.53,25.48-2.06,2,.11,2.44-3.11.47-3.48a43.59,43.59,0,0,0-28.94,4.17c-2.18,1.16-.26,4.35,1.92,3.29a41.66,41.66,0,0,1,26.07-4l.48-3.49c-8.84.69-17.48,1.19-26.14,3.22l1.52,1.53,1.08-1c.4-.07.31-.76-.1-.72Z" transform="translate(-6.72 -93.55)"/><path d="M210.26,422.45c-12.39,7.64-23.84,16.31-36.93,22.85-12,6-24.73,10.66-36.43,17.36C120.4,472.1,101,489.87,103.54,511c.23,1.89,3.3,2.8,3.7.5,4.6-26.73,22-40.61,45.68-51.72,20.52-9.64,42.85-18.67,58.61-35.63.78-.85-.23-2.29-1.27-1.65Z" transform="translate(-6.72 -93.55)"/><path d="M357.36,418.37a239.56,239.56,0,0,0,33.05,16.19c11.71,4.53,23.94,6.77,35.95,10.27,14.39,4.21,26,11.45,34.9,23.62,6.93,9.48,11.05,20.31,16.73,30.47,1.27,2.27,5.21.75,4.3-1.81-7.42-20.77-20.57-42.82-41.28-52.38-12-5.54-25.28-7.24-37.9-10.85-15.4-4.41-29.7-11.58-44.34-17.93-1.61-.7-3,1.49-1.41,2.42Z" transform="translate(-6.72 -93.55)"/><path d="M232,245.71c-.4.3-.81.59-1.19.91s.06.54.31.4c.41-.24.8-.5,1.21-.75s0-.81-.33-.56Z" transform="translate(-6.72 -93.55)"/><path d="M230.85,246.48a5.84,5.84,0,0,0-1.74.84c-.25.21,0,.59.31.52a5.34,5.34,0,0,0,1.65-.83c.26-.17.1-.65-.22-.53Z" transform="translate(-6.72 -93.55)"/><path d="M206.86,256.48a155.78,155.78,0,0,0-2.82,18c-.76,7.7.22,16-2.1,23.48-.9,2.88,3.6,4.1,4.51,1.24a41,41,0,0,0,1.69-18.67l-4.44.61a63.73,63.73,0,0,1-.8,23.4,2.28,2.28,0,0,0,4.14,1.75,17.1,17.1,0,0,0,2.84-8.62l-4.46.6.11,6,4.48.6c-1.34-17.65-4.92-35.75,2.57-52.45,1.14-2.52-2.45-4.76-3.79-2.22-8.9,17-4.76,36.34-3.34,54.67.19,2.46,3.79,3.23,4.48.61a13.83,13.83,0,0,0-.13-8.42,2.28,2.28,0,0,0-4.46.61L203.12,304l4.15,1.75a70.51,70.51,0,0,0,.79-25.82c-.37-2.49-4.77-1.93-4.44.6A37.72,37.72,0,0,1,201.94,298l4.51,1.24c4-12.83,1.83-29,2.73-42.4a1.19,1.19,0,0,0-2.32-.31Z" transform="translate(-6.72 -93.55)"/><path d="M351.86,257.52c2.87,13.61,0,28.22,10.45,39.08,1.7,1.76,5.11,0,4.25-2.47-2.27-6.43-4.61-12.84-6.93-19.25l-4.45,1.88,8.16,12,3.61-3.61a33.68,33.68,0,0,1-6.44-5.83c-1.89-2-5,.12-4.42,2.58a29.58,29.58,0,0,0,5.27,11.74l4.23-3.27-3.46-3.18a2.76,2.76,0,0,0-4.66,1.93c-.18,4.67,1.24,7.76,3.67,11.78l4.32-3.33a12.17,12.17,0,0,1-4.29-4.79c-1.57-2.56-6.19-.91-5.05,2.13a46,46,0,0,0,5.4,10.47c2,2.93,6.88.13,4.81-2.81a38.49,38.49,0,0,1-4.89-9.13l-5,2.13a20.78,20.78,0,0,0,5.17,5.89c2.28,1.81,6.07-.45,4.32-3.33a14.91,14.91,0,0,1-3-9L358.27,291l3.51,3.14c2.14,1.9,6.18-.69,4.23-3.27a25.93,25.93,0,0,1-4.82-10.43L356.77,283a52.72,52.72,0,0,0,7.52,6.65c2.1,1.54,5.13-1.52,3.61-3.61l-8.52-11.78c-1.49-2.06-5.42-.93-4.45,1.88,2.23,6.43,4.44,12.88,6.73,19.3L365.9,293c-9.31-9.62-6.88-24.37-11.12-36.29a1.52,1.52,0,0,0-2.92.81Z" transform="translate(-6.72 -93.55)"/><path d="M289.74,505.69c-1.2-6.5-8.66-10.56-14.61-11.94-8.5-2-18,.29-25.19,5-1.17.77-.45,3,1,2.42,6.73-2.71,13-5.76,20.53-5,7.83.76,11.65,5.27,17.21,10.12a.62.62,0,0,0,1-.6Z" transform="translate(-6.72 -93.55)"/><path d="M259.3,479.11c-8.83-12.31-27.46-13.06-37.49-1.69a1.32,1.32,0,0,0,1.86,1.86c11-9.44,23.73-8.87,34.35.81.64.59,1.84-.2,1.28-1Z" transform="translate(-6.72 -93.55)"/><path d="M106.31,503.57l0-.79a.19.19,0,0,0-.38,0l0,.79c0,.29.46.29.44,0Z" transform="translate(-6.72 -93.55)"/><path class="cls-5" d="M47.09,468c-10.34,6.13-19.76,9-30.95,13.36-2,.77-4.18,1.72-5,3.7a7.66,7.66,0,0,0-.18,3.66c.34,3,1.2,6.72,4.14,7.53,1.72.48,3.51-.27,5.14-1a1096.88,1096.88,0,0,1,146.4-53.43c2-.57,4.18-1.3,5.14-3.13,1.35-2.57-.76-5.86-3.5-6.83s-5.75-.3-8.57.4a590.2,590.2,0,0,0-78.69,25.34c-11.21,4.49-22.43,9.37-34.39,11.07" transform="translate(-6.72 -93.55)"/><path class="cls-5" d="M45.89,465.91c-9.15,5.17-18.87,8.47-28.55,12.42-3.41,1.39-7.18,2.54-8.5,6.38-3.12,9.15,4.09,15.41,12.07,12.81,19-6.2,37.3-16.08,56-23.25q28.32-10.84,57.21-20.12c9.63-3.09,19.35-5.88,29-8.87,3.53-1.09,9.32-1.82,11-6,3.81-9.58-9.22-10.47-15-9.36-18.74,3.63-37.52,10.25-55.47,16.59-19,6.72-37.62,16.4-57.61,19.82-3,.52-1.73,5.1,1.26,4.59,25.21-4.32,49-17.29,73.29-25.12q9.85-3.17,19.8-6c4.52-1.28,15.29-6.28,20-5.3l5.65,5-4.16,1.2c-2.77,1.53-7.27,2.14-10.39,3.07q-10.37,3.14-20.67,6.46-39.16,12.66-77.31,28.22c-5.3,2.16-36.36,18.36-39.84,11.95-2.84-5.21,30.46-18,34.62-20.38,2.66-1.51.27-5.62-2.4-4.11Z" transform="translate(-6.72 -93.55)"/><path class="cls-8" d="M65.67,480.26a18.18,18.18,0,0,0,18.1,21.68c-1.63,16.5-4.14,21.3-5.77,37.8,13.4,1.42,28-1.51,40.47-6.54a2.34,2.34,0,0,0,1.78-3.19c-1.79-11.72-4.16-13.94-6-25.65a5.56,5.56,0,0,1,.17-3.31c.58-1.19,1.9-1.79,3-2.46a15.81,15.81,0,0,0,7.29-9.51c.81-3.06,2.11-6.55,3-9.6,2-7.45,7.85-12,14.93-15.06,3.35-1.46,6.84-2.73,9.81-4.87s7.05-3.71,7.24-7.36a7,7,0,0,0-1.85-4.23c-.79-.55-4.86.46-5.8.66-26.15,5.54-47.86,16.86-72.33,27.63-4.35,1.91-8.84,3.75-13.58,4.11" transform="translate(-6.72 -93.55)"/><path class="cls-8" d="M63.29,480.26c-1.35,13.35,7.28,23,20.48,24.06l-2.38-2.38C80,514.63,77,527.05,75.63,539.74c-.15,1.34,1.21,2.29,2.37,2.38,12.56,1,25.89-.59,37.64-5.31,8.25-3.31,7.57-6,5.47-14.74-1.38-5.72-4.74-12-3.11-17.89,1.32-4.74,5.43-6.52,7.78-11,2.75-5.28,3.14-11.36,6.22-16.56,4.6-7.76,11.15-9.15,18.58-13.1,5.1-2.7,13.59-7.14,10.88-14.22-2.39-6.23-9.17-3.2-14.09-2a235.77,235.77,0,0,0-37,12.73c-14.31,6.1-29.36,15.78-44.84,18.08-3,.45-1.73,5,1.27,4.59,9.72-1.45,18.55-6.3,27.42-10.32,11.47-5.19,22.94-10.43,34.81-14.64,5.12-1.82,10.3-3.46,15.55-4.84,1.7-.45,6.5-2.49,8.12-1.94,2.15-1,2.59-.26,1.34,2.34q.65,2.65-1.58,3.48c-5.52,6.17-16,6.54-21.9,13-5,5.47-4.84,12.44-8.07,18.73-3.6,7-10.8,8.24-10.55,16.22.23,7,9.24,21.92,2.42,27.56-3.72,3.07-13.63,3.89-18,4.54a80.64,80.64,0,0,1-18.37.59l2.38,2.38c1.39-12.69,4.38-25.1,5.76-37.8.15-1.34-1.21-2.28-2.37-2.37-10.89-.86-16.79-8.76-15.72-19.31.31-3-4.45-3-4.76,0Z" transform="translate(-6.72 -93.55)"/><path class="cls-8" d="M67.92,439.05c-6.27-.43-11.1,5.44-13.75,11.14-3,6.4-4.61,14.08-1.47,20.39.51,1,1.55-1,2.59-.52,1.83.86,3.22-.1,4.85-1.29,3.54-2.59,6.45-5.13,8.49-9-.54,2.71,2.82,7.25,5.57,7.08s5.08-2.11,6.82-4.25,3.15-4.58,5.24-6.38c-.22,3.55,2.9,6.79,6.42,7.29a10.46,10.46,0,0,0,9.32-4.14,18.13,18.13,0,0,0,3.46-9.94c-.6,4.12,3.65,7.82,7.81,7.64s7.72-3.31,9.61-7,2.42-7.93,2.91-12.06a38.3,38.3,0,0,0,8.78-1.21,3.83,3.83,0,0,0,1.58-.7c1.45-1.3.27-3.68-1.06-5.1-4.05-4.31-8.83-8.07-14.45-9.9a7.76,7.76,0,0,0-6,.49,7.24,7.24,0,0,0-2.46,3.37,85.49,85.49,0,0,0-4.24,11.59,18.16,18.16,0,0,0-3.3-10.67c-3.07-4.37-7.71-3.06-10.83,1.56a43.34,43.34,0,0,0-5.44,10.48c-1-1.79.32-4.14-.43-6.06a4,4,0,0,0-4.36-2.11A10.27,10.27,0,0,0,79,432.12a50.94,50.94,0,0,0-9.18,9.49" transform="translate(-6.72 -93.55)"/><path class="cls-8" d="M67.92,436.67c-13.17,1.23-24,20.67-18.11,32.92,4.85,10.05,17.43-3.16,20.87-8.63l-4.43-1.2c.48,4.22,2.73,9.05,7.64,9.42,6.42.47,10.43-7.52,14-11.29l-4-1.05c.93,5.82,5.51,9.88,11.66,9,7.86-1.18,11.09-8.8,12.12-15.74l-4.67-.63c.9,7,6.47,11.88,13.81,9.29,8.57-3,10.28-12.93,11.28-20.72l-2.38,2.38c3.61-.22,10.36.15,12.54-3.38,3.09-5-3.87-10.26-7-12.7-4.34-3.34-11.65-8.07-17.33-5-5.11,2.75-6.79,11.61-8.35,16.62l4.67.63c-.54-5.75-2.48-15.35-9.92-15.72-7.91-.39-12,10.78-14.32,16.46l4.67.63c-.51-4.95.18-9.61-5.87-10.37-6.72-.84-13.24,8-16.74,12.39-1.89,2.38,1.45,5.76,3.36,3.37C74,440.12,85,428.78,86,437.9a2.39,2.39,0,0,0,4.67.63q2.4-13.61,14.9-2a2.39,2.39,0,0,0,4.67.63c2.46-7.86,3-16.56,15.57-11,5.92,2.62,8.85,8.91,0,9.44a2.47,2.47,0,0,0-2.38,2.38,33.58,33.58,0,0,1-1.24,7.06q-1.47,8.22-14.33,4.37c-.3-2.36-4.24-3.55-4.67-.63q.15,10.29-14.62,6.79c-.28-1.8-2.83-2.24-4-1.05-1.33,1.38-12.51,14.61-13.57,5.23-.26-2.26-3.09-3.33-4.43-1.2-2,3.15-8.23,11.16-13.22,9.47.4.14,2.32-18.33.71-10.48,1.37-6.67,6-15.39,13.85-16.13,3-.28,3-5,0-4.75Z" transform="translate(-6.72 -93.55)"/><path d="M127.4,419.64c-4.31-6.66-13.87-5.51-18.24.7-3.19,4.54-3.69,11.26-4.4,16.57-.6,4.45-3.09,14.67-.68,18.66s11.36,5.74,15.17,3.79c8.31-4.26,12.29-19,7-26.47-1-1.44-4-.61-3.16,1.34,2.71,6.5,2,16.11-4.11,20.93-2.72,2.14-4.78,1.62-7.72.64-3.75-1.25-3.37-.87-4.15-4.25-1.3-5.55.85-14.66,1.87-20a19.36,19.36,0,0,1,3.53-8.75c3.87-5.6,8.78-4.85,14.43-2.48.37.16.71-.35.51-.67Z" transform="translate(-6.72 -93.55)"/><path d="M107.43,423.68c-3.39-7.64-12.35-5-16.48.56-5.64,7.59-8.7,22.36-7.52,31.59a11.55,11.55,0,0,0,11.43,10.28c5,.06,10.42-5.23,10.6-10.22a1.34,1.34,0,0,0-2.61-.36c-2.42,11.17-16.62,8.75-16.54-2.29a63.42,63.42,0,0,1,2.26-14.79c1.45-5.67,7.37-24.14,17.46-13.69.75.78,1.78-.21,1.4-1.08Z" transform="translate(-6.72 -93.55)"/><path d="M88.69,426.58c-18.61-4.86-24.57,20.44-22.6,33.74.82,5.49,3.21,8.7,9,9.55,5.49.81,8.72-3.56,10.32-8.47a1,1,0,0,0-1.73-1c-2.46,2.5-4.14,6.75-8,6.31-6.79-.76-6.9-8.86-6.78-14,.28-12.48,5.85-23.73,19.63-24.5a.82.82,0,0,0,.21-1.6Z" transform="translate(-6.72 -93.55)"/><path d="M67.4,436.76C52.93,433,48,455.28,47.91,465.33c0,3.62,1.24,7.16,5.21,8.31,5.7,1.66,12.39-5.47,15.51-9.39A1.14,1.14,0,0,0,67,462.64c-2.73,2.5-6.1,6.26-9.64,7.51-8.91,3.15-6.57-8.11-5.8-12.39,1.71-9.44,5.45-18.05,15.82-19.67.7-.11.62-1.17,0-1.33Z" transform="translate(-6.72 -93.55)"/><path d="M91.12,480.9a48.29,48.29,0,0,1,7.95-6.37,73.06,73.06,0,0,1,8.62-4c1.59-.7.36-2.85-1.1-2.61-6.71,1.12-13.52,5.95-17.39,11.46-.83,1.18.94,2.4,1.92,1.49Z" transform="translate(-6.72 -93.55)"/><path d="M125.22,458.37c.48-.71,14.36-5.82,14.85-6,3-1.12,8-3.39,11.23-3.45q7.08-3,7.5,8.72a23.5,23.5,0,0,1-7,4.53c-4,2.13-8.2,3.78-12.08,6.22-3.61,2.28-7.46,4.67-9.37,8.66-1.33,2.79-1.15,6.15-2,9.08-1.91,6.7-5.9,11.68-11.37,15.88-1.78,1.37-.12,4.45,1.81,3.1a32.64,32.64,0,0,0,10.77-11.86c4.25-8.29,3.4-15.39,12-21.75,7.44-5.53,22.65-8,24.15-19.41,1.07-8.21-6.52-8.12-12.68-6.95s-27.62,5.94-28.61,13.59a.53.53,0,0,0,.38.51l.51.1a.46.46,0,0,0,.54-.31l.1-.37a.37.37,0,0,0-.67-.29Z" transform="translate(-6.72 -93.55)"/><path d="M63.28,478.89c.12,5.7-.5,15,2.93,20,3.24,4.74,12.35,6.91,17.57,7.77,1.33.22,2.4-1.64,1-2.37-5-2.56-13.43-2.78-16.42-7.72S66,484.2,65,478.66c-.18-1-1.73-.74-1.71.23Z" transform="translate(-6.72 -93.55)"/><path d="M79.19,505.75c-.7,10.44-1.6,20.75-3.1,31.12a1.83,1.83,0,1,0,3.61.49,253.22,253.22,0,0,0,2-31.61,1.25,1.25,0,0,0-2.49,0Z" transform="translate(-6.72 -93.55)"/><path d="M115.83,504.89c1.56,9,2.77,17.53,2.14,26.69-.15,2.15,3.34,2.18,3.36,0,.1-9-.79-18.62-4-27.09a.76.76,0,0,0-1.47.4Z" transform="translate(-6.72 -93.55)"/><path d="M48.89,464.72A240.63,240.63,0,0,0,26,473.38c-5.22,2.17-12.76,3.9-16.87,7.77-6.19,5.84,1,15.4,6.8,18.36,1.45.74,3.21-1.19,1.84-2.38-3.39-2.92-7.9-6.3-6.45-11.14,1.27-4.24,7.91-5.78,11.81-7.57,8.81-4,17.87-7.59,26.58-11.82,1-.51.31-2.21-.79-1.88Z" transform="translate(-6.72 -93.55)"/><path d="M17.25,500c3.65-4.65,1.5-15.37-3.87-18.06-1.1-.55-2.46.6-1.76,1.75,1.56,2.56,3.54,4.29,4.45,7.31s.12,5.55.05,8.53c0,.53.76.93,1.13.47Z" transform="translate(-6.72 -93.55)"/><path d="M17.93,498.4c38.78-15,77.38-30.86,116.52-44.93a1.84,1.84,0,1,0-1.42-3.38c-38.25,16.29-78,29.4-115.74,46.81-.84.38-.23,1.84.64,1.5Z" transform="translate(-6.72 -93.55)"/><path d="M130.74,439.53c-1.74-.75-1.57-.74-3.5-.36-1.39.27-.8,2.41.58,2.13,11.86-2.42,23.5-5.88,35.31-8.54,2.07-.46,4.79-1.4,6.42.73,4.17,5.47-3.85,7.57-6.48,8.51a150.27,150.27,0,0,1-16.51,4.62c-2.16.5-1.25,3.78.91,3.31a126.17,126.17,0,0,0,15-4.22c3-1,8.18-2,10.53-4.32,3.93-3.82.2-8.6-1.71-12.89a1.79,1.79,0,0,0-2-.83c-13.95,4-28.17,7.2-42,11.5l.85,2,2.49-1.05c.27,0,.49-.46.16-.61Z" transform="translate(-6.72 -93.55)"/><path d="M121.45,420.22c5.22-.91,8.45,3.37,11.55,6.89,2.85,3.26,5.31,6.73,6.42,11,.59,2.22,4.2,1.16,3.4-.94-2.15-5.64-5.83-10-10.09-14.2-3.4-3.33-7-6.46-11.86-4.08-.81.39-.2,1.5.58,1.36Z" transform="translate(-6.72 -93.55)"/><path d="M256.41,259.47c-5-4.38-13.2-7.16-19.51-4.21-5.05,2.36-10.68,9.23-12.78,14.27-.48,1.18.93,2.35,2,2,4.09-1.25,5.9-5.38,8.59-8.4,6-6.72,12.49-4.54,19.64-1,1.61.79,3.56-1.3,2-2.64Z" transform="translate(-6.72 -93.55)"/><path d="M305.08,265.37c9.24-6.86,19.05-5,25.05,4.65,1.28,2.07,5,.76,4.1-1.72-4.63-12.78-22.47-16.15-31.16-5.54-1.09,1.33.37,3.82,2,2.61Z" transform="translate(-6.72 -93.55)"/><path d="M247.24,279.47c-2.87,2.18-3.43,7-3.86,10.33a2,2,0,0,0,2.59,2c4.29-1.51,5.51-6.2,5.64-10.33.06-2.16-1.17-4.85-3.84-4-2.25.76-3.1,4.11-3.7,6.11s-1.77,5.66-.68,7.64c1.19,2.15,4,1.56,5.23-.11s1.88-4.56,2.1-6.73a8.84,8.84,0,0,0-2-6.67,2.37,2.37,0,0,0-3.7.48c-1.51,3.25-3.11,8.53-.73,11.72a1.85,1.85,0,0,0,3.34-.43,21,21,0,0,0,.26-4.34,12.48,12.48,0,0,1,1.2-4.57l-3.7.47a4.63,4.63,0,0,1,.49,3.64,16.91,16.91,0,0,1-.48,1.86c-.3,1-1.05,1.49.25,1.38l1.67.69-.26-.25.69,1.67a13.11,13.11,0,0,1,.51-4.53c.18-.71.38-1.41.61-2.1.12-.35.24-.69.38-1,.51-.77.56-1,.15-.68l-1.72-.22.38.28-1-1.33c.85,2.4-.41,6.48-2.69,7.61l3.08,1.76a17.08,17.08,0,0,1,.5-5c.35-1.42,1.09-2.76,1.13-4.23a1.25,1.25,0,0,0-1.86-1.07Z" transform="translate(-6.72 -93.55)"/><path d="M317.29,278.73c-4.1-1.5-4.19,7.69-4.07,9.78.09,1.63,2.29,2.92,3.53,1.46a14.89,14.89,0,0,0,3.18-6.1c.46-1.85,1-4.59-.49-6.14s-3.56-1-4.87.25c-1.59,1.5-2.37,4.08-2.83,6.15s-.95,4.65-.21,6.61a3,3,0,0,0,4.28,1.7c1.93-1.08,2.6-4.1,2.91-6.12a16.7,16.7,0,0,0-.61-7.75A2.29,2.29,0,0,0,314,278c-1.6,2.71-2.68,6.32-.6,9,.87,1.13,2.39.26,2.81-.74.84-2,.54-4,1.7-6l-4.14-.55a12.93,12.93,0,0,1,.61,4.78c-.07.83-.38,3.64-1.13,4l1.78-.23c.63.94.89,1.09.8.45,0-.35,0-.7,0-1.06a14.27,14.27,0,0,1,.17-2,15.86,15.86,0,0,1,.44-1.93,14,14,0,0,0,.89-2.29L316,280.4a7.78,7.78,0,0,1-.06,1.18,9.86,9.86,0,0,1-.36,1.86,13.6,13.6,0,0,1-2.12,4l3.78.5a13.19,13.19,0,0,1-.19-3.71,15.68,15.68,0,0,1,.29-1.82c.14-.67.58-1.06-.09-.92,1.51-.31,1.23-2.34,0-2.78Z" transform="translate(-6.72 -93.55)"/><path d="M237.89,296.32c4.05-.37,8.78-.55,12.63-1.81,1.83-.6,1.6-3.51-.47-3.46-4.08.1-8.59,1.47-12.54,2.47-1.52.39-1.25,3,.38,2.8Z" transform="translate(-6.72 -93.55)"/><path d="M308.39,293.88a79.56,79.56,0,0,0,8.17.81c3.06.3,6.06,1,9.11,1.26,2.21.22,2.68-3.4.53-3.87-5.36-1.18-12.44-1.7-17.81-.48a1.19,1.19,0,0,0,0,2.28Z" transform="translate(-6.72 -93.55)"/><path d="M279.09,296.43c-3.67-3.89-10.3-3.14-14.72-.93a20,20,0,0,0-10.17,13.56c-2.61,12,12.84,17.27,22.28,14.7,2.82-.76,1.62-4.85-1.19-4.32-7.36,1.4-19.61-1.6-16.28-11.41a15.77,15.77,0,0,1,7.44-9c4-2.07,7.8-1.19,12.08-1.25a.81.81,0,0,0,.56-1.37Z" transform="translate(-6.72 -93.55)"/><path d="M269.68,266.17c-1.34,1.76-.28,6.13-.28,8.23,0,2.57-.24,5.19,0,7.75.17,1.8,3.1,2.56,3.44.46a41.84,41.84,0,0,0-.14-10.78c-.23-2.33-.09-5.54-1.66-7.39a1.36,1.36,0,0,0-1.33-.35,1.82,1.82,0,0,0-1.4,1.5.75.75,0,0,0,1.37.58Z" transform="translate(-6.72 -93.55)"/></g></svg>