<?xml version="1.0" encoding="UTF-8"?>
<svg width="21px" height="26px" viewBox="0 0 21 26" version="1.1" xmlns="http://www.w3.org/2000/svg" xmlns:xlink="http://www.w3.org/1999/xlink">
    <!-- Generator: Sketch 48.2 (47327) - http://www.bohemiancoding.com/sketch -->
    <title>peachjar</title>
    <desc>Created with Sketch.</desc>
    <defs></defs>
    <g id="Page-1" stroke="none" stroke-width="1" fill="none" fill-rule="evenodd">
        <g id="Group" fill-rule="nonzero">
            <path d="M20.79,15.74 C20.53,9 13.33,8.46 13.33,8.46 C9.86,7.74 8.62,10.19 9.17,12.55 C9.17,12.55 10.4,22.25 11.54,26 C13.66,23.86 21.06,22.49 20.79,15.74 Z" id="Shape" fill="#FF6D00"></path>
            <path d="M8.6,0 C10.6,1.83 12.41,4.17 12.65,6.79 C12.8168875,8.52159926 12.3940374,10.2588084 11.45,11.72 C9.02013801,11.2675459 7.22930536,9.19001387 7.14,6.72 C7.04918517,4.39245664 7.55158684,2.08003251 8.6,0 Z" id="Shape" fill="#4CAF50"></path>
            <path d="M11.92,11.78 C12.49,6.87 18.05,6.56 18.05,6.56 L17.45,5.09 C14.11078,5.70710287 11.5249814,8.36506321 11,11.72 C11.3076874,11.7186277 11.6150971,11.7386762 11.92,11.78 Z" id="Shape" fill="#AA721B"></path>
            <path d="M18.05,17.42 C18.05,11.68 11.25,11.72 11.25,11.72 C10.4722211,10.6493345 9.18770713,10.0678829 7.87,10.19 C6.55509882,10.1877979 5.24840527,10.3971389 4,10.81 L3.83,11 C1.28332856,13.7377758 1.24430176,17.9656793 3.74,20.75 C6.17,23.55 10,24.94 11.53,26 C11.53,24.22 18.05,22.17 18.05,17.42 Z" id="Shape" fill="#FFAB00"></path>
            <path d="M6.26,6.4 C4.21478863,5.85930325 2.11450885,5.55399101 8.8817842e-16,5.49 C0.680867263,7.42418308 1.88146397,9.13338992 3.47,10.43 C5.68082867,12.1415234 8.60283587,12.6297765 11.25,11.73 C11.27,10.59 9.33,7.27 6.26,6.4 Z" id="e75eadba-98be-434f-9595-807cd3e4bf6a" fill="#64DD17"></path>
        </g>
    </g>
</svg>