<?xml version="1.0" encoding="utf-8"?>
<!-- Generator: Adobe Illustrator 19.2.1, SVG Export Plug-In . SVG Version: 6.00 Build 0)  -->
<svg version="1.1" id="Layer_1" xmlns="http://www.w3.org/2000/svg" xmlns:xlink="http://www.w3.org/1999/xlink" x="0px" y="0px"
	 viewBox="0 0 40 50" enable-background="new 0 0 40 50" xml:space="preserve">
<g>
	
		<radialGradient id="SVGID_1_" cx="-1841.5137" cy="680.8217" r="64.1039" fx="-1841.0905" fy="680.5322" gradientTransform="matrix(0.2124 0 0 0.2107 421.7622 -115.2324)" gradientUnits="userSpaceOnUse">
		<stop  offset="0" style="stop-color:#EDAC09"/>
		<stop  offset="1" style="stop-color:#E45E16"/>
	</radialGradient>
	<path fill="url(#SVGID_1_)" stroke="#B4131D" d="M24.9,16.8c-6.4-1.3-13.2-0.7-17.6,4.7h0C2.5,27.3,4,35.6,8.7,40.9
		c2,2.3,4.6,4.3,7.2,6.1c1.6,1.1,3.6,2.5,5.6,2.5v0c1,0,0.9-0.1,1-0.1c2.8-3,16.8-6.5,16.3-19C38.3,17.8,24.9,16.8,24.9,16.8z"/>
	
		<radialGradient id="SVGID_2_" cx="-1892.0773" cy="700.0015" r="83.9516" gradientTransform="matrix(0.2124 0 0 0.2107 421.7622 -115.2324)" gradientUnits="userSpaceOnUse">
		<stop  offset="0" style="stop-color:#EDAC09"/>
		<stop  offset="1" style="stop-color:#E45E16"/>
	</radialGradient>
	<path fill="url(#SVGID_2_)" stroke="#B4131D" d="M32.3,33.2C32.2,22.5,21,22.8,21,22.8c-1.4-2.2-3.8-2.8-6.3-2.8
		c-2.8,0-5.7,0.8-7.5,1.5c0,0,0,0,0,0h0C2.5,27.3,4,35.6,8.7,40.9c2,2.3,4.6,4.3,7.2,6.1c1.6,1.1,3.6,2.5,5.6,2.5v0c0,0-0.1,0-0.1,0
		C22.7,44.1,32.3,42,32.3,33.2z"/>
	<path id="path154_2_" fill="#6B3A0E" stroke="#5B2D05" d="M21.5,22.9c0,0,0.8-9.8,11.9-12.4l1.1,2.7c0,0-10.5,0.6-11.4,9.9
		L21.5,22.9z"/>
	<path id="path126_2_" fill="#377E77" stroke="#004E4C" d="M13.3,11.8c-3-0.8-12.4-1-12.4-1S0.4,12.1,5,18.1c6.1,8,12.7,6,14.2,5.4
		c1.5-0.6,2.1-0.8,2.4-0.9C21.6,20.5,20.1,13.5,13.3,11.8z"/>
	<path id="path130_2_" fill="none" stroke="#004E4C" stroke-linecap="round" stroke-linejoin="round" d="M0.8,10.8
		c0,0,4.9,5.3,13.9,7.3c4,0.7,6.8,4.5,6.8,4.5"/>
	<path fill="#4FBE37" stroke="#024D36" stroke-linejoin="round" d="M15.4,0.5c5.6,5.6,7.2,6.5,8,11.3s-2.2,9.5-2.7,10.5
		c-4.1-0.9-7.8-3.9-8.3-9.2S14.6,2.1,15.4,0.5z"/>
	<path id="path146_2_" fill="#87D269" stroke="#024D36" stroke-linejoin="round" d="M21.9,6.4c-1.6-1.6-4.8-4.8-5.5-5.5
		c0.2,4.1,1.1,13.9,5.2,21.7C26.7,14.6,23.7,8.2,21.9,6.4z"/>
</g>
</svg>
