<svg xmlns="http://www.w3.org/2000/svg" viewBox="0 0 20.8 26"><defs><style>.cls-1{fill:#ff6d00;}.cls-2{fill:#4caf50;}.cls-3{fill:#aa721b;}.cls-4{fill:#ffab00;}.cls-5{fill:#64dd17;}</style></defs><title>Asset 2-blah</title><g id="Layer_2" data-name="Layer 2"><g id="Layer_1-2" data-name="Layer 1"><g id="Page-1"><g id="Group"><path id="Shape" class="cls-1" d="M20.79,15.74C20.53,9,13.33,8.46,13.33,8.46c-3.47-.72-4.71,1.73-4.16,4.09,0,0,1.23,9.7,2.37,13.45C13.66,23.86,21.06,22.49,20.79,15.74Z"/><path id="Shape-2" data-name="Shape" class="cls-2" d="M8.6,0c2,1.83,3.81,4.17,4.05,6.79a7.73,7.73,0,0,1-1.2,4.93,5.28,5.28,0,0,1-4.31-5A13.73,13.73,0,0,1,8.6,0Z"/><path id="Shape-3" data-name="Shape" class="cls-3" d="M11.92,11.78c.57-4.91,6.13-5.22,6.13-5.22l-.6-1.47A8,8,0,0,0,11,11.72,7,7,0,0,1,11.92,11.78Z"/><path id="Shape-4" data-name="Shape" class="cls-4" d="M18.05,17.42c0-5.74-6.8-5.7-6.8-5.7a3.76,3.76,0,0,0-3.38-1.53A12.44,12.44,0,0,0,4,10.81L3.83,11a7.22,7.22,0,0,0-.09,9.75C6.17,23.55,10,24.94,11.53,26,11.53,24.22,18.05,22.17,18.05,17.42Z"/><path id="e75eadba-98be-434f-9595-807cd3e4bf6a" class="cls-5" d="M6.26,6.4A27.67,27.67,0,0,0,0,5.49a11.18,11.18,0,0,0,3.47,4.94,8.33,8.33,0,0,0,7.78,1.3C11.27,10.59,9.33,7.27,6.26,6.4Z"/></g></g></g></g></svg>