<svg xmlns="http://www.w3.org/2000/svg" xmlns:xlink="http://www.w3.org/1999/xlink" viewBox="0 0 853.93 891.06"><defs><style>.cls-1{fill:#fff;}.cls-2{fill:#4364a0;}.cls-3{fill:#c8c7cf;}.cls-4{fill:#d6a370;stroke:#d6a370;stroke-miterlimit:10;stroke-width:0.86px;}.cls-5{mask:url(#mask);}</style><mask id="mask" x="-89.82" y="-194.65" width="1024" height="1085.71" maskUnits="userSpaceOnUse"><path class="cls-1" d="M267.19-194.65h310c102.81,0,154.2,0,209.54,17.47a217.55,217.55,0,0,1,130,130c17.49,55.32,17.49,106.73,17.49,209.52v310c0,102.79,0,154.19-17.49,209.53a217.46,217.46,0,0,1-130,130C731.36,829.35,680,829.35,577.16,829.35h-310c-102.81,0-154.2,0-209.53-17.49a217.51,217.51,0,0,1-130-130c-17.48-55.34-17.48-106.74-17.48-209.53v-310c0-102.79,0-154.2,17.48-209.52a217.59,217.59,0,0,1,130-130c55.33-17.47,106.72-17.47,209.53-17.47h0"/></mask><symbol id="App_Icon" data-name="App Icon" viewBox="0 0 853.93 891.06"><path class="cls-1" d="M230.12,509.41q4.65,4.63,9.46,9L221.11,500Q225.49,504.77,230.12,509.41Z"/><path d="M427.31,799c-5.13,4.54-7.09,11.91-8.6,18.34a115.65,115.65,0,0,0-2.78,22.63,189.85,189.85,0,0,0,.75,22.87c.65,7.57.95,15.7,3.07,23,1.33,4.62,8.18,3.67,8.31-1.12.19-7-1.32-14.08-2-21-.67-7.31-1.09-14.66-1.06-22a122.71,122.71,0,0,1,1.86-21.22c1.21-6.6,4-13.24,4-20a2.13,2.13,0,0,0-3.59-1.49Z"/><path d="M450.33,846.84c-7.64-3.12-12.29,8.32-13.88,13.72-2.37,8.08.25,20.27,11.1,19,9.36-1.09,13.74-12.21,12-20.46-1.75-8.56-10.83-16.45-19.85-14.45-4.28,1-3.9,7.14,0,8.29s7.61,1.46,9.88,5.41c1.85,3.25,2,10.4-2.3,12-6.28,2.37-3.48-9-2.61-11.75,1.19-3.82,2.64-6,6.11-8,1.69-1,1.06-3.14-.49-3.77Z"/><path class="cls-2" d="M283.69,559.72c-1.72,53.33,9.61,109.5,44.44,149.91,12.49,14.49,27.55,26.47,42.52,38.37L425,791.14c1.1.87,2.33,1.79,3.73,1.71a5.85,5.85,0,0,0,3.16-1.65L490,743.05c13.49-11.17,27.1-22.46,37.84-36.3,30.49-39.31,33.87-103.31,35.7-153,8.48-.79,13.57,14.75,13.88,23.26.67,18.2,16.6,32.56,33.47,39.43,21.7,8.83,41.29,21.74,63.87,28,23.92,6.62,72.5,18.3,94.62,29.54,46.44,23.6,59.25,49.35,76.57,100.06.9,2.64.37,16.28-.07,19s-2.64,5-4.75,6.87C790.77,845.15,721,860.1,654.58,873.36c-24.29,4.85-48.83,9.73-73.59,8.94-18.07-.57-36-4.16-54.07-3.84-25.49.44-50.31,8.62-75.77,9.74-24.19,1.06-48.16-4.28-72.29-6.33-36.12-3.06-72.4,1.25-108.64,2.24A595,595,0,0,1,53.56,849.44c-22.13-8-47.05-21.35-49.47-44.73-1.69-16.21,8.45-31,18.1-44.15,13.21-18,26.64-36.18,44.12-50,27.73-22,63.1-31.16,96.14-43.8s66.81-31.48,81.46-63.69c4.07-8.95,6.53-18.7,11.88-26.94s14.82-15,24.48-13.17"/><path class="cls-1" d="M272.34,38.43a294.71,294.71,0,0,0-30,105.23c-48.27-11.52-101.65.9-139.87,32.54-7.23,6-14,12.7-18.87,20.74-7.26,12-9.83,26.27-10.47,40.28-1.8,39.44,10.86,78.67,31.27,112.47s48.27,62.56,78.31,88.19c10.22,8.72,20.88,17.21,33.16,22.68,15.66,7,33.1,8.65,50.2,9.77,58,3.82,116.1,2.31,174.15.8l102.48-2.66c17.06-.45,34.33-.92,50.76-5.52,26.38-7.39,48.75-24.89,68.35-44,18-17.59,34.5-37.17,45.41-59.86,11.43-23.77,16.37-50.22,17.92-76.55,2.32-39.73-4.23-82.81-31.71-111.59-35.49-37.16-93.56-39.25-144.71-34.38-1.9-23.17-5-46.63-14.44-67.89s-25.85-40.34-47.7-48.28c-14.22-5.18-29.7-5.38-44.84-5.53l-65.08-.63c-39.71-.38-84.83,1.55-110.74,31.65"/><path class="cls-1" d="M267.71,35.72a305.82,305.82,0,0,0-30.77,107.94l6.77-5.16a170,170,0,0,0-123.94,19C101.45,168.33,83,182.87,74.57,203c-8.95,21.38-8.25,46.56-4.85,69.07,7.11,47.06,31.79,89.42,62.9,124.71a445.89,445.89,0,0,0,51.63,49.44c8.92,7.32,18.29,14.25,28.87,19s21.9,7.25,33.41,8.73c26,3.34,52.62,3.67,78.81,4,27.06.38,54.13,0,81.18-.62,26.33-.59,52.65-1.33,79-2,26.59-.7,53.4-.45,79.93-2.46,24-1.82,45.91-8.63,66-22,18.91-12.54,35.77-28.6,50.7-45.62,15.53-17.71,28.43-37.45,36.42-59.69s11.46-46.4,12.19-70.08c1.28-41.06-7.65-86.23-40-114.46-30.53-26.69-72.9-32.55-112.06-31.7-10,.22-20.07.9-30.07,1.84l5.36,5.35c-2.25-27-6-54.68-19.21-78.79C523.93,37.8,506.58,20.81,484.52,14c-13.23-4-27.29-4.39-41-4.54-14.41-.17-28.82-.28-43.23-.42-24.69-.24-49.54-1.2-74.06,2.3-24,3.43-47.76,12-64.13,30.68-4.54,5.16,3,12.76,7.57,7.57,28.55-32.5,77.35-30.36,116.81-30l41.42.4c13.06.13,26.28-.26,39.27,1.3,23.2,2.79,42,15.73,54.52,35.23,15.26,23.72,19.34,52.39,21.64,80,.22,2.68,2.28,5.65,5.35,5.36,37.31-3.5,78.43-4.4,112.91,12.54a96.08,96.08,0,0,1,40.94,37.5c10,17,14.94,36.61,16.75,56.1,4,43.32-3.19,90.11-27.28,126.93-12.06,18.42-27.47,34.73-43.84,49.37-15.88,14.22-33.93,26.86-54.56,33-23.29,6.93-48.56,5.73-72.62,6.35l-74.88,1.95c-50.46,1.31-100.95,2.75-151.41.83-23.4-.89-48.5-.67-70.86-8.46-21-7.33-38.28-24.08-54.33-38.95-32.78-30.39-62.17-66-78.3-108.12-8-21-12.86-43.24-12.92-65.76,0-11.15.89-22.4,4.3-33.08C85.9,201.64,92.06,193,100,185.48c29.3-27.74,71-41.86,111-40.61a152,152,0,0,1,29.89,4c3.63.84,6.44-1.64,6.78-5.17A291.23,291.23,0,0,1,277,41.13c3.07-6.15-6.17-11.58-9.25-5.41Z"/><path class="cls-3" d="M529.51,168.63c13.44,17.07,27,34.25,37.34,53.34s17.56,40.39,17.34,62.12c0,3.69-.23,7.65,1.76,10.77,3,4.76,9.81,5.58,13.72,9.67,3.69,3.87,4.05,9.75,4.16,15.1q.49,25.51-.41,51.05c-.31,8.74-1.1,18.33-7.23,24.58-2.42,2.48-5.56,4.26-7.58,7.08-3.52,4.91-2.79,11.54-2.45,17.57a100.7,100.7,0,0,1-3.55,32.68c21.37-7.09,46.66-16.54,62.69-32.37a363.58,363.58,0,0,0,44.23-52.87c5.89-8.66,9.6-22.62,13.87-32.18C712.82,314.09,716,290,716.75,267c.5-15.51-3.62-36.68-9-51.22-4.06-10.86-11.43-20.58-18.3-29.92-4.53-6.16-11.86-9.84-17.75-14.72-11.49-9.51-27.52-8.24-42.34-9.89a220.2,220.2,0,0,0-67.62,3c-10.59,2.12-21.53,5-32,2.41"/><path class="cls-3" d="M290.62,173.42c-41,29.16-66.28,79.21-65.41,129.52-13.4,7.68-19.72,24.18-19.49,39.62s5.9,30.22,11.49,44.62c3.51,9,10.53,20,19.85,17.31a319.25,319.25,0,0,0,5.62,51.86c-27.69-14.34-55.86-29-78-51-31-30.79-47.5-73.13-60.27-114.93-6-19.55-11.38-39.71-10.23-60.12S104,189,121.09,177.71c18.34-12.1,27.47-14.18,49.35-16.19,35.43-3.25,80.64-3.65,115.38,9.57"/><path class="cls-4" d="M300,174.26c-38.65,21.55-64.42,64.52-65.23,108.77-.13,7.1.23,14.65-3.35,20.79-2.45,4.2-6.48,7.21-9.64,10.91-11.07,12.91-14.44,39.82-8.61,55.8s14.81,32.74,29,29.44c0,0,5.62,53.91,13.46,75.2,7.42,20.12,15,48.07,28.28,64.91,1.84,28.4,9.63,46.06,11.47,74.46.72,11.17,1.46,22.45,4.67,33.17,2.82,9.45,4.79,30.12,11,37.8,37,45.75,74.3,74.15,120.81,105.69,17.73-37.16,63-58.71,90.63-89.22a128.75,128.75,0,0,0,29.11-54c10.88-42.2-.24-87.22,6.94-130.21,5.79-34.59,23.37-67.85,19.87-102.76,15.28-4.42,25.84-19.09,29.84-34.48s2.6-31.61,1.17-47.45c-.64-7.1-1.39-14.53-5.3-20.49s-12.05-9.82-18.38-6.54A908.69,908.69,0,0,0,540,200c-5.66-11.12-12.56-23-24.33-27.19-6.55-2.31-13.71-1.83-20.64-1.36q-98.54,6.72-197.4,4.81"/><path class="cls-4" d="M297.26,169.64a135.71,135.71,0,0,0-65.5,91.26c-1.85,9.58-2.13,19.05-2.49,28.76-.2,5.32-1.05,10.08-4.56,14.25-3.32,3.93-7.22,7.11-10.09,11.45-9.36,14.2-11.7,34.34-8.29,50.76,3.57,17.14,16.09,43.07,37.25,39L236.8,400a574,574,0,0,0,8.61,57.65c2.66,12.75,7.12,24.78,11.36,37.07,5.28,15.31,10.72,31.31,20,44.73,1.24,1.79,1.77,2.23,2,4.38.28,2.37.45,4.75.74,7.11q.81,6.54,2,13c1.49,8.32,3.38,16.55,5,24.84,3.64,18.75,2.78,38.22,7.38,56.76,3.19,12.87,4.38,27.43,10.43,39.35,3.6,7.1,10.17,13.26,15.4,19.18q8.86,10,18.35,19.52C365.61,751.06,397,774,429.13,795.82a5.39,5.39,0,0,0,7.33-1.92c10.72-22,30.16-37.69,48.94-52.58,19.8-15.7,40-31.11,54-52.54,16.31-25,22.08-53.73,22.61-83.18.57-31.15-3.4-62.67,3-93.46,6.77-32.29,21.77-63.47,18.74-97.17l-3.93,5.17c26.58-8.31,36.3-36.9,36.39-62.29,0-7.68-.6-15.34-1.29-23-.6-6.76-1.1-13.69-3.69-20-4.59-11.3-16.39-18.65-28.21-13.45l7.86,3.2q-12.71-35.4-28.21-69.71-7.8-17.25-16.32-34.16c-4.44-8.82-9-18-16.25-24.9-7.54-7.23-16.86-10.16-27.2-10.06-12.46.12-25,1.52-37.42,2.2q-39.45,2.18-79,3-44.43.89-88.88,0c-6.89-.13-6.89,10.58,0,10.71q75,1.43,150.08-2.07,18.24-.87,36.48-2c10.5-.67,23.65-3.55,33.27,2,7.79,4.51,12.52,12.88,16.59,20.61,5.44,10.34,10.48,20.91,15.41,31.51q17.28,37.16,31.08,75.76c1.26,3.52,4.54,4.66,7.86,3.2,3.82-1.68,8.35,1.15,10.65,4.1,3.08,3.94,4,9.36,4.57,14.19,1.34,11.35,2.28,23,1.72,34.43-.92,18.71-8.79,40.34-28.39,46.46-2.09.65-4.14,2.8-3.93,5.16,2.7,29.94-9.48,58-16.54,86.46-7.46,30.08-5.63,60.41-5.23,91.08.38,29.7-2.44,59-17.65,85.16-12.81,22.05-32.55,37.72-52.26,53.29-20.65,16.31-42.35,33.36-54.15,57.53l7.33-1.92C406.76,767.72,379.51,748,355,725a427.27,427.27,0,0,1-36.19-38.48,39.73,39.73,0,0,1-8.59-17.41c-1.59-6.46-2.6-13-4.12-19.5-2-8.64-4-16.9-4.7-25.79-.77-9.2-1.3-18.36-2.7-27.49-2.57-16.7-7.2-33-8.89-49.86-.45-4.48-.27-7.66-2.93-11.34a87,87,0,0,1-6.1-9.87,177.71,177.71,0,0,1-10-23.07c-4.64-12.66-9.71-25.52-13-38.6-5.25-20.78-8-42.36-10.25-63.66-.38-3.63-3.1-5.86-6.78-5.16-7.81,1.5-13.08-6.27-16.39-12.17-3.87-6.9-7.15-14.6-8.21-22.48-2-14.75.93-33,11.6-44,2.94-3,6.13-5.92,8.28-9.61,2.4-4.14,3.35-8.84,3.77-13.55.82-9.06.33-18,1.9-27a126.82,126.82,0,0,1,18.87-47.53,122.53,122.53,0,0,1,42.11-39.53c6-3.39.61-12.65-5.4-9.24Z"/><path class="cls-1" d="M346.85,442.57c20.68,11.74,44.79,5.35,67.25,6,21.4.63,47.25,2.35,60.14-18.63,2.49-4-1.61-9-6-7.87-19.53,5.18-39.57,9.63-59.68,11.78a106.59,106.59,0,0,1-29.36-1c-9.74-1.63-19.47-3.44-29.36-2.16-6.74.87-6.83,11.59,0,10.7,10.27-1.32,20.14.83,30.25,2.4a110.84,110.84,0,0,0,30.44.55A439.41,439.41,0,0,0,471,432.41l-6-7.86c-11.2,18.21-37,13.38-54.83,13.24-19-.15-40.43,5.45-57.91-4.46-6-3.41-11.41,5.84-5.41,9.24Z"/><path d="M347.68,243.26c-4.92-6-14.18-9-21.43-10.78-7.72-1.93-15.16-2.16-22.52,1.26-6.66,3.09-11.68,8.54-16.16,14.21-2.36,3-4.65,6.05-7.05,9-2.26,2.79-4.89,5.34-5.64,9-.47,2.25,1,4.91,3.63,4.76,6.65-.36,10.68-6.58,14.4-11.41s7.18-10,12.08-13.62a26.5,26.5,0,0,1,18.54-4.48c7.64,1,13.4,6.06,20.39,8.52,4,1.41,6-3.77,3.76-6.46Z"/><path d="M457.24,256.66c9.18-6.84,20-11.7,31.66-9.21a34.06,34.06,0,0,1,14.32,6.69c4.55,3.65,7,8.29,10.3,13s10.79,1.93,9.36-3.94c-3.31-13.55-18.69-24.15-31.79-26.39-14.37-2.47-30.35,2.6-39.07,14.66-2.18,3,2.2,7.48,5.22,5.22Z"/><path d="M327,288.35c-6.62,4.49-7.83,15.93-8.77,23.25-.38,2.94,3.3,5.44,5.92,4.52,9.7-3.41,12.47-14,12.76-23.35.15-4.91-2.69-11-8.73-9-5.1,1.71-7,9.28-8.39,13.81s-4,12.79-1.53,17.26c2.71,4.88,9,3.56,11.9-.25,3-4,4.25-10.3,4.74-15.19a19.91,19.91,0,0,0-4.46-15.06c-2.05-2.58-7.09-1.84-8.45,1.08-3.4,7.35-7,19.27-1.64,26.48,2,2.74,6.66,2.77,7.66-1,.88-3.35.39-6.38.6-9.79a28.19,28.19,0,0,1,2.67-10.26L322.83,292c1.77,2.27,1.56,5.47,1.08,8.12a36.09,36.09,0,0,1-1.07,4.18c-.21.69-.44,1.37-.68,2.05q-1.5,2.32,1.32,1l3.81,1.58-.59-.55,1.58,3.8c-.42-3.32.38-7,1.15-10.17q.58-2.4,1.38-4.74.38-1.17.84-2.31,1.71-2.62.28-1.48l-3.91-.51.85.64-2.33-3c1.92,5.37-.9,14.5-6,17l7,4a38.43,38.43,0,0,1,1.11-11.3c.8-3.19,2.56-6.25,2.49-9.55,0-2-2.38-3.63-4.19-2.4Z"/><path d="M484.71,286.6c-9.32-3.41-9.55,17.33-9.27,22.09.22,3.74,5.24,6.69,8.08,3.34a33.54,33.54,0,0,0,7.18-13.75c1-4.22,2.2-10.39-1.11-13.91-3.11-3.31-8.1-2.26-11.09.57-3.75,3.53-5.57,9.83-6.56,14.71-.89,4.4-2.05,10.47,0,14.72a6.79,6.79,0,0,0,10.59,2.54c3.7-3,5-9.51,5.6-14a37.45,37.45,0,0,0-1.51-16.62c-1.34-4.18-7.15-5.19-9.47-1.24-3.6,6.14-6,14.28-1.33,20.36,2,2.59,5.5.6,6.46-1.7,1.88-4.5,1.2-9.06,3.82-13.43l-9.47-1.24A28.06,28.06,0,0,1,478,299.78c-.14,1.76-1,8.2-2.49,9l4.06-.53q2.18,3.25,1.86,1.08c0-.79,0-1.58,0-2.38a32.69,32.69,0,0,1,.39-4.41,33.73,33.73,0,0,1,1-4.32c.26-.91,2.1-4.34,2-5.15l-2.94-2.62a19.23,19.23,0,0,1-.13,2.63,23,23,0,0,1-.83,4.2,30.18,30.18,0,0,1-4.75,9l8.64,1.13a28.8,28.8,0,0,1-.42-8.34A33,33,0,0,1,485,295c.34-1.62,1.31-2.35-.25-2,3.47-.72,2.82-5.38,0-6.41Z"/><path d="M305.94,326.29c4.61-.24,9.18-1,13.75-1.62,4.83-.66,10.09-.82,14.7-2.4,4.17-1.42,3.68-8-1.07-7.94s-9.25,1.45-13.77,2.38c-4.84,1-9.72,1.86-14.46,3.27-3.37,1-2.88,6.5.85,6.31Z"/><path d="M464.65,320.78c6,1.72,12.72,1.33,18.91,2,6.61.66,13.4,2.71,20,2.8,5.19.07,6-7.38,1.2-8.88-6.2-1.93-13.76-1.7-20.24-2s-13.68-1-19.86,1a2.68,2.68,0,0,0,0,5.13Z"/><path d="M398.7,326.54c-8.07-9.23-23.62-7-33.47-2.05-10.71,5.35-18.34,15.78-21.79,27.08-1.84,6-2.95,12.93-.09,18.8,2.64,5.4,7.81,9.58,12.85,12.65a46.22,46.22,0,0,0,36.64,5.11c6.36-1.88,3.7-11.23-2.72-9.88-9,1.9-18.44,1.18-26.66-3.08-3.8-2-8.35-4.75-10.56-8.56-2.48-4.27-.69-10.14.85-14.51A35.29,35.29,0,0,1,370,332.64c8.9-4.72,17.89-3.14,27.42-3a1.83,1.83,0,0,0,1.28-3.08Z"/><path d="M377.49,258.4l.56-.74-2.13.87c1.29.34.87,15.81.88,17.44,0,6.07-.7,12.38,0,18.4.48,4.08,7,5.93,7.89,1.07,2-10.54.11-22.44-1.33-33-.39-2.85-.47-7.39-3.79-8.59-2.47-.89-4.67.86-5.15,3.22a1.69,1.69,0,0,0,3.07,1.3Z"/><path d="M318.37,417.78c-6.11,3.66-9.37,12.5-10.56,19.17-1.37,7.73-.6,15.37,3.2,22.29,1.86,3.39,7.44,1.1,6.28-2.65-1.88-6.11-3-12.49-2-18.86s4.61-11.11,6.94-17c.87-2.21-2-4.08-3.87-3Z"/><path d="M334,430.66c24,7.42,50.78,6.15,75.61,4.34q18.75-1.37,37.32-4.41,9.4-1.54,18.74-3.5c6.26-1.31,12.84-2.34,18.73-4.87,4.38-1.88,2.18-9.44-2.45-9-6.09.54-12.09,2.52-18.08,3.79s-11.83,2.39-17.79,3.4c-12.39,2.09-24.89,3.65-37.42,4.67-24.73,2-49.66.1-74.27,2.74a1.46,1.46,0,0,0-.39,2.86Z"/><path d="M338.75,438c3.55,13.49,12.63,28.27,25.92,33.84,8.21,3.44,18,3.94,26.85,4.54a138,138,0,0,0,27.26-.71c16.32-2.14,31.8-7.77,44.76-18,10.92-8.66,22.6-22.79,23.29-37.36.21-4.53-7-6.84-8.94-2.42-2.61,6-4.32,12-7.88,17.56a61.36,61.36,0,0,1-13.18,14.48c-10.95,8.83-24.48,13.76-38.3,15.79-14.86,2.18-32,2-46.65-1.71-14.33-3.65-19-17.78-26.48-28.77-2.26-3.33-7.75-1.35-6.65,2.8Z"/><path d="M467.2,391.23c2.16,5.82,6.82,8.89,12.08,11.77,6,3.31,11.27,6.79,14.4,13.18,8,16.41.48,31.95-3.19,48.28-1.1,4.9,6,8.48,8.49,3.57,7.75-15.31,12.61-35.95,5.48-52.38a31.55,31.55,0,0,0-14.82-15.86c-6.52-3.23-14.21-4.71-19.09-10.52-1.27-1.5-4,.11-3.35,2Z"/><path d="M327.94,554.63c3.95,11.5,9.86,23.34,18.86,31.73C357.45,596.3,370.39,598,384.38,599c29.16,2.08,59.77,3.2,86.92-9.46,11-5.14,26.78-17,23.34-31.07-1.09-4.47-6.9-3.69-8.32,0-2.58,6.71-4.59,11.88-10.48,16.47s-13.38,7.68-20.62,9.93c-15.49,4.81-31.79,5.69-47.91,5.36-7.94-.16-15.88-.64-23.81-1.16s-16.2-.89-23.3-4.82c-12.5-6.93-18.65-20.77-26-32.31-2-3.15-7.6-1.19-6.28,2.65Z"/><path d="M230.58,312c.41-12.52-16.13-13.62-23-6-4.47,4.93-5.74,11.7-6.38,18.1-.91,9-.54,18.09-.26,27.11.49,15.5,1.93,32,11.39,44.94,3.76,5.12,9.16,10.81,15.4,12.82,6.47,2.09,13.2-3.61,9.46-10.16-1.83-3.21-8-3-8.58,1.12l2.08-1.33-1.3-.74a24.76,24.76,0,0,0-2.55-1.73A31.05,31.05,0,0,1,222,391.4a39.35,39.35,0,0,1-6-10.58c-3.75-9.7-4.25-20.23-4.58-30.51-.31-9.92-1.4-20.7.64-30.49.67-3.21,1.92-7.37,5.24-8.78,1.87-.8,6.27-.54,7.24,1.8,1.27,3.05,5.89,2.88,6-.81Z"/><path d="M234.28,339.33c-1.62,9.9-.33,20,.34,29.95.69,10.2,1.35,20.4,2.12,30.6,1.29,17.34,2.56,34.7,5.27,51.9,5.27,33.52,16.25,66.09,40.27,90.93A197.13,197.13,0,0,0,304.41,562c7.9,6,16.23,13.06,25.4,17,4.81,2.09,10.22-3.48,6-7.73-5.91-5.9-13.45-10.14-20.17-15a213.61,213.61,0,0,1-19.93-16.21,128.21,128.21,0,0,1-28.88-39.68c-13.94-29.66-17.38-63.38-20.9-95.58-1.22-11.19-2.52-22.37-3.82-33.55-1.23-10.62-1.67-21.8-5.32-31.93-.39-1.06-2.25-1.36-2.47,0Z"/><path d="M580.85,329.15c-1.66,8.48-1.05,17.82-1.23,26.44q-.27,13.28-.76,26.53c-.67,18.19-1.77,36.41-3.57,54.53-1.68,16.9-4.51,34-11.58,49.61-6.24,13.72-15,26.12-24.85,37.46-11.44,13.14-24.42,24.66-36.87,36.81-4.88,4.77,2.37,11.8,7.42,7.42,23.32-20.26,46.85-43.39,61-71.2,16.13-31.68,16.66-69,18-103.83q.65-16.21.6-32.41c0-10.13.68-21.48-1.7-31.36-.75-3.12-5.84-3.29-6.48,0Z"/><path d="M584.13,417.91l1.19-.66h-2.88c4.27,2.56,11.35.32,15.55-1.57a32.52,32.52,0,0,0,13.35-11.8c7.79-11.5,9.37-26.92,10.73-40.38a196.18,196.18,0,0,0-.9-46.64c-.82-5.91-2.39-11.95-7.22-15.88-4.63-3.77-11.56-4.82-16.12-.47-3.77,3.6.25,8.88,4.71,8.1,5.42-.95,6.94,3.37,7.78,8a133.64,133.64,0,0,1,1.63,18,202.28,202.28,0,0,1-1.57,36.07c-1.35,9.87-3,20.81-9,29.08a24.1,24.1,0,0,1-11.13,8.77c-2,.66-4,.83-5.87,1.72s-2.13,2.13-3.5,3.44c-2.23,2.15.61,5.7,3.25,4.22Z"/><path d="M226.06,306.2c.87-5.91.57-12,1-18a151.78,151.78,0,0,1,2.6-18.63A164.47,164.47,0,0,1,241,234.13a149.43,149.43,0,0,1,19.06-31.49c7.14-8.89,15.71-16.75,27.19-19.08,7-1.42,4-12-2.94-10.65-25.41,5.09-42,32.43-52.07,54.16a164,164,0,0,0-12.45,38.05c-2.46,12.79-5.1,28.19-2.24,41.08.9,4,7.84,4.35,8.47,0Z"/><path d="M520.56,172.79c3.32-2.17,24,29.46,26.13,32.88a208.9,208.9,0,0,1,19.42,39,217.3,217.3,0,0,1,11,42c2.26,14.48,2.23,28.81,1.95,43.41-.14,7.6,10.86,7.28,11.6,0,3.36-33.19-4.41-68.53-17.44-98.93A206.08,206.08,0,0,0,548.33,188c-4.39-5.8-25.31-35.4-33.26-20.67-1.81,3.36,2,7.8,5.49,5.5Z"/><path d="M350.57,453c8.68,3.38,18.38,3.71,27.57,4.42,9.43.73,18.9,1.2,28.36,1.25,18.23.12,36.7-1.94,53.9-8.2l-4.11-9.76c-14.53,6.26-31.61,6.87-47.21,8a428.37,428.37,0,0,1-48.34.91c-4.5-.18-6.21,4.65-4.67,8.15,3.35,7.64,12.26,9.53,19.69,10.66a209.26,209.26,0,0,0,28.72,2.39c18.8.22,38.21-2.95,54.58-12.64,6.77-4,.74-14.32-6.15-10.53-14,7.66-29.2,10.66-45,11a199.21,199.21,0,0,1-23.81-1.05c-5.19-.51-16.05.29-18.65-5.3l-4.68,8.14a476.08,476.08,0,0,0,52.2-1.4c16.18-1.42,33.72-2.47,48.74-9.11,5.48-2.42,1.56-11.88-4.11-9.76-17,6.37-34.84,8.18-52.9,8.36-8.85.09-17.68-.3-26.53-.61-9.14-.32-18.63-1.09-27.57,1.25-2,.54-1.71,3.16,0,3.83Z"/><path d="M270.41,530.68a396.78,396.78,0,0,1,10,63.58c1.51,19.77,2.72,39.67,7,59.08,4,18.25,10.86,36.17,22.41,51,12.66,16.29,30.11,28,46.43,40.31,20.7,15.61,41.37,31.27,62.14,46.79,6.12,4.57,12-5.7,6-10.23-17.77-13.42-35.63-26.72-53.45-40.06-16.38-12.26-34.18-23.82-48.23-38.83-26.87-28.71-29.16-70.05-32.12-107.16-1.79-22.51-3.4-46.75-13.24-67.43-1.9-4-7.9-1.12-6.92,2.92Z"/><path d="M557.47,506c-2.07,11.6-1.8,23.71-1.94,35.46-.14,12.22-.36,24.43-.76,36.63-.78,23.69-.43,48.74-6.4,71.82-10.33,39.92-42,69.18-71.67,95.62-18.56,16.53-37.33,33-52.84,52.51-4.83,6.1,3.78,14.79,8.63,8.63,27.43-34.84,65.19-59.44,93.82-93.15,13.27-15.63,24.71-33.08,31.13-52.69,7.38-22.53,7.44-47.38,7.93-70.86.29-13.86.32-27.72.22-41.58s.38-28.58-2.26-42.39c-.55-2.88-5.34-2.92-5.86,0Z"/><path d="M278.48,557.83c-26.24,2.46-34.35,32.68-38.09,54.29-5.48,31.66-7.3,64.2-9.85,96.19-1.3,16.36-2.51,32.72-3.45,49.1-.33,5.62-1,11.44,2.61,16.25,3.41,4.6,9.05,6.15,14.57,6.19,5.77,0,11.44-1.63,17.07-2.7a204,204,0,0,1,21.89-2.92,223.16,223.16,0,0,1,42.15.7,215.73,215.73,0,0,1,88.9,30.65c6.89,4.24,13.26-6.69,6.33-10.84A232.31,232.31,0,0,0,271.48,764q-9.15,1.21-18.15,3.16c-3.32.71-11.21,3.22-14.14.16-1.73-1.8-.81-5.71-.67-7.91.21-3.27.43-6.55.65-9.82.53-7.86,1-15.71,1.56-23.57,2.07-30,4.42-60,7.47-89.85,1.56-15.33,3.39-31.11,8.61-45.69,3.86-10.79,10.81-22,22.75-24.57,4.44-1,3.55-8.47-1.08-8Z"/><path d="M435.33,804.59a31.59,31.59,0,0,0-4.82-.85l2.06,7.6c5.09-3.17,9.49-7.3,14.26-10.92,5.24-4,10.59-7.83,16.11-11.41a264.71,264.71,0,0,1,33.12-18.37,235.4,235.4,0,0,1,72-20.32c6.67-.75,13.37-1.18,20.06-1.72,7.07-.57,14.82-.7,21.66-2.79,13.88-4.25,12.86-18.67,11.3-30.43-3.65-27.56-16.52-52.72-24.58-79.08a357.53,357.53,0,0,1-11-47.58c-2.31-14.34-3.6-29.17-11.9-41.58-4.4-6.56-15.07-.43-10.67,6.23,6.88,10.41,8.07,22.86,9.88,34.9a358,358,0,0,0,8.69,41.24c7,25.79,19,50.07,25.1,76.1a105.66,105.66,0,0,1,2.8,18.71c.11,2.13.59,5.17-.35,7.23-1.16,2.51-4.52,2.64-7,3-13.69,2.11-27.61,2.4-41.33,4.42a249.3,249.3,0,0,0-69,21,231.32,231.32,0,0,0-34.29,19.63C446.76,787,434.76,795.24,427,805.76c-2.86,3.87,3.14,7.92,6.4,4.94a26.49,26.49,0,0,0,2.74-3.05,1.86,1.86,0,0,0-.81-3.06Z"/><path d="M428.49,762.25a33.81,33.81,0,0,0,7.69-12.17c1.42-3.84-4.27-7.1-6.92-4a33.6,33.6,0,0,0-6.9,12.64,3.7,3.7,0,0,0,6.13,3.56Z"/><path d="M425.43,800.44c-5.46,4.24-7.45,11.95-9,18.37a116.45,116.45,0,0,0-2.83,22.78,187.64,187.64,0,0,0,.73,22.86c.65,7.58.87,15.89,3.15,23.17a4.87,4.87,0,0,0,9.52-1.28c.34-7-1.26-14.1-1.9-21-.67-7.31-1.09-14.65-1.07-22a121.5,121.5,0,0,1,1.81-21c1.17-6.58,4.16-13.42,3.69-20.16a2.44,2.44,0,0,0-4.11-1.7Z"/><path d="M449.29,848.45c-13.74-6.85-26.21,34.15-4.13,33.46,10.23-.33,15.17-12.62,13.39-21.33s-11.38-17.3-20.65-14.87c-4.9,1.29-4.44,8,0,9.49,3.7,1.25,7.27,1.32,9.46,5.14,1.65,2.89,1.94,9.73-2,11.13-5.28,1.86-2.5-8.7-1.79-11.07a12.55,12.55,0,0,1,5.75-7.87c1.37-.92,1.69-3.24,0-4.08Z"/><path d="M416,164.49a.1.1,0,0,0,0-.2.1.1,0,0,0,0,.2Z"/><path d="M120.07,184.38c-.36.38-1.26,1.17-.68,1.75s1.37-.33,1.74-.68c.71-.67-.39-1.77-1.06-1.07Z"/><path d="M242.85,444.68c-43.21-1.29-72.59-38.18-93.9-71.57a429.87,429.87,0,0,1-30.31-56.22C109.74,297,101.47,276,97.81,254.38,94.65,235.7,96,215.83,105.2,199c9.44-17.36,25.43-26.22,44.38-30,43.13-8.68,88.45-2,131.57,3.3,22.09,2.72,44.23,5.39,66.49,6.27,18,.72,36-1.17,53.94,0,39.11,2.49,78.67-2.6,117.45-7.11,22.32-2.6,44.68-5.52,67.09-7.31,20.28-1.61,41.06-2,60.93,3,17.41,4.34,34.22,13,44.72,28,11.12,15.88,15.89,36,17.78,55.06,4,39.81-5.49,80.42-25.86,114.79-18.88,31.85-46.62,57.94-78.71,76.22-8,4.57-16.31,8.73-24.7,12.57-6.08,2.78-1.71,13.42,4.61,10.91,76-30.11,132.77-102.56,137.8-184.89,2.39-39.1-5.46-87-40.07-110.64-36.27-24.82-84.51-18.79-125.53-14-45.17,5.33-90.46,12-136,12.42-7.33.07-14.59-.07-21.9-.5-8.26-.48-16.47.21-24.74.45-23.59.69-47.06-1-70.5-3.57-47.05-5.2-94.55-13.52-142-7.74-19.95,2.43-40.35,7.21-54.85,22.13C94.34,191.42,87.65,209.42,86,227.47c-2.11,23,4.3,45.9,12.52,67.1a466.29,466.29,0,0,0,28.76,60.55c20.31,36,45.77,75.95,86,91.57a81.3,81.3,0,0,0,29.62,5.47c4.82,0,4.8-7.33,0-7.48Z"/><path d="M246.57,468.24c-20.77-.43-44.65-4.92-60.84-18.77-10-8.53-18.87-18.51-27.85-28.06S140.09,402.09,131.74,392c-16.61-20.14-31.41-42-42-65.92-11-24.86-15.53-51-16.38-78-.67-21.4.74-44.73,13.12-63,11.34-16.74,32.52-25.57,50.68-33a152.79,152.79,0,0,1,40.68-10.9c16.94-1.9,34.07-.91,51,1,28.78,3.28,56.94,9.8,85.8,12.52,41.83,4,84.08,5.44,126,2.88,51.64-3.14,102.26-16.15,154-18.07,25.26-.93,50.92,1.28,74.54,10.86,11.22,4.55,22.17,10.81,30.48,19.73,8.71,9.36,13.06,21.83,17.59,33.55,9.86,25.51,17.17,51.87,12.95,79.41-2.07,13.53-6,26.7-10.21,39.69-4.09,12.59-8.22,25.27-13.88,37.26-20.64,43.79-60.05,79.48-102,102.48A263.91,263.91,0,0,1,572.75,477c-6.35,2.46-3.6,12.8,2.84,10.31a274.17,274.17,0,0,0,118.9-88.54,184.34,184.34,0,0,0,21.13-34.31c5.84-12.59,10.26-25.79,14.57-39,8.86-27.05,15-54.27,10-82.75-2.37-13.54-6.66-26.66-11.5-39.49-4.68-12.38-9.17-25.58-17.31-36.19C696,147.1,669.91,136.7,645.91,132c-26.14-5.17-53-4.24-79.35-1.4-28,3-55.91,7.47-83.76,11.69C435.06,149.47,386,148.92,338,145.6q-21.6-1.48-43.11-4c-1.66-.19-3.32-.39-5-.61-.55-.06-1.1-.13-1.64-.21-1.25-.17,1.46.26.55.08-12.11-2.47-24.37-4.45-36.59-6.32-35.16-5.36-71.14-8.55-105.48,2.84-16.89,5.6-34.54,13.19-49.37,23.06C77,174,67.22,195,64.15,218.75c-3.29,25.44-1.37,53.19,4.7,78.06,6.37,26.11,18.52,50.67,33.47,72.9,15.56,23.16,34.15,44.1,53.39,64.23,9.15,9.57,18.23,19.78,29.14,27.4,8.74,6.11,19.36,9.69,29.68,12a119.09,119.09,0,0,0,32,2.93c5.14-.26,5.2-7.92,0-8Z"/><path d="M287.69,147.5c17.31-2.6,34.08-8.73,51.2-12.42a370.68,370.68,0,0,1,154.36-.26c6.85,1.49,9.75-9.15,2.89-10.5a372.62,372.62,0,0,0-159.56,2.38c-17,4-35.26,8.55-50,18.18a1.44,1.44,0,0,0,1.1,2.62Z"/><path d="M542.69,136.05a1.11,1.11,0,0,0,0-2.21,1.11,1.11,0,0,0,0,2.21Z"/><path d="M560.16,134.86c-1.41-17.31-4.73-34.6-7.84-51.67-2.75-15.12-7.05-30.26-17.47-42-20.34-22.9-53.6-32-82.77-36.31C421,.29,388.79-1.72,357.45,1.76c-29.57,3.29-62.79,11.43-85.9,31.29-13,11.15-18.4,27.64-22.42,43.71-4.84,19.33-9.21,38.84-12.67,58.47-1.2,6.81,9.06,9.83,10.51,2.9,3.37-16.15,6.77-32.27,10.69-48.3,3.27-13.35,6.14-27.55,13.84-39.19,8-12.13,22.48-19.1,35.53-24.48a185.07,185.07,0,0,1,41.8-11.37c28.73-4.52,58.3-3.27,87.11-.2,28.32,3,58.48,8.85,81.67,26.49C531.24,51.45,537.17,65.64,540.72,82c3.91,18,6.95,36.27,12.3,53.88,1.14,3.76,7.49,3.28,7.14-1Z"/><path d="M364.18,86c-1.65-.05-3.23.19-4.89.29-4,.25-3.32,6,.74,5.49,18.75-2.58,38.38-6.33,57.39-4.57,4.54.42,5.56-7.09,1.08-8-21.39-4.29-46.24-2.11-65.24,9.4-4.89,3-.62,9.85,4.41,7.54,18.87-8.7,37.9-13,58.66-9.09l1.09-8c-19.78,2.11-39.46,2.21-58.87,7.31l3.54,2.7,2.09-1.43a.83.83,0,0,0,0-1.66Z"/><path d="M241,610.11c-9.93,5-18.67,12.66-27.9,18.87q-14.43,9.72-29.42,18.52c-19.57,11.49-40.12,20.88-60.82,30.09C83.88,694.92,44.26,714,19,749.83,6.81,767-2.73,789.2.71,810.56c.66,4.08,7.76,4.17,8.33,0,1.27-9.38,2.57-19,5.53-28A102.83,102.83,0,0,1,26.79,758c10.87-16.36,25.71-29.83,42.05-40.57,36.86-24.21,79.61-37.55,117.55-59.9a342.14,342.14,0,0,0,31.22-20.75c9.3-7,19.51-14.09,26.59-23.41,1.54-2-1.35-4.18-3.23-3.23Z"/><path d="M572.25,600.92C592.86,613.86,615.49,624.66,638,634c22.07,9.14,44.74,15.26,67.9,20.91,21.63,5.28,43.58,11,62.7,22.8C786,688.44,799.82,703.8,811,720.76A299.63,299.63,0,0,1,828.2,750.7c5.3,10.47,9.54,21.66,15.66,31.67,3.09,5.06,11.67,1.83,9.81-4.14-3.16-10.18-8.26-19.82-13-29.35s-9.87-19.12-15.55-28.25c-10.83-17.43-23.89-33.58-40.29-46.07-18.39-14-40.38-21.59-62.57-27.24-22.94-5.84-46-10.47-68.4-18.43-27.12-9.65-52.45-23.3-79.2-33.75-3.44-1.35-5.35,4-2.43,5.78Z"/><path d="M233.59,231.81a312.25,312.25,0,0,0-7,46.65c-.64,7.67-.88,15.39-1,23.09-.13,7.42.4,15.38-2.59,22.36l9.76,4.12a83.8,83.8,0,0,0,3.63-43.43c-1.14-6.55-11.1-3.77-10,2.74A129.86,129.86,0,0,1,224.59,340c-1.46,6.08,6,8.46,9.48,4a31.17,31.17,0,0,0,6.41-19.46l-10.21,1.39a17.23,17.23,0,0,1,.27,13.46l10.23,1.39c-1.57-20.56-3.41-41.11-4.66-61.68-.61-9.89-.67-19.82,1.22-29.59,1.83-9.41,5.25-18.14,9.22-26.83,2.64-5.77-5.26-10.7-8.67-5.06-10.35,17.13-13.42,37.8-12.5,57.51,1,21.9,3.27,43.79,5,65.65a5.23,5.23,0,0,0,10.23,1.38,25.87,25.87,0,0,0-.29-19c-2.08-5.07-10.24-4.95-10.2,1.38a22.22,22.22,0,0,1-5,14.22l9.47,4a143.61,143.61,0,0,0,1.78-58.17l-10,2.74a71.39,71.39,0,0,1-4,37.85c-2.13,5.6,7.38,9.68,9.77,4.12,6.11-14.25,3.6-30.91,4-46.05.47-16.95,1.53-33.82,2.59-50.74.18-3-4.53-3.61-5.23-.71Z"/><path d="M560.07,234.18c4.21,16,2.91,33.27,5.43,49.64,2.21,14.29,7.26,28.4,18.12,38.4,4,3.67,11.74.14,9.7-5.64-5.11-14.48-10.45-28.87-15.62-43.33l-10.15,4.28,18.39,27,8.23-8.23a83.19,83.19,0,0,1-14.49-13.12c-4.37-5-11,.52-10.09,5.88a59.1,59.1,0,0,0,12.84,27.71l8.69-8.69q-3.89-3.6-7.8-7.18c-3.13-2.86-9.58-2.17-10.4,2.74-1.77,10.59,2.52,19.45,8.05,28.23l8.58-8.57a26.77,26.77,0,0,1-8.38-9.79c-3.31-6.22-13.81-2-11.51,4.86a85,85,0,0,0,12.18,23.59c4.82,6.5,15.86.12,11-6.41a74,74,0,0,1-11-20.53l-11.51,4.85a40.38,40.38,0,0,0,12.93,14.25c5.2,3.62,11.83-3.45,8.58-8.57-3.4-5.36-8-11.89-6.88-18.6l-10.4,2.75c2.63,2.37,5.27,4.71,7.91,7.07,6,5.31,13.76-2.67,8.69-8.69a45.1,45.1,0,0,1-9.89-22.23l-10.09,5.87a86.07,86.07,0,0,0,17,15c4.85,3.25,11.77-3.35,8.23-8.23l-19.19-26.52c-3.4-4.7-12.4-2.13-10.15,4.28,5.09,14.48,10,29,15.14,43.46l9.7-5.64c-10.21-9.34-14.22-22.91-16.21-36.22-2.33-15.57-3.1-30.62-8.82-45.48-1.58-4.11-7.9-2.58-6.73,1.86Z"/></symbol></defs><title>Asset 1blue</title><g id="Layer_2" data-name="Layer 2"><g id="Lock_-_Icons" data-name="Lock - Icons"><g class="cls-5"><use id="App_Icon-3" data-name="App Icon" width="853.93" height="891.06" xlink:href="#App_Icon"/></g></g></g></svg>